<svg xmlns="http://www.w3.org/2000/svg" xmlns:xlink="http://www.w3.org/1999/xlink" width="500" zoomAndPan="magnify" viewBox="0 0 375 374.999991" height="500" preserveAspectRatio="xMidYMid meet" version="1.0"><defs><g/><clipPath id="4093b8e010"><path d="M 298 41 L 322.5 41 L 322.5 277 L 298 277 Z M 298 41 " clip-rule="nonzero"/></clipPath><clipPath id="a4c03e0ebf"><path d="M 37.5 52 L 77 52 L 77 277 L 37.5 277 Z M 37.5 52 " clip-rule="nonzero"/></clipPath></defs><path fill="#ffffff" d="M 185.628906 58.894531 C 125.417969 58.894531 76.609375 107.65625 76.609375 167.8125 C 76.609375 227.964844 125.417969 276.730469 185.628906 276.730469 C 245.839844 276.730469 294.652344 227.964844 294.652344 167.8125 C 294.652344 107.65625 245.828125 58.894531 185.628906 58.894531 Z M 185.628906 254.144531 C 137.902344 254.144531 99.203125 215.484375 99.203125 167.800781 C 99.203125 120.117188 137.902344 81.457031 185.628906 81.457031 C 233.355469 81.457031 272.054688 120.117188 272.054688 167.800781 C 272.054688 215.484375 233.355469 254.144531 185.628906 254.144531 Z M 185.628906 254.144531 " fill-opacity="1" fill-rule="nonzero"/><path fill="#ffffff" d="M 261.957031 167.800781 C 261.957031 169.046875 261.925781 170.296875 261.863281 171.542969 C 261.804688 172.789062 261.710938 174.03125 261.589844 175.273438 C 261.464844 176.515625 261.3125 177.753906 261.128906 178.988281 C 260.945312 180.222656 260.734375 181.453125 260.488281 182.675781 C 260.246094 183.902344 259.972656 185.117188 259.667969 186.328125 C 259.367188 187.539062 259.03125 188.742188 258.667969 189.9375 C 258.308594 191.128906 257.914062 192.316406 257.496094 193.488281 C 257.074219 194.664062 256.625 195.828125 256.144531 196.980469 C 255.667969 198.136719 255.164062 199.273438 254.628906 200.402344 C 254.09375 201.53125 253.53125 202.644531 252.945312 203.746094 C 252.355469 204.847656 251.738281 205.933594 251.097656 207.003906 C 250.453125 208.074219 249.785156 209.128906 249.09375 210.164062 C 248.398438 211.203125 247.679688 212.222656 246.9375 213.226562 C 246.191406 214.226562 245.421875 215.210938 244.632812 216.175781 C 243.839844 217.140625 243.023438 218.085938 242.183594 219.011719 C 241.34375 219.933594 240.484375 220.839844 239.601562 221.71875 C 238.71875 222.601562 237.8125 223.464844 236.886719 224.300781 C 235.960938 225.140625 235.015625 225.953125 234.050781 226.746094 C 233.085938 227.539062 232.101562 228.304688 231.097656 229.050781 C 230.09375 229.792969 229.074219 230.511719 228.035156 231.203125 C 226.996094 231.898438 225.941406 232.566406 224.871094 233.207031 C 223.796875 233.847656 222.710938 234.460938 221.609375 235.050781 C 220.507812 235.640625 219.390625 236.199219 218.261719 236.734375 C 217.132812 237.265625 215.992188 237.773438 214.839844 238.25 C 213.683594 238.726562 212.519531 239.175781 211.34375 239.597656 C 210.167969 240.019531 208.980469 240.410156 207.785156 240.773438 C 206.589844 241.132812 205.386719 241.464844 204.175781 241.769531 C 202.964844 242.074219 201.746094 242.347656 200.519531 242.589844 C 199.292969 242.832031 198.0625 243.046875 196.828125 243.230469 C 195.59375 243.414062 194.355469 243.566406 193.109375 243.6875 C 191.867188 243.808594 190.621094 243.902344 189.375 243.964844 C 188.125 244.023438 186.878906 244.054688 185.628906 244.054688 C 184.378906 244.054688 183.132812 244.023438 181.882812 243.964844 C 180.636719 243.902344 179.390625 243.808594 178.148438 243.6875 C 176.90625 243.566406 175.664062 243.414062 174.429688 243.230469 C 173.195312 243.046875 171.964844 242.832031 170.738281 242.589844 C 169.511719 242.347656 168.296875 242.074219 167.082031 241.769531 C 165.871094 241.464844 164.667969 241.132812 163.472656 240.773438 C 162.277344 240.410156 161.089844 240.019531 159.914062 239.597656 C 158.738281 239.175781 157.574219 238.726562 156.421875 238.25 C 155.265625 237.773438 154.125 237.265625 152.996094 236.734375 C 151.867188 236.199219 150.75 235.640625 149.648438 235.050781 C 148.546875 234.460938 147.460938 233.847656 146.390625 233.207031 C 145.316406 232.566406 144.261719 231.898438 143.222656 231.203125 C 142.1875 230.511719 141.164062 229.792969 140.160156 229.046875 C 139.15625 228.304688 138.171875 227.539062 137.207031 226.746094 C 136.242188 225.953125 135.296875 225.140625 134.371094 224.300781 C 133.445312 223.464844 132.542969 222.601562 131.65625 221.71875 C 130.773438 220.839844 129.914062 219.933594 129.074219 219.011719 C 128.234375 218.085938 127.421875 217.140625 126.628906 216.175781 C 125.835938 215.210938 125.066406 214.226562 124.324219 213.226562 C 123.578125 212.222656 122.859375 211.203125 122.164062 210.164062 C 121.472656 209.128906 120.804688 208.074219 120.160156 207.003906 C 119.519531 205.933594 118.902344 204.847656 118.316406 203.746094 C 117.726562 202.644531 117.164062 201.53125 116.628906 200.402344 C 116.097656 199.273438 115.589844 198.136719 115.113281 196.980469 C 114.632812 195.828125 114.183594 194.664062 113.765625 193.488281 C 113.34375 192.316406 112.953125 191.128906 112.589844 189.9375 C 112.226562 188.742188 111.894531 187.539062 111.589844 186.328125 C 111.285156 185.117188 111.011719 183.902344 110.769531 182.675781 C 110.523438 181.453125 110.3125 180.222656 110.128906 178.988281 C 109.945312 177.753906 109.792969 176.515625 109.667969 175.273438 C 109.546875 174.03125 109.457031 172.789062 109.394531 171.542969 C 109.332031 170.296875 109.300781 169.046875 109.300781 167.800781 C 109.300781 166.550781 109.332031 165.304688 109.394531 164.058594 C 109.457031 162.8125 109.546875 161.566406 109.667969 160.324219 C 109.792969 159.085938 109.945312 157.847656 110.128906 156.613281 C 110.3125 155.378906 110.523438 154.148438 110.769531 152.921875 C 111.011719 151.699219 111.285156 150.484375 111.589844 149.273438 C 111.894531 148.0625 112.226562 146.859375 112.589844 145.664062 C 112.953125 144.46875 113.34375 143.285156 113.765625 142.109375 C 114.183594 140.9375 114.632812 139.773438 115.113281 138.617188 C 115.589844 137.464844 116.097656 136.324219 116.628906 135.195312 C 117.164062 134.070312 117.726562 132.953125 118.316406 131.855469 C 118.902344 130.753906 119.519531 129.667969 120.160156 128.597656 C 120.804688 127.527344 121.472656 126.472656 122.164062 125.433594 C 122.859375 124.398438 123.578125 123.378906 124.324219 122.375 C 125.066406 121.371094 125.835938 120.390625 126.628906 119.425781 C 127.421875 118.460938 128.234375 117.515625 129.074219 116.589844 C 129.914062 115.664062 130.773438 114.761719 131.65625 113.878906 C 132.542969 112.996094 133.445312 112.136719 134.371094 111.300781 C 135.296875 110.460938 136.242188 109.644531 137.207031 108.855469 C 138.171875 108.0625 139.15625 107.296875 140.160156 106.550781 C 141.164062 105.808594 142.1875 105.089844 143.222656 104.398438 C 144.261719 103.703125 145.316406 103.035156 146.390625 102.394531 C 147.460938 101.753906 148.546875 101.136719 149.648438 100.550781 C 150.75 99.960938 151.867188 99.398438 152.996094 98.867188 C 154.125 98.332031 155.265625 97.828125 156.421875 97.351562 C 157.574219 96.871094 158.738281 96.421875 159.914062 96.003906 C 161.089844 95.582031 162.277344 95.191406 163.472656 94.828125 C 164.667969 94.464844 165.871094 94.132812 167.082031 93.832031 C 168.296875 93.527344 169.511719 93.253906 170.738281 93.011719 C 171.964844 92.765625 173.195312 92.554688 174.429688 92.371094 C 175.664062 92.1875 176.90625 92.035156 178.148438 91.914062 C 179.390625 91.789062 180.636719 91.699219 181.882812 91.636719 C 183.132812 91.574219 184.378906 91.546875 185.628906 91.546875 C 186.878906 91.546875 188.125 91.574219 189.375 91.636719 C 190.621094 91.699219 191.867188 91.789062 193.109375 91.914062 C 194.355469 92.035156 195.59375 92.1875 196.828125 92.371094 C 198.0625 92.554688 199.292969 92.765625 200.519531 93.011719 C 201.746094 93.253906 202.964844 93.527344 204.175781 93.832031 C 205.386719 94.132812 206.589844 94.464844 207.785156 94.828125 C 208.980469 95.191406 210.167969 95.582031 211.34375 96.003906 C 212.519531 96.421875 213.683594 96.871094 214.839844 97.351562 C 215.992188 97.828125 217.132812 98.332031 218.261719 98.867188 C 219.390625 99.398438 220.507812 99.960938 221.609375 100.550781 C 222.710938 101.136719 223.796875 101.753906 224.871094 102.394531 C 225.941406 103.035156 226.996094 103.703125 228.035156 104.398438 C 229.074219 105.089844 230.09375 105.808594 231.097656 106.550781 C 232.101562 107.296875 233.085938 108.0625 234.050781 108.855469 C 235.015625 109.644531 235.960938 110.460938 236.886719 111.300781 C 237.8125 112.136719 238.71875 112.996094 239.601562 113.878906 C 240.484375 114.761719 241.34375 115.664062 242.183594 116.589844 C 243.023438 117.515625 243.839844 118.460938 244.632812 119.425781 C 245.421875 120.390625 246.191406 121.371094 246.9375 122.375 C 247.679688 123.378906 248.398438 124.398438 249.09375 125.433594 C 249.785156 126.472656 250.453125 127.527344 251.097656 128.597656 C 251.738281 129.667969 252.355469 130.753906 252.945312 131.855469 C 253.53125 132.953125 254.09375 134.070312 254.628906 135.195312 C 255.164062 136.324219 255.667969 137.464844 256.144531 138.617188 C 256.625 139.773438 257.074219 140.9375 257.496094 142.109375 C 257.914062 143.285156 258.308594 144.46875 258.667969 145.664062 C 259.03125 146.859375 259.367188 148.0625 259.667969 149.273438 C 259.972656 150.484375 260.246094 151.699219 260.488281 152.921875 C 260.734375 154.148438 260.945312 155.378906 261.128906 156.613281 C 261.3125 157.847656 261.464844 159.085938 261.589844 160.324219 C 261.710938 161.566406 261.804688 162.8125 261.863281 164.058594 C 261.925781 165.304688 261.957031 166.550781 261.957031 167.800781 Z M 261.957031 167.800781 " fill-opacity="1" fill-rule="nonzero"/><g clip-path="url(#4093b8e010)"><path fill="#ffffff" d="M 309.519531 51.582031 C 295.875 76.0625 296.195312 100.136719 306.261719 131.222656 C 306.261719 131.222656 310.765625 145.898438 307.433594 158.207031 C 306.582031 161.339844 306.261719 164.589844 306.261719 167.832031 L 306.25 268.589844 C 306.25 273.332031 310.378906 277.171875 315.226562 276.675781 C 319.441406 276.246094 322.519531 272.441406 322.519531 268.207031 L 322.519531 187.320312 L 322.53125 161.824219 L 322.519531 51.59375 C 322.542969 51.582031 322.542969 28.214844 309.519531 51.582031 Z M 309.519531 51.582031 " fill-opacity="1" fill-rule="nonzero"/></g><g clip-path="url(#a4c03e0ebf)"><path fill="#ffffff" d="M 72.800781 52.585938 L 72.347656 52.585938 C 70.238281 52.585938 68.539062 96.332031 68.539062 96.332031 C 68.539062 98.160156 67.191406 99.71875 65.382812 99.980469 C 63.164062 100.300781 61.167969 98.582031 61.167969 96.332031 C 61.167969 96.332031 59.457031 52.585938 57.359375 52.585938 L 56.851562 52.585938 C 54.742188 52.585938 53.042969 96.363281 53.042969 96.363281 C 53.042969 98.59375 51.066406 100.3125 48.859375 100.015625 L 48.40625 99.949219 C 46.585938 99.695312 45.214844 98.140625 45.214844 96.296875 C 45.214844 96.296875 43.503906 52.574219 41.40625 52.574219 C 39.300781 52.574219 37.601562 100.269531 37.601562 100.269531 C 37.601562 106.222656 38.914062 115.398438 45.382812 120.722656 C 49.234375 123.898438 50.128906 127.363281 50.207031 128.808594 L 50.207031 268.570312 C 50.207031 273.035156 53.871094 276.695312 58.339844 276.695312 C 62.8125 276.695312 66.476562 273.035156 66.476562 268.570312 L 66.476562 129.414062 L 66.484375 129.414062 C 66.464844 129.105469 66.484375 128.828125 66.476562 128.53125 L 66.476562 127.539062 C 66.664062 123.613281 68.273438 121.386719 70.03125 119.917969 C 76.652344 114.40625 76.652344 105.78125 76.652344 100.335938 C 76.609375 100.335938 74.90625 52.585938 72.800781 52.585938 Z M 72.800781 52.585938 " fill-opacity="1" fill-rule="nonzero"/></g><g fill="#ffffff" fill-opacity="1"><g transform="translate(26.291658, 335.359682)"><g><path d="M 39.792969 3.242188 C 44.714844 3.242188 47.363281 0.539062 47.363281 -3.40625 L 47.363281 -29.683594 C 47.363281 -33.144531 44.335938 -35.144531 41.089844 -35.144531 L 29.195312 -35.144531 L 33.25 -44.769531 L 25.738281 -44.824219 L 21.679688 -35.144531 L 11.894531 -35.144531 C 10.542969 -35.144531 9.785156 -35.46875 9.785156 -37.199219 L 4.324219 -37.199219 L 4.324219 -34.0625 C 4.324219 -30.441406 6.921875 -29.144531 9.625 -29.144531 L 19.140625 -29.144531 L 8.273438 -3.621094 C 7.839844 -2.59375 7.351562 -2.109375 6.109375 -2.109375 L 3.351562 -2.109375 L 4.597656 3.296875 L 8.21875 3.296875 C 11.246094 3.296875 13.410156 2.109375 14.707031 -0.917969 L 26.65625 -29.195312 L 38.0625 -29.195312 C 39.738281 -29.195312 40.550781 -28.222656 40.550781 -26.710938 L 40.550781 -5.730469 C 40.550781 -4.21875 39.847656 -3.40625 38.171875 -3.40625 L 32.277344 -3.40625 L 33.792969 3.242188 Z M 39.792969 3.242188 "/></g></g></g><g fill="#ffffff" fill-opacity="1"><g transform="translate(93.379141, 335.359682)"><g><path d="M 46.066406 -36.710938 L 46.066406 -42.550781 L 8.703125 -42.550781 L 8.703125 -36.710938 Z M 51.417969 -21.410156 L 51.417969 -27.304688 L 10.273438 -27.304688 C 8.921875 -27.304688 8.164062 -27.628906 8.164062 -29.359375 L 2.703125 -29.359375 L 2.703125 -26.332031 C 2.703125 -22.707031 5.296875 -21.410156 8.003906 -21.410156 L 24.601562 -21.410156 L 24.601562 -11.136719 C 24.601562 -9.839844 24.4375 -8.976562 23.085938 -8.378906 L 6.921875 -1.082031 L 11.410156 4.324219 L 26.492188 -2.542969 C 30.441406 -4.324219 31.738281 -6.921875 31.738281 -10.382812 L 31.738281 -21.410156 Z M 51.417969 -21.410156 "/></g></g></g><g fill="#ffffff" fill-opacity="1"><g transform="translate(160.466625, 335.359682)"><g><path d="M 42.390625 1.40625 C 46.175781 1.40625 48.929688 -0.917969 48.929688 -4.648438 L 48.929688 -33.035156 C 48.929688 -35.46875 47.6875 -37.414062 45.6875 -38.386719 L 45.6875 -46.445312 L 40.820312 -46.445312 L 40.820312 -39.089844 L 13.464844 -39.089844 C 12.109375 -39.089844 11.355469 -39.414062 11.355469 -41.144531 L 5.894531 -41.144531 L 5.894531 -37.847656 C 5.894531 -34.226562 8.488281 -32.925781 11.191406 -32.925781 L 39.46875 -32.925781 C 40.660156 -32.925781 41.847656 -32.386719 41.847656 -30.496094 L 41.847656 -7.246094 C 41.847656 -6 41.363281 -4.8125 39.414062 -4.8125 L 5.730469 -4.8125 L 5.730469 1.40625 Z M 53.257812 -38.335938 L 53.257812 -46.445312 L 48.390625 -46.445312 L 48.390625 -38.335938 Z M 53.257812 -38.335938 "/></g></g></g><g fill="#ffffff" fill-opacity="1"><g transform="translate(227.554108, 335.359682)"><g><path d="M 39.46875 -3.136719 C 43.632812 -4.433594 46.011719 -6.597656 46.011719 -12.328125 L 46.011719 -37.578125 C 46.011719 -40.765625 43.308594 -43.144531 39.6875 -43.144531 L 34.386719 -43.144531 L 34.386719 -37.199219 L 36.820312 -37.199219 C 38.335938 -37.199219 38.605469 -36.605469 38.605469 -34.980469 L 38.605469 -12.761719 C 38.605469 -11.246094 38.117188 -9.894531 36.226562 -9.355469 L 12.4375 -2.269531 L 16.597656 3.894531 Z M 15.464844 -14.652344 L 15.464844 -42.605469 L 8.164062 -42.605469 L 8.164062 -14.652344 Z M 15.464844 -14.652344 "/></g></g></g><g fill="#ffffff" fill-opacity="1"><g transform="translate(294.641591, 335.359682)"><g><path d="M 50.066406 -17.300781 L 50.066406 -24.007812 L 11.679688 -24.007812 C 10.328125 -24.007812 9.570312 -24.332031 9.570312 -26.0625 L 4.109375 -26.0625 L 4.109375 -22.222656 C 4.109375 -18.597656 6.703125 -17.300781 9.40625 -17.300781 Z M 50.066406 -17.300781 "/></g></g></g></svg>