<svg xmlns="http://www.w3.org/2000/svg" xmlns:xlink="http://www.w3.org/1999/xlink" width="500" zoomAndPan="magnify" viewBox="0 0 375 374.999991" height="500" preserveAspectRatio="xMidYMid meet" version="1.0"><defs><g/><clipPath id="cd7ce035d7"><path d="M 30.242188 83 L 76 83 L 76 142 L 30.242188 142 Z M 30.242188 83 " clip-rule="nonzero"/></clipPath><clipPath id="c01e344162"><path d="M 299 83 L 344.492188 83 L 344.492188 142 L 299 142 Z M 299 83 " clip-rule="nonzero"/></clipPath><clipPath id="d32f76ed1a"><path d="M 94 243 L 141 243 L 141 291.558594 L 94 291.558594 Z M 94 243 " clip-rule="nonzero"/></clipPath><clipPath id="e7f5cdf4cd"><path d="M 164 243 L 211 243 L 211 291.558594 L 164 291.558594 Z M 164 243 " clip-rule="nonzero"/></clipPath><clipPath id="fdafb86bd2"><path d="M 234 243 L 280 243 L 280 291.558594 L 234 291.558594 Z M 234 243 " clip-rule="nonzero"/></clipPath><clipPath id="c228faebb2"><path d="M 68 283 L 307 283 L 307 291.558594 L 68 291.558594 Z M 68 283 " clip-rule="nonzero"/></clipPath><clipPath id="23cbeb33b9"><path d="M 130 14.058594 L 144 14.058594 L 144 70 L 130 70 Z M 130 14.058594 " clip-rule="nonzero"/></clipPath><clipPath id="5332e5ebee"><path d="M 180 14.058594 L 195 14.058594 L 195 70 L 180 70 Z M 180 14.058594 " clip-rule="nonzero"/></clipPath><clipPath id="49c45f9886"><path d="M 231 14.058594 L 245 14.058594 L 245 70 L 231 70 Z M 231 14.058594 " clip-rule="nonzero"/></clipPath></defs><g clip-path="url(#cd7ce035d7)"><path fill="#ffffff" d="M 71.773438 83.773438 L 48.53125 83.773438 C 47.933594 83.773438 47.335938 83.800781 46.742188 83.863281 C 46.144531 83.921875 45.554688 84.007812 44.964844 84.128906 C 44.378906 84.246094 43.800781 84.390625 43.226562 84.566406 C 42.652344 84.738281 42.089844 84.941406 41.539062 85.171875 C 40.984375 85.398438 40.445312 85.65625 39.917969 85.9375 C 39.386719 86.222656 38.875 86.527344 38.378906 86.863281 C 37.878906 87.195312 37.398438 87.550781 36.9375 87.929688 C 36.476562 88.3125 36.03125 88.714844 35.609375 89.136719 C 35.183594 89.5625 34.785156 90.003906 34.402344 90.46875 C 34.023438 90.929688 33.667969 91.410156 33.335938 91.910156 C 33 92.40625 32.695312 92.917969 32.410156 93.449219 C 32.128906 93.976562 31.875 94.515625 31.644531 95.070312 C 31.414062 95.625 31.210938 96.1875 31.039062 96.761719 C 30.863281 97.332031 30.71875 97.914062 30.601562 98.5 C 30.484375 99.089844 30.394531 99.679688 30.335938 100.277344 C 30.277344 100.871094 30.246094 101.46875 30.246094 102.070312 L 30.246094 123.660156 C 30.246094 124.261719 30.277344 124.859375 30.335938 125.453125 C 30.394531 126.050781 30.484375 126.640625 30.601562 127.230469 C 30.71875 127.816406 30.863281 128.398438 31.039062 128.96875 C 31.210938 129.542969 31.414062 130.105469 31.644531 130.660156 C 31.875 131.214844 32.128906 131.753906 32.410156 132.28125 C 32.695312 132.8125 33 133.324219 33.335938 133.820312 C 33.667969 134.320312 34.023438 134.800781 34.402344 135.261719 C 34.785156 135.726562 35.183594 136.171875 35.609375 136.59375 C 36.03125 137.015625 36.472656 137.417969 36.9375 137.800781 C 37.398438 138.179688 37.878906 138.535156 38.378906 138.867188 C 38.875 139.203125 39.386719 139.507812 39.917969 139.792969 C 40.445312 140.074219 40.984375 140.332031 41.539062 140.5625 C 42.089844 140.789062 42.652344 140.992188 43.226562 141.167969 C 43.800781 141.339844 44.378906 141.488281 44.964844 141.605469 C 45.554688 141.722656 46.144531 141.808594 46.742188 141.867188 C 47.335938 141.929688 47.933594 141.957031 48.53125 141.957031 L 71.773438 141.957031 C 72.296875 141.957031 72.800781 141.859375 73.285156 141.660156 C 73.769531 141.457031 74.195312 141.171875 74.566406 140.800781 C 74.9375 140.433594 75.222656 140.003906 75.421875 139.519531 C 75.621094 139.035156 75.722656 138.535156 75.722656 138.007812 L 75.722656 122.660156 C 75.722656 122.136719 75.621094 121.632812 75.421875 121.148438 C 75.222656 120.664062 74.9375 120.238281 74.566406 119.867188 C 74.195312 119.496094 73.769531 119.210938 73.285156 119.011719 C 72.800781 118.8125 72.296875 118.710938 71.773438 118.710938 L 53.8125 118.710938 L 53.8125 107.019531 L 71.773438 107.019531 C 72.296875 107.019531 72.800781 106.917969 73.285156 106.71875 C 73.769531 106.519531 74.195312 106.234375 74.566406 105.863281 C 74.9375 105.492188 75.222656 105.066406 75.421875 104.582031 C 75.621094 104.097656 75.722656 103.59375 75.722656 103.070312 L 75.722656 87.722656 C 75.722656 87.199219 75.621094 86.695312 75.421875 86.210938 C 75.222656 85.726562 74.9375 85.300781 74.566406 84.929688 C 74.195312 84.558594 73.769531 84.273438 73.285156 84.074219 C 72.800781 83.871094 72.296875 83.773438 71.773438 83.773438 Z M 71.773438 83.773438 " fill-opacity="1" fill-rule="nonzero"/></g><g clip-path="url(#c01e344162)"><path fill="#ffffff" d="M 326.203125 83.773438 L 302.957031 83.773438 C 302.433594 83.773438 301.933594 83.871094 301.449219 84.074219 C 300.964844 84.273438 300.539062 84.558594 300.167969 84.929688 C 299.796875 85.300781 299.511719 85.726562 299.3125 86.210938 C 299.113281 86.695312 299.011719 87.199219 299.011719 87.722656 L 299.011719 103.070312 C 299.011719 103.59375 299.113281 104.097656 299.3125 104.582031 C 299.511719 105.066406 299.796875 105.492188 300.167969 105.863281 C 300.539062 106.234375 300.964844 106.519531 301.449219 106.71875 C 301.933594 106.917969 302.433594 107.019531 302.957031 107.019531 L 320.917969 107.019531 L 320.917969 118.710938 L 302.957031 118.710938 C 302.433594 118.710938 301.933594 118.8125 301.449219 119.011719 C 300.964844 119.210938 300.539062 119.496094 300.167969 119.867188 C 299.796875 120.238281 299.511719 120.664062 299.3125 121.148438 C 299.113281 121.632812 299.011719 122.136719 299.011719 122.660156 L 299.011719 138.007812 C 299.011719 138.535156 299.113281 139.035156 299.3125 139.519531 C 299.511719 140.003906 299.796875 140.433594 300.167969 140.800781 C 300.539062 141.171875 300.964844 141.457031 301.449219 141.660156 C 301.933594 141.859375 302.433594 141.957031 302.957031 141.957031 L 326.203125 141.957031 C 326.800781 141.957031 327.398438 141.929688 327.992188 141.867188 C 328.589844 141.808594 329.179688 141.722656 329.769531 141.605469 C 330.355469 141.488281 330.933594 141.339844 331.507812 141.167969 C 332.082031 140.992188 332.644531 140.789062 333.195312 140.5625 C 333.75 140.332031 334.289062 140.074219 334.816406 139.792969 C 335.34375 139.507812 335.859375 139.203125 336.355469 138.867188 C 336.855469 138.535156 337.335938 138.179688 337.796875 137.800781 C 338.257812 137.417969 338.703125 137.015625 339.125 136.59375 C 339.550781 136.171875 339.949219 135.726562 340.332031 135.261719 C 340.710938 134.800781 341.066406 134.320312 341.398438 133.820312 C 341.734375 133.324219 342.039062 132.8125 342.324219 132.28125 C 342.605469 131.753906 342.859375 131.214844 343.089844 130.660156 C 343.320312 130.105469 343.523438 129.542969 343.695312 128.96875 C 343.871094 128.398438 344.015625 127.816406 344.132812 127.230469 C 344.25 126.640625 344.339844 126.050781 344.398438 125.453125 C 344.457031 124.859375 344.488281 124.261719 344.488281 123.660156 L 344.488281 102.070312 C 344.488281 101.46875 344.457031 100.871094 344.398438 100.277344 C 344.339844 99.679688 344.25 99.089844 344.132812 98.5 C 344.015625 97.914062 343.871094 97.332031 343.695312 96.761719 C 343.523438 96.1875 343.320312 95.625 343.089844 95.070312 C 342.859375 94.515625 342.605469 93.976562 342.324219 93.449219 C 342.039062 92.917969 341.730469 92.40625 341.398438 91.910156 C 341.066406 91.410156 340.710938 90.929688 340.332031 90.46875 C 339.949219 90.003906 339.550781 89.5625 339.125 89.136719 C 338.703125 88.714844 338.257812 88.3125 337.796875 87.929688 C 337.332031 87.550781 336.855469 87.195312 336.355469 86.863281 C 335.859375 86.527344 335.34375 86.222656 334.816406 85.9375 C 334.289062 85.65625 333.75 85.398438 333.195312 85.171875 C 332.644531 84.941406 332.082031 84.738281 331.507812 84.566406 C 330.933594 84.390625 330.355469 84.246094 329.769531 84.128906 C 329.179688 84.007812 328.589844 83.921875 327.992188 83.863281 C 327.398438 83.800781 326.800781 83.773438 326.203125 83.773438 Z M 326.203125 83.773438 " fill-opacity="1" fill-rule="nonzero"/></g><g clip-path="url(#d32f76ed1a)"><path fill="#ffffff" d="M 129.355469 251.101562 L 119.960938 244.292969 C 119.625 244.046875 119.257812 243.859375 118.863281 243.734375 C 118.46875 243.605469 118.0625 243.539062 117.644531 243.539062 C 117.230469 243.539062 116.824219 243.605469 116.425781 243.734375 C 116.03125 243.863281 115.664062 244.046875 115.328125 244.292969 L 105.953125 251.101562 C 105.007812 251.789062 104.109375 252.539062 103.261719 253.34375 C 102.417969 254.148438 101.625 255.007812 100.890625 255.917969 C 100.15625 256.828125 99.484375 257.78125 98.875 258.78125 C 98.269531 259.777344 97.726562 260.8125 97.253906 261.882812 C 96.78125 262.949219 96.378906 264.046875 96.050781 265.167969 C 95.722656 266.292969 95.46875 267.429688 95.289062 268.585938 C 95.109375 269.742188 95.007812 270.90625 94.980469 272.074219 C 94.953125 273.242188 95.003906 274.410156 95.128906 275.570312 L 96.507812 288.050781 C 96.558594 288.53125 96.695312 288.988281 96.917969 289.421875 C 97.140625 289.855469 97.433594 290.234375 97.796875 290.558594 C 98.15625 290.882812 98.566406 291.132812 99.019531 291.304688 C 99.472656 291.476562 99.945312 291.566406 100.429688 291.566406 L 134.890625 291.566406 C 135.378906 291.566406 135.847656 291.476562 136.300781 291.304688 C 136.757812 291.132812 137.164062 290.882812 137.527344 290.558594 C 137.886719 290.234375 138.179688 289.855469 138.402344 289.421875 C 138.625 288.988281 138.761719 288.53125 138.816406 288.050781 L 140.191406 275.582031 C 140.316406 274.417969 140.367188 273.253906 140.339844 272.082031 C 140.3125 270.910156 140.210938 269.75 140.03125 268.59375 C 139.851562 267.4375 139.597656 266.296875 139.269531 265.171875 C 138.9375 264.050781 138.535156 262.953125 138.0625 261.882812 C 137.589844 260.8125 137.046875 259.777344 136.4375 258.78125 C 135.828125 257.78125 135.15625 256.828125 134.421875 255.917969 C 133.6875 255.007812 132.894531 254.148438 132.046875 253.34375 C 131.199219 252.535156 130.300781 251.789062 129.355469 251.101562 Z M 129.355469 251.101562 " fill-opacity="1" fill-rule="nonzero"/></g><g clip-path="url(#e7f5cdf4cd)"><path fill="#ffffff" d="M 199.0625 251.101562 L 189.667969 244.292969 C 189.332031 244.046875 188.964844 243.859375 188.570312 243.734375 C 188.175781 243.605469 187.769531 243.539062 187.351562 243.539062 C 186.9375 243.539062 186.53125 243.605469 186.132812 243.734375 C 185.738281 243.863281 185.371094 244.046875 185.035156 244.292969 L 175.660156 251.101562 C 174.714844 251.789062 173.816406 252.539062 172.96875 253.34375 C 172.125 254.148438 171.332031 255.007812 170.597656 255.917969 C 169.863281 256.828125 169.191406 257.78125 168.582031 258.78125 C 167.976562 259.777344 167.433594 260.8125 166.960938 261.882812 C 166.488281 262.949219 166.085938 264.046875 165.757812 265.167969 C 165.429688 266.292969 165.175781 267.429688 164.996094 268.585938 C 164.816406 269.742188 164.714844 270.902344 164.6875 272.074219 C 164.660156 273.242188 164.710938 274.410156 164.835938 275.570312 L 166.214844 288.046875 C 166.265625 288.53125 166.402344 288.988281 166.625 289.421875 C 166.847656 289.855469 167.140625 290.234375 167.503906 290.558594 C 167.863281 290.882812 168.273438 291.128906 168.726562 291.304688 C 169.179688 291.476562 169.648438 291.566406 170.136719 291.566406 L 204.597656 291.566406 C 205.085938 291.566406 205.554688 291.476562 206.007812 291.304688 C 206.464844 291.128906 206.871094 290.882812 207.234375 290.558594 C 207.59375 290.234375 207.886719 289.855469 208.109375 289.421875 C 208.332031 288.988281 208.46875 288.53125 208.523438 288.046875 L 209.898438 275.582031 C 210.023438 274.417969 210.074219 273.25 210.046875 272.082031 C 210.019531 270.910156 209.917969 269.75 209.738281 268.59375 C 209.558594 267.4375 209.304688 266.296875 208.976562 265.171875 C 208.644531 264.050781 208.242188 262.953125 207.769531 261.882812 C 207.296875 260.8125 206.753906 259.777344 206.144531 258.78125 C 205.535156 257.78125 204.863281 256.828125 204.128906 255.917969 C 203.390625 255.007812 202.601562 254.148438 201.753906 253.34375 C 200.90625 252.535156 200.007812 251.789062 199.0625 251.101562 Z M 199.0625 251.101562 " fill-opacity="1" fill-rule="nonzero"/></g><g clip-path="url(#fdafb86bd2)"><path fill="#ffffff" d="M 268.769531 251.101562 L 259.375 244.292969 C 259.039062 244.046875 258.671875 243.859375 258.277344 243.734375 C 257.878906 243.605469 257.476562 243.539062 257.058594 243.539062 C 256.640625 243.539062 256.238281 243.605469 255.839844 243.734375 C 255.445312 243.863281 255.078125 244.046875 254.742188 244.292969 L 245.363281 251.101562 C 244.421875 251.789062 243.523438 252.539062 242.675781 253.34375 C 241.828125 254.148438 241.039062 255.007812 240.304688 255.917969 C 239.570312 256.828125 238.898438 257.78125 238.289062 258.78125 C 237.679688 259.777344 237.140625 260.8125 236.667969 261.882812 C 236.195312 262.949219 235.792969 264.046875 235.464844 265.167969 C 235.136719 266.292969 234.882812 267.429688 234.703125 268.585938 C 234.523438 269.742188 234.421875 270.90625 234.394531 272.074219 C 234.367188 273.242188 234.417969 274.410156 234.542969 275.570312 L 235.917969 288.050781 C 235.972656 288.53125 236.109375 288.988281 236.332031 289.421875 C 236.554688 289.855469 236.847656 290.234375 237.210938 290.558594 C 237.570312 290.882812 237.980469 291.132812 238.433594 291.304688 C 238.886719 291.476562 239.355469 291.566406 239.84375 291.566406 L 274.304688 291.566406 C 274.792969 291.566406 275.261719 291.476562 275.714844 291.304688 C 276.171875 291.132812 276.578125 290.882812 276.941406 290.558594 C 277.300781 290.234375 277.59375 289.855469 277.816406 289.421875 C 278.039062 288.988281 278.175781 288.53125 278.230469 288.050781 L 279.605469 275.582031 C 279.730469 274.417969 279.78125 273.253906 279.753906 272.082031 C 279.726562 270.910156 279.625 269.75 279.445312 268.59375 C 279.265625 267.4375 279.011719 266.296875 278.683594 265.171875 C 278.351562 264.050781 277.949219 262.953125 277.476562 261.882812 C 277.003906 260.8125 276.460938 259.777344 275.851562 258.78125 C 275.242188 257.78125 274.570312 256.828125 273.835938 255.917969 C 273.097656 255.007812 272.308594 254.148438 271.460938 253.34375 C 270.613281 252.535156 269.714844 251.789062 268.769531 251.101562 Z M 268.769531 251.101562 " fill-opacity="1" fill-rule="nonzero"/></g><g clip-path="url(#c228faebb2)"><path fill="#ffffff" d="M 302.320312 291.566406 L 72.414062 291.566406 C 71.890625 291.566406 71.386719 291.464844 70.90625 291.265625 C 70.421875 291.066406 69.996094 290.78125 69.625 290.410156 C 69.253906 290.039062 68.96875 289.613281 68.769531 289.128906 C 68.570312 288.644531 68.46875 288.140625 68.46875 287.617188 C 68.46875 287.09375 68.570312 286.589844 68.769531 286.105469 C 68.96875 285.621094 69.253906 285.195312 69.625 284.824219 C 69.996094 284.453125 70.421875 284.167969 70.90625 283.96875 C 71.386719 283.769531 71.890625 283.667969 72.414062 283.667969 L 302.320312 283.667969 C 302.84375 283.667969 303.347656 283.769531 303.828125 283.96875 C 304.3125 284.167969 304.738281 284.453125 305.109375 284.824219 C 305.480469 285.195312 305.765625 285.621094 305.964844 286.105469 C 306.164062 286.589844 306.265625 287.09375 306.265625 287.617188 C 306.265625 288.140625 306.164062 288.644531 305.964844 289.128906 C 305.765625 289.613281 305.480469 290.039062 305.109375 290.410156 C 304.738281 290.78125 304.3125 291.066406 303.828125 291.265625 C 303.347656 291.464844 302.84375 291.566406 302.320312 291.566406 Z M 302.320312 291.566406 " fill-opacity="1" fill-rule="nonzero"/></g><path fill="#ffffff" d="M 290.886719 109.398438 L 290.886719 87.722656 C 290.886719 87.199219 290.785156 86.695312 290.585938 86.210938 C 290.386719 85.726562 290.101562 85.296875 289.730469 84.929688 C 289.359375 84.558594 288.933594 84.273438 288.449219 84.074219 C 287.964844 83.871094 287.464844 83.773438 286.941406 83.773438 L 87.792969 83.773438 C 87.269531 83.773438 86.769531 83.871094 86.285156 84.074219 C 85.800781 84.273438 85.375 84.558594 85.003906 84.929688 C 84.632812 85.296875 84.347656 85.726562 84.148438 86.210938 C 83.949219 86.695312 83.847656 87.199219 83.847656 87.722656 L 83.847656 109.398438 Z M 290.886719 109.398438 " fill-opacity="1" fill-rule="nonzero"/><path fill="#ffffff" d="M 83.847656 117.296875 L 83.847656 182.519531 C 83.847656 211.820312 107.671875 235.660156 136.953125 235.660156 L 237.777344 235.660156 C 267.0625 235.660156 290.886719 211.824219 290.886719 182.519531 L 290.886719 117.296875 Z M 83.847656 117.296875 " fill-opacity="1" fill-rule="nonzero"/><g clip-path="url(#23cbeb33b9)"><path fill="#ffffff" d="M 134.082031 69.808594 C 133.558594 69.808594 133.054688 69.707031 132.574219 69.507812 C 132.089844 69.304688 131.660156 69.019531 131.292969 68.652344 C 130.921875 68.28125 130.636719 67.851562 130.4375 67.371094 C 130.234375 66.886719 130.136719 66.382812 130.136719 65.859375 C 130.136719 60.625 132.105469 57.855469 133.683594 55.628906 C 134.941406 53.855469 135.773438 52.683594 135.773438 49.972656 C 135.773438 47.257812 134.941406 46.089844 133.683594 44.316406 C 132.101562 42.089844 130.136719 39.316406 130.136719 34.085938 C 130.136719 28.855469 132.105469 26.085938 133.683594 23.859375 C 134.941406 22.085938 135.773438 20.914062 135.773438 18.203125 C 135.773438 17.679688 135.875 17.175781 136.074219 16.691406 C 136.273438 16.207031 136.558594 15.78125 136.929688 15.410156 C 137.300781 15.039062 137.726562 14.753906 138.210938 14.554688 C 138.695312 14.355469 139.199219 14.253906 139.722656 14.253906 C 140.246094 14.253906 140.75 14.355469 141.230469 14.554688 C 141.714844 14.753906 142.140625 15.039062 142.511719 15.410156 C 142.882812 15.78125 143.167969 16.207031 143.367188 16.691406 C 143.566406 17.175781 143.667969 17.679688 143.667969 18.203125 C 143.667969 23.433594 141.699219 26.207031 140.121094 28.433594 C 138.859375 30.203125 138.03125 31.375 138.03125 34.085938 C 138.03125 36.796875 138.859375 37.96875 140.121094 39.742188 C 141.699219 41.96875 143.667969 44.742188 143.667969 49.972656 C 143.667969 55.203125 141.699219 57.972656 140.121094 60.203125 C 138.859375 61.976562 138.03125 63.144531 138.03125 65.859375 C 138.03125 66.382812 137.929688 66.886719 137.730469 67.371094 C 137.527344 67.851562 137.242188 68.28125 136.875 68.652344 C 136.503906 69.019531 136.078125 69.304688 135.59375 69.507812 C 135.109375 69.707031 134.605469 69.808594 134.082031 69.808594 Z M 134.082031 69.808594 " fill-opacity="1" fill-rule="nonzero"/></g><g clip-path="url(#5332e5ebee)"><path fill="#ffffff" d="M 184.546875 69.808594 C 184.023438 69.808594 183.519531 69.707031 183.039062 69.507812 C 182.554688 69.304688 182.125 69.019531 181.757812 68.652344 C 181.386719 68.28125 181.101562 67.851562 180.902344 67.371094 C 180.699219 66.886719 180.601562 66.382812 180.601562 65.859375 C 180.601562 60.625 182.570312 57.855469 184.148438 55.628906 C 185.40625 53.855469 186.238281 52.683594 186.238281 49.972656 C 186.238281 47.257812 185.40625 46.089844 184.148438 44.316406 C 182.570312 42.089844 180.601562 39.316406 180.601562 34.085938 C 180.601562 28.855469 182.570312 26.085938 184.148438 23.859375 C 185.40625 22.085938 186.238281 20.914062 186.238281 18.203125 C 186.238281 17.679688 186.339844 17.175781 186.539062 16.691406 C 186.738281 16.207031 187.023438 15.78125 187.394531 15.410156 C 187.765625 15.039062 188.191406 14.753906 188.675781 14.554688 C 189.160156 14.355469 189.664062 14.253906 190.1875 14.253906 C 190.710938 14.253906 191.214844 14.355469 191.695312 14.554688 C 192.179688 14.753906 192.605469 15.039062 192.976562 15.410156 C 193.347656 15.78125 193.632812 16.207031 193.832031 16.691406 C 194.03125 17.175781 194.132812 17.679688 194.132812 18.203125 C 194.132812 23.433594 192.164062 26.207031 190.585938 28.433594 C 189.324219 30.203125 188.496094 31.375 188.496094 34.085938 C 188.496094 36.796875 189.324219 37.96875 190.585938 39.742188 C 192.164062 41.96875 194.132812 44.742188 194.132812 49.972656 C 194.132812 55.203125 192.164062 57.976562 190.585938 60.203125 C 189.324219 61.976562 188.496094 63.148438 188.496094 65.859375 C 188.496094 66.382812 188.394531 66.886719 188.195312 67.371094 C 187.992188 67.851562 187.707031 68.28125 187.339844 68.652344 C 186.96875 69.019531 186.542969 69.304688 186.058594 69.507812 C 185.574219 69.707031 185.070312 69.808594 184.546875 69.808594 Z M 184.546875 69.808594 " fill-opacity="1" fill-rule="nonzero"/></g><g clip-path="url(#49c45f9886)"><path fill="#ffffff" d="M 235.011719 69.808594 C 234.488281 69.808594 233.984375 69.707031 233.503906 69.507812 C 233.019531 69.304688 232.589844 69.019531 232.222656 68.652344 C 231.851562 68.28125 231.566406 67.851562 231.367188 67.371094 C 231.164062 66.886719 231.066406 66.382812 231.066406 65.859375 C 231.066406 60.625 233.035156 57.855469 234.613281 55.628906 C 235.871094 53.855469 236.703125 52.683594 236.703125 49.972656 C 236.703125 47.261719 235.871094 46.089844 234.613281 44.316406 C 233.035156 42.089844 231.066406 39.316406 231.066406 34.085938 C 231.066406 28.855469 233.035156 26.085938 234.613281 23.859375 C 235.871094 22.085938 236.703125 20.914062 236.703125 18.203125 C 236.703125 17.679688 236.804688 17.175781 237.003906 16.691406 C 237.203125 16.207031 237.488281 15.78125 237.859375 15.410156 C 238.230469 15.039062 238.65625 14.753906 239.140625 14.554688 C 239.625 14.355469 240.128906 14.253906 240.652344 14.253906 C 241.175781 14.253906 241.679688 14.355469 242.160156 14.554688 C 242.644531 14.753906 243.070312 15.039062 243.441406 15.410156 C 243.8125 15.78125 244.097656 16.207031 244.296875 16.691406 C 244.496094 17.175781 244.597656 17.679688 244.597656 18.203125 C 244.597656 23.433594 242.628906 26.207031 241.050781 28.433594 C 239.789062 30.203125 238.960938 31.375 238.960938 34.085938 C 238.960938 36.796875 239.789062 37.96875 241.050781 39.742188 C 242.628906 41.96875 244.597656 44.742188 244.597656 49.972656 C 244.597656 55.203125 242.628906 57.976562 241.050781 60.203125 C 239.789062 61.976562 238.960938 63.148438 238.960938 65.859375 C 238.960938 66.382812 238.859375 66.886719 238.660156 67.371094 C 238.457031 67.851562 238.171875 68.28125 237.804688 68.652344 C 237.433594 69.019531 237.007812 69.304688 236.523438 69.507812 C 236.039062 69.707031 235.535156 69.808594 235.011719 69.808594 Z M 235.011719 69.808594 " fill-opacity="1" fill-rule="nonzero"/></g><g fill="#ffffff" fill-opacity="1"><g transform="translate(31.313324, 357.55971)"><g><path d="M 42.445312 0.863281 C 46.226562 0.863281 48.984375 -1.460938 48.984375 -5.191406 L 48.984375 -33.683594 C 48.984375 -37.359375 46.226562 -39.792969 42.390625 -39.792969 L 5.136719 -39.792969 L 5.136719 0.863281 Z M 41.902344 -7.785156 C 41.902344 -6.542969 41.417969 -5.351562 39.46875 -5.351562 L 12.21875 -5.351562 L 12.21875 -33.578125 L 39.523438 -33.578125 C 40.714844 -33.578125 41.902344 -33.035156 41.902344 -31.144531 Z M 41.902344 -7.785156 "/></g></g></g><g fill="#ffffff" fill-opacity="1"><g transform="translate(98.400808, 357.55971)"><g><path d="M 41.308594 -4.921875 C 45.6875 -6.324219 47.363281 -9.03125 47.363281 -12.597656 L 47.363281 -36.710938 C 47.363281 -38.335938 46.714844 -39.632812 45.6875 -40.550781 L 45.6875 -46.984375 L 40.820312 -46.984375 L 40.820312 -42.171875 L 21.140625 -42.171875 C 18.4375 -42.171875 16.492188 -41.253906 14.976562 -38.171875 C 13.03125 -34.277344 8.273438 -25.140625 7.027344 -22.65625 C 6.542969 -21.679688 6 -21.410156 5.296875 -21.410156 L 2.324219 -21.410156 L 3.460938 -15.625 L 7.082031 -15.625 C 10.003906 -15.625 11.625 -16.816406 12.8125 -19.355469 C 13.839844 -21.574219 19.25 -31.738281 20.382812 -34.117188 C 21.085938 -35.523438 22.058594 -36.28125 23.464844 -36.28125 L 37.902344 -36.28125 C 39.578125 -36.28125 40.550781 -35.414062 40.550781 -33.628906 L 40.550781 -14.164062 C 40.550781 -12.488281 40.117188 -11.625 38.441406 -11.082031 L 8.867188 -1.675781 L 12.707031 4.378906 Z M 53.257812 -39.414062 L 53.257812 -46.984375 L 48.390625 -46.984375 L 48.390625 -39.414062 Z M 53.257812 -39.414062 "/></g></g></g><g fill="#ffffff" fill-opacity="1"><g transform="translate(165.488291, 357.55971)"><g><path d="M 44.121094 -18.058594 C 48.230469 -18.871094 50.066406 -21.574219 50.066406 -25.25 L 50.066406 -35.199219 C 50.066406 -38.496094 47.039062 -40.929688 43.632812 -40.929688 L 11.082031 -40.929688 C 9.730469 -40.929688 8.976562 -41.253906 8.976562 -42.984375 L 3.515625 -42.984375 L 3.515625 -39.957031 C 3.515625 -36.332031 6.109375 -35.035156 8.8125 -35.035156 L 40.875 -35.035156 C 42.335938 -35.035156 43.253906 -34.117188 43.253906 -32.925781 L 43.253906 -26.4375 C 43.253906 -24.980469 42.496094 -24.277344 41.363281 -24.058594 L 30.925781 -22.277344 L 33.523438 -16.003906 Z M 23.574219 -3.515625 C 27.359375 -5.351562 28.925781 -7.730469 28.925781 -11.515625 L 28.925781 -31.628906 L 22.167969 -31.628906 L 22.167969 -12.328125 C 22.167969 -10.757812 21.519531 -9.894531 20.492188 -9.40625 L 3.40625 -1.242188 L 7.460938 4.21875 Z M 23.574219 -3.515625 "/></g></g></g><g fill="#ffffff" fill-opacity="1"><g transform="translate(232.575775, 357.55971)"><g><path d="M 42.226562 -4.433594 C 47.148438 -6.054688 48.984375 -8.921875 48.984375 -13.410156 L 48.984375 -32.332031 C 48.984375 -35.359375 46.5 -38.117188 43.253906 -38.117188 L 30.546875 -38.117188 L 30.546875 -45.851562 L 23.410156 -45.851562 L 23.410156 -38.117188 L 5.136719 -38.117188 L 5.136719 -17.140625 L 11.949219 -17.140625 L 11.949219 -32.171875 L 40.0625 -32.171875 C 41.308594 -32.171875 42.171875 -31.304688 42.171875 -29.953125 L 42.171875 -14.164062 C 42.171875 -12.164062 41.46875 -11.191406 40.0625 -10.757812 L 12.542969 -1.945312 L 16.707031 4.109375 Z M 42.226562 -4.433594 "/></g></g></g><g fill="#ffffff" fill-opacity="1"><g transform="translate(299.663258, 357.55971)"><g><path d="M 49.039062 -15.84375 L 51.039062 -22.65625 L 20.546875 -27.953125 L 20.546875 -44.769531 L 13.085938 -44.769531 L 13.085938 3.785156 L 20.546875 3.785156 L 20.546875 -21.304688 Z M 49.039062 -15.84375 "/></g></g></g></svg>