<svg xmlns="http://www.w3.org/2000/svg" xmlns:xlink="http://www.w3.org/1999/xlink" width="500" zoomAndPan="magnify" viewBox="0 0 375 374.999991" height="500" preserveAspectRatio="xMidYMid meet" version="1.0"><defs><clipPath id="997bf9f3b4"><path d="M 19 71 L 356.25 71 L 356.25 201.75 L 19 201.75 Z M 19 71 " clip-rule="nonzero"/></clipPath><clipPath id="406cae8189"><path d="M 200 37.5 L 228 37.5 L 228 108 L 200 108 Z M 200 37.5 " clip-rule="nonzero"/></clipPath><clipPath id="9d4ad7e718"><path d="M 239 37.5 L 267 37.5 L 267 108 L 239 108 Z M 239 37.5 " clip-rule="nonzero"/></clipPath><clipPath id="61f54bd926"><path d="M 278 37.5 L 306 37.5 L 306 108 L 278 108 Z M 278 37.5 " clip-rule="nonzero"/></clipPath></defs><g clip-path="url(#997bf9f3b4)"><path fill="#ffffff" d="M 152.371094 134.117188 L 122.003906 121.101562 C 122.003906 118.320312 121.484375 115.539062 120.421875 112.882812 C 118.253906 107.464844 114.132812 103.203125 108.800781 100.859375 L 50.496094 72.984375 L 50.175781 72.839844 C 47.40625 71.652344 44.484375 71.046875 41.488281 71.046875 C 32.636719 71.046875 24.667969 76.308594 21.191406 84.445312 C 18.867188 89.871094 18.796875 95.875 20.988281 101.355469 C 23.15625 106.773438 27.277344 111.035156 32.609375 113.375 L 90.914062 141.253906 L 91.238281 141.402344 C 94.007812 142.585938 96.929688 143.1875 99.921875 143.1875 C 105.714844 143.1875 111.105469 140.902344 115.132812 137.0625 L 146.679688 150.589844 C 150.503906 179.347656 175.113281 201.628906 204.875 201.628906 L 297.660156 201.628906 C 330.0625 201.628906 356.425781 175.242188 356.425781 142.808594 L 356.425781 134.117188 Z M 104.257812 122.949219 C 103.28125 125.226562 100.546875 126.402344 98.199219 125.472656 L 39.949219 97.625 L 39.625 97.476562 C 38.46875 96.980469 37.574219 96.066406 37.105469 94.894531 C 36.640625 93.730469 36.65625 92.449219 37.152344 91.289062 C 38.125 89.007812 40.871094 87.832031 43.207031 88.761719 L 101.453125 116.609375 L 101.777344 116.757812 C 102.933594 117.253906 103.828125 118.167969 104.296875 119.339844 C 104.765625 120.507812 104.75 121.789062 104.257812 122.949219 Z M 104.257812 122.949219 " fill-opacity="1" fill-rule="nonzero"/></g><g clip-path="url(#406cae8189)"><path fill="#ffffff" d="M 206.15625 107.992188 C 211.519531 107.992188 216.871094 107.992188 222.226562 107.992188 C 241.515625 84.535156 202.941406 61.078125 222.226562 37.621094 C 216.871094 37.621094 211.519531 37.621094 206.15625 37.621094 C 186.871094 61.078125 225.445312 84.535156 206.15625 107.992188 Z M 206.15625 107.992188 " fill-opacity="1" fill-rule="nonzero"/></g><g clip-path="url(#9d4ad7e718)"><path fill="#ffffff" d="M 245.019531 107.992188 C 250.378906 107.992188 255.738281 107.992188 261.09375 107.992188 C 280.382812 84.535156 241.804688 61.078125 261.09375 37.621094 C 255.738281 37.621094 250.378906 37.621094 245.019531 37.621094 C 225.730469 61.078125 264.308594 84.535156 245.019531 107.992188 Z M 245.019531 107.992188 " fill-opacity="1" fill-rule="nonzero"/></g><g clip-path="url(#61f54bd926)"><path fill="#ffffff" d="M 283.886719 107.992188 C 289.246094 107.992188 294.601562 107.992188 299.960938 107.992188 C 319.25 84.535156 280.671875 61.078125 299.960938 37.621094 C 294.601562 37.621094 289.246094 37.621094 283.886719 37.621094 C 264.597656 61.078125 303.175781 84.535156 283.886719 107.992188 Z M 283.886719 107.992188 " fill-opacity="1" fill-rule="nonzero"/></g></svg>