<svg xmlns="http://www.w3.org/2000/svg" xmlns:xlink="http://www.w3.org/1999/xlink" width="500" zoomAndPan="magnify" viewBox="0 0 375 374.999991" height="500" preserveAspectRatio="xMidYMid meet" version="1.0"><defs><g/><clipPath id="a0cde52039"><path d="M 10.261719 100 L 347.761719 100 L 347.761719 231 L 10.261719 231 Z M 10.261719 100 " clip-rule="nonzero"/></clipPath><clipPath id="94bf291d57"><path d="M 192 66.761719 L 220 66.761719 L 220 138 L 192 138 Z M 192 66.761719 " clip-rule="nonzero"/></clipPath><clipPath id="9a1b7887ee"><path d="M 230 66.761719 L 259 66.761719 L 259 138 L 230 138 Z M 230 66.761719 " clip-rule="nonzero"/></clipPath><clipPath id="a74a829f92"><path d="M 269 66.761719 L 298 66.761719 L 298 138 L 269 138 Z M 269 66.761719 " clip-rule="nonzero"/></clipPath></defs><g clip-path="url(#a0cde52039)"><path fill="#ffffff" d="M 143.886719 163.378906 L 113.515625 150.363281 C 113.515625 147.582031 112.996094 144.800781 111.9375 142.144531 C 109.769531 136.722656 105.644531 132.464844 100.3125 130.121094 L 42.011719 102.246094 L 41.6875 102.101562 C 38.917969 100.910156 36 100.308594 33 100.308594 C 24.152344 100.308594 16.183594 105.570312 12.703125 113.707031 C 10.382812 119.132812 10.308594 125.136719 12.5 130.613281 C 14.667969 136.035156 18.789062 140.296875 24.121094 142.636719 L 82.429688 170.515625 L 82.753906 170.664062 C 85.519531 171.847656 88.441406 172.449219 91.4375 172.449219 C 97.230469 172.449219 102.617188 170.164062 106.644531 166.324219 L 138.195312 179.847656 C 142.019531 208.609375 166.625 230.886719 196.390625 230.886719 L 289.171875 230.886719 C 321.578125 230.886719 347.941406 204.503906 347.941406 172.066406 L 347.941406 163.375 L 143.886719 163.375 Z M 95.769531 152.207031 C 94.792969 154.484375 92.058594 155.664062 89.710938 154.734375 L 31.460938 126.886719 L 31.136719 126.738281 C 29.984375 126.242188 29.089844 125.328125 28.621094 124.15625 C 28.152344 122.988281 28.167969 121.710938 28.664062 120.550781 C 29.640625 118.269531 32.382812 117.09375 34.71875 118.023438 L 92.96875 145.871094 L 93.292969 146.019531 C 94.445312 146.511719 95.339844 147.429688 95.808594 148.597656 C 96.28125 149.769531 96.265625 151.050781 95.769531 152.207031 Z M 95.769531 152.207031 " fill-opacity="1" fill-rule="nonzero"/></g><g clip-path="url(#94bf291d57)"><path fill="#ffffff" d="M 197.671875 137.25 C 203.03125 137.25 208.382812 137.25 213.738281 137.25 C 233.027344 113.792969 194.457031 90.335938 213.738281 66.882812 C 208.382812 66.882812 203.03125 66.882812 197.671875 66.882812 C 178.386719 90.335938 216.960938 113.796875 197.671875 137.25 Z M 197.671875 137.25 " fill-opacity="1" fill-rule="nonzero"/></g><g clip-path="url(#9a1b7887ee)"><path fill="#ffffff" d="M 236.53125 137.25 C 241.894531 137.25 247.25 137.25 252.605469 137.25 C 271.894531 113.792969 233.316406 90.335938 252.605469 66.882812 C 247.25 66.882812 241.894531 66.882812 236.53125 66.882812 C 217.242188 90.335938 255.820312 113.796875 236.53125 137.25 Z M 236.53125 137.25 " fill-opacity="1" fill-rule="nonzero"/></g><g clip-path="url(#a74a829f92)"><path fill="#ffffff" d="M 275.398438 137.25 C 280.761719 137.25 286.113281 137.25 291.472656 137.25 C 310.761719 113.792969 272.183594 90.335938 291.472656 66.882812 C 286.113281 66.882812 280.761719 66.882812 275.398438 66.882812 C 256.113281 90.335938 294.6875 113.796875 275.398438 137.25 Z M 275.398438 137.25 " fill-opacity="1" fill-rule="nonzero"/></g><g fill="#ffffff" fill-opacity="1"><g transform="translate(65.749741, 319.653512)"><g><path d="M 42.445312 0.863281 C 46.226562 0.863281 48.984375 -1.460938 48.984375 -5.191406 L 48.984375 -33.683594 C 48.984375 -37.359375 46.226562 -39.792969 42.390625 -39.792969 L 5.136719 -39.792969 L 5.136719 0.863281 Z M 41.902344 -7.785156 C 41.902344 -6.542969 41.417969 -5.351562 39.46875 -5.351562 L 12.21875 -5.351562 L 12.21875 -33.578125 L 39.523438 -33.578125 C 40.714844 -33.578125 41.902344 -33.035156 41.902344 -31.144531 Z M 41.902344 -7.785156 "/></g></g></g><g fill="#ffffff" fill-opacity="1"><g transform="translate(132.837224, 319.653512)"><g><path d="M 41.308594 -4.921875 C 45.6875 -6.324219 47.363281 -9.03125 47.363281 -12.597656 L 47.363281 -36.710938 C 47.363281 -38.335938 46.714844 -39.632812 45.6875 -40.550781 L 45.6875 -46.984375 L 40.820312 -46.984375 L 40.820312 -42.171875 L 21.140625 -42.171875 C 18.4375 -42.171875 16.492188 -41.253906 14.976562 -38.171875 C 13.03125 -34.277344 8.273438 -25.140625 7.027344 -22.65625 C 6.542969 -21.679688 6 -21.410156 5.296875 -21.410156 L 2.324219 -21.410156 L 3.460938 -15.625 L 7.082031 -15.625 C 10.003906 -15.625 11.625 -16.816406 12.8125 -19.355469 C 13.839844 -21.574219 19.25 -31.738281 20.382812 -34.117188 C 21.085938 -35.523438 22.058594 -36.28125 23.464844 -36.28125 L 37.902344 -36.28125 C 39.578125 -36.28125 40.550781 -35.414062 40.550781 -33.628906 L 40.550781 -14.164062 C 40.550781 -12.488281 40.117188 -11.625 38.441406 -11.082031 L 8.867188 -1.675781 L 12.707031 4.378906 Z M 53.257812 -39.414062 L 53.257812 -46.984375 L 48.390625 -46.984375 L 48.390625 -39.414062 Z M 53.257812 -39.414062 "/></g></g></g><g fill="#ffffff" fill-opacity="1"><g transform="translate(199.924707, 319.653512)"><g><path d="M 32.441406 3.894531 L 32.441406 -25.574219 L 43.144531 -28.332031 C 47.632812 -29.519531 48.984375 -32.820312 48.984375 -36.117188 L 48.984375 -44.226562 L 41.902344 -44.226562 L 41.902344 -36.929688 C 41.902344 -35.46875 41.199219 -34.605469 39.847656 -34.277344 L 2.109375 -25.035156 L 5.949219 -18.707031 L 25.085938 -23.628906 L 25.085938 3.894531 Z M 32.441406 3.894531 "/></g></g></g><g fill="#ffffff" fill-opacity="1"><g transform="translate(267.012191, 319.653512)"><g><path d="M 29.46875 -24.925781 L 31.953125 -31.195312 L 13.246094 -37.902344 C 11.894531 -38.386719 11.734375 -39.089844 11.734375 -40.117188 C 11.734375 -40.335938 11.734375 -40.660156 11.734375 -40.929688 L 6.21875 -40.929688 L 6.21875 -37.144531 C 6.21875 -34.605469 7.730469 -32.65625 10.757812 -31.574219 Z M 34.332031 2.59375 C 39.363281 2.59375 42.820312 0.433594 43.957031 -4.597656 L 50.390625 -32.496094 L 43.523438 -34.875 L 37.199219 -6.433594 C 36.765625 -4.597656 35.683594 -3.894531 33.902344 -3.894531 L 14.273438 -3.894531 C 13.03125 -3.894531 12.109375 -4.269531 12.109375 -5.894531 L 12.109375 -7.300781 L 6.21875 -7.300781 L 6.21875 -2.488281 C 6.21875 0.972656 9.136719 2.59375 12.488281 2.59375 Z M 34.332031 2.59375 "/></g></g></g></svg>