<svg xmlns="http://www.w3.org/2000/svg" xmlns:xlink="http://www.w3.org/1999/xlink" width="500" zoomAndPan="magnify" viewBox="0 0 375 374.999991" height="500" preserveAspectRatio="xMidYMid meet" version="1.0"><defs><g/><clipPath id="2f8cbe73cf"><path d="M 106.511719 13.507812 L 268.511719 13.507812 L 268.511719 297 L 106.511719 297 Z M 106.511719 13.507812 " clip-rule="nonzero"/></clipPath></defs><g clip-path="url(#2f8cbe73cf)"><path fill="#ffffff" d="M 254.269531 13.507812 L 120.722656 13.507812 C 112.910156 13.507812 106.582031 19.832031 106.582031 27.636719 L 106.582031 122.105469 C 106.945312 122.105469 107.3125 122.109375 107.679688 122.109375 L 268.410156 122.109375 L 268.410156 27.636719 C 268.410156 19.832031 262.082031 13.507812 254.269531 13.507812 Z M 129.066406 105.445312 C 129.066406 110.9375 120.539062 110.929688 120.539062 105.445312 L 120.539062 80.71875 C 120.539062 75.226562 129.066406 75.234375 129.066406 80.71875 Z M 214.488281 130.632812 L 106.582031 130.632812 L 106.582031 260.597656 C 106.582031 267.484375 111.511719 273.21875 118.039062 274.46875 L 118.039062 290.054688 C 118.039062 293.890625 121.148438 297 124.988281 297 C 128.476562 297 131.421875 294.417969 131.878906 290.964844 L 134.03125 274.726562 L 240.960938 274.726562 L 243.113281 290.964844 C 243.570312 294.417969 246.519531 297 250.003906 297 C 253.84375 297 256.953125 293.890625 256.953125 290.054688 L 256.953125 274.46875 C 263.480469 273.21875 268.410156 267.484375 268.410156 260.597656 L 268.410156 130.636719 C 268.046875 130.636719 267.679688 130.632812 267.3125 130.632812 Z M 120.539062 146.34375 C 120.539062 140.851562 129.066406 140.863281 129.066406 146.34375 L 129.066406 171.074219 C 129.066406 176.566406 120.539062 176.554688 120.539062 171.074219 Z M 120.539062 146.34375 " fill-opacity="1" fill-rule="nonzero"/></g><g fill="#ffffff" fill-opacity="1"><g transform="translate(98.402659, 357.55971)"><g><path d="M 52.554688 -25.574219 L 52.554688 -31.035156 L 50.984375 -31.035156 C 50.335938 -31.035156 50.011719 -31.304688 49.851562 -31.847656 L 46.335938 -44.769531 L 23.789062 -44.769531 L 20.601562 -31.898438 C 20.382812 -31.359375 20.003906 -31.035156 19.355469 -31.035156 L 17.085938 -31.035156 L 17.085938 -25.574219 L 21.84375 -25.574219 C 24.332031 -25.574219 26.0625 -26.492188 26.546875 -28.492188 L 29.195312 -39.308594 L 40.929688 -39.308594 L 43.632812 -28.546875 C 44.121094 -26.601562 45.742188 -25.574219 48.5 -25.574219 Z M 45.6875 1.890625 C 49.148438 1.890625 50.878906 0.109375 50.878906 -3.296875 L 50.878906 -21.519531 L 38.605469 -21.519531 L 38.605469 -29.574219 L 31.898438 -29.574219 L 31.898438 -21.519531 L 18.328125 -21.519531 L 18.328125 -16.058594 L 25.140625 -16.058594 L 25.140625 5.027344 L 31.847656 5.027344 L 31.847656 -16.058594 L 44.171875 -16.058594 L 44.171875 -4.867188 C 44.171875 -4 43.742188 -3.570312 42.820312 -3.570312 L 39.308594 -3.570312 L 40.496094 1.890625 Z M 14.976562 -24.761719 L 14.976562 -30.171875 L 12.8125 -30.171875 C 11.894531 -30.171875 11.355469 -30.496094 11.246094 -31.144531 L 8.976562 -46.066406 L 2.433594 -46.066406 L 5.246094 -28.441406 C 6.054688 -25.953125 7.785156 -24.761719 10.433594 -24.761719 Z M 5.625 4.21875 C 8.867188 4.21875 10.707031 2.972656 11.246094 0.59375 L 14.113281 -21.140625 L 7.40625 -21.140625 L 5.027344 -2.433594 C 4.921875 -1.621094 4.488281 -1.242188 3.894531 -1.242188 L 1.082031 -1.242188 L 2.324219 4.21875 Z M 5.625 4.21875 "/></g></g></g><g fill="#ffffff" fill-opacity="1"><g transform="translate(165.490142, 357.55971)"><g><path d="M 52.554688 4.21875 L 52.554688 -1.242188 L 47.148438 -1.242188 C 46.445312 -1.242188 46.066406 -1.621094 45.957031 -2.378906 L 45.199219 -8.054688 L 48.554688 -8.054688 C 50.175781 -8.054688 51.09375 -9.246094 51.308594 -11.679688 L 52.335938 -24.761719 L 47.742188 -24.761719 L 47.09375 -14.328125 C 47.039062 -13.734375 46.769531 -13.515625 46.28125 -13.515625 L 44.605469 -13.515625 L 42.820312 -28.332031 L 52.554688 -28.332031 L 52.554688 -33.359375 L 50.878906 -33.359375 L 50.121094 -36.171875 L 45.308594 -36.171875 L 46.066406 -33.359375 L 42.28125 -33.359375 L 42.011719 -35.957031 L 42.769531 -35.957031 L 42.769531 -38.660156 L 52.554688 -38.660156 L 52.554688 -43.6875 L 42.769531 -43.6875 L 42.769531 -46.28125 L 36.226562 -46.28125 L 36.226562 -43.6875 L 16.761719 -43.6875 L 16.761719 -46.28125 L 10.273438 -46.28125 L 10.273438 -43.6875 L 1.460938 -43.6875 L 1.460938 -38.660156 L 10.273438 -38.660156 L 10.273438 -35.957031 L 16.761719 -35.957031 L 16.761719 -38.660156 L 36.226562 -38.660156 L 36.226562 -36.332031 L 35.738281 -36.332031 L 36.0625 -33.359375 L 4.488281 -33.359375 L 4.488281 -2.542969 C 4.488281 -1.675781 4.054688 -1.242188 3.136719 -1.242188 L 0.863281 -1.242188 L 2.054688 4.21875 L 6 4.21875 C 9.40625 4.21875 11.191406 2.433594 11.191406 -0.972656 L 11.191406 -28.332031 L 36.550781 -28.332031 L 39.847656 0.539062 C 40.117188 2.972656 41.847656 4.21875 44.984375 4.21875 Z M 35.035156 4.378906 L 35.035156 -0.164062 L 30.925781 -0.164062 L 30.925781 -4.164062 C 33.089844 -4.703125 34.171875 -6.378906 34.171875 -9.136719 L 34.171875 -16.761719 L 30.925781 -16.761719 L 30.925781 -20.328125 L 34.386719 -20.328125 L 34.386719 -24.925781 L 15.140625 -24.925781 L 15.140625 4.378906 Z M 25.683594 -16.761719 L 20.761719 -16.761719 L 20.761719 -20.328125 L 25.683594 -20.328125 Z M 29.574219 -9.625 C 29.574219 -8.757812 29.195312 -8.328125 28.277344 -8.328125 L 20.761719 -8.328125 L 20.761719 -12.382812 L 29.574219 -12.382812 Z M 25.683594 -0.164062 L 20.761719 -0.164062 L 20.761719 -3.945312 L 25.683594 -3.945312 Z M 25.683594 -0.164062 "/></g></g></g><g fill="#ffffff" fill-opacity="1"><g transform="translate(232.577626, 357.55971)"><g><path d="M 52.554688 1.460938 L 52.554688 -3.136719 L 36.496094 -3.136719 L 36.496094 -6.976562 L 45.578125 -6.976562 C 49.039062 -6.976562 50.769531 -8.757812 50.769531 -12.164062 L 50.769531 -26.386719 L 36.496094 -26.386719 L 36.496094 -29.792969 L 52.335938 -29.792969 L 52.335938 -34.007812 L 36.496094 -34.007812 L 36.496094 -35.957031 L 29.792969 -35.957031 L 29.792969 -34.007812 L 13.679688 -34.007812 L 13.679688 -29.792969 L 29.792969 -29.792969 L 29.792969 -26.386719 L 15.570312 -26.386719 L 15.570312 -6.976562 L 29.792969 -6.976562 L 29.792969 -3.136719 L 13.515625 -3.136719 L 13.515625 1.460938 L 29.792969 1.460938 L 29.792969 5.027344 L 36.496094 5.027344 L 36.496094 1.460938 Z M 52.554688 -38.28125 L 52.554688 -43.253906 L 32.0625 -43.253906 L 32.0625 -46.28125 L 25.359375 -46.28125 L 25.359375 -43.253906 L 4.269531 -43.253906 L 4.269531 -2.542969 C 4.269531 -1.675781 3.839844 -1.242188 2.917969 -1.242188 L 1.082031 -1.242188 L 2.214844 4.21875 L 5.785156 4.21875 C 9.191406 4.21875 10.976562 2.433594 10.976562 -0.972656 L 10.976562 -38.28125 Z M 44.714844 -18.761719 L 36.496094 -18.761719 L 36.496094 -22.222656 L 44.714844 -22.222656 Z M 44.714844 -12.488281 C 44.714844 -11.570312 44.28125 -11.191406 43.363281 -11.191406 L 36.496094 -11.191406 L 36.496094 -14.597656 L 44.714844 -14.597656 Z M 29.792969 -18.761719 L 21.628906 -18.761719 L 21.628906 -22.222656 L 29.792969 -22.222656 Z M 29.792969 -11.191406 L 21.628906 -11.191406 L 21.628906 -14.597656 L 29.792969 -14.597656 Z M 29.792969 -11.191406 "/></g></g></g></svg>