<svg xmlns="http://www.w3.org/2000/svg" xmlns:xlink="http://www.w3.org/1999/xlink" width="500" zoomAndPan="magnify" viewBox="0 0 375 374.999991" height="500" preserveAspectRatio="xMidYMid meet" version="1.0"><defs><g/><clipPath id="57ffccb50b"><path d="M 26 15.113281 L 344 15.113281 L 344 293.363281 L 26 293.363281 Z M 26 15.113281 " clip-rule="nonzero"/></clipPath></defs><path fill="#ffffff" d="M 339.160156 117.171875 C 339.160156 115.800781 339.117188 114.425781 339.035156 113.054688 C 338.949219 111.683594 338.828125 110.316406 338.660156 108.953125 C 338.492188 107.589844 338.285156 106.230469 338.039062 104.878906 C 337.789062 103.527344 337.5 102.183594 337.167969 100.851562 C 336.839844 99.519531 336.46875 98.195312 336.058594 96.882812 C 335.648438 95.574219 335.199219 94.273438 334.710938 92.992188 C 334.21875 91.707031 333.691406 90.441406 333.125 89.1875 C 332.558594 87.9375 331.957031 86.703125 331.316406 85.488281 C 330.675781 84.273438 329.996094 83.078125 329.285156 81.902344 C 328.570312 80.730469 327.820312 79.578125 327.039062 78.449219 C 326.253906 77.320312 325.4375 76.214844 324.585938 75.136719 C 323.738281 74.058594 322.855469 73.003906 321.941406 71.980469 C 321.027344 70.953125 320.082031 69.957031 319.105469 68.988281 C 318.132812 68.019531 317.128906 67.082031 316.097656 66.175781 C 315.066406 65.269531 314.007812 64.394531 312.921875 63.550781 C 311.835938 62.707031 310.726562 61.898438 309.59375 61.121094 C 308.460938 60.347656 307.304688 59.605469 306.125 58.898438 C 304.945312 58.195312 303.746094 57.527344 302.527344 56.894531 C 301.308594 56.261719 300.070312 55.664062 298.8125 55.109375 C 297.558594 54.550781 296.285156 54.03125 295 53.550781 C 293.710938 53.070312 292.410156 52.628906 291.097656 52.226562 C 289.785156 51.828125 288.457031 51.464844 287.121094 51.144531 C 285.785156 50.824219 284.441406 50.542969 283.089844 50.304688 C 281.738281 50.0625 280.378906 49.867188 279.011719 49.707031 C 277.648438 49.550781 276.28125 49.4375 274.90625 49.363281 C 273.535156 49.289062 272.164062 49.257812 270.789062 49.265625 C 269.414062 49.277344 268.042969 49.328125 266.671875 49.417969 C 265.300781 49.511719 263.933594 49.648438 262.570312 49.824219 C 261.210938 50 259.851562 50.214844 258.503906 50.472656 C 257.15625 50.730469 255.8125 51.03125 254.484375 51.371094 C 253.152344 51.710938 251.832031 52.089844 250.523438 52.507812 C 249.214844 52.929688 247.921875 53.386719 246.640625 53.886719 C 245.125 51.296875 243.449219 48.816406 241.609375 46.449219 C 239.765625 44.085938 237.777344 41.847656 235.636719 39.746094 C 233.5 37.644531 231.234375 35.691406 228.835938 33.886719 C 226.441406 32.085938 223.933594 30.445312 221.320312 28.976562 C 218.707031 27.503906 216.011719 26.214844 213.226562 25.097656 C 210.441406 23.984375 207.59375 23.0625 204.6875 22.324219 C 201.78125 21.589844 198.839844 21.046875 195.859375 20.699219 C 192.878906 20.355469 189.890625 20.207031 186.894531 20.253906 C 183.894531 20.304688 180.914062 20.550781 177.945312 20.996094 C 174.980469 21.441406 172.058594 22.078125 169.175781 22.910156 C 166.296875 23.742188 163.480469 24.761719 160.734375 25.964844 C 157.988281 27.167969 155.335938 28.550781 152.769531 30.105469 C 150.207031 31.664062 147.757812 33.382812 145.421875 35.261719 C 143.085938 37.144531 140.886719 39.171875 138.816406 41.34375 C 136.75 43.515625 134.835938 45.816406 133.074219 48.242188 C 131.308594 50.667969 129.714844 53.199219 128.289062 55.835938 C 127.195312 55.316406 126.089844 54.828125 124.96875 54.367188 C 123.851562 53.90625 122.722656 53.476562 121.578125 53.078125 C 120.4375 52.679688 119.285156 52.308594 118.125 51.972656 C 116.960938 51.632812 115.792969 51.324219 114.613281 51.050781 C 113.4375 50.773438 112.25 50.53125 111.058594 50.320312 C 109.871094 50.105469 108.671875 49.925781 107.472656 49.777344 C 106.273438 49.628906 105.066406 49.511719 103.863281 49.429688 C 102.65625 49.34375 101.445312 49.292969 100.238281 49.273438 C 99.027344 49.253906 97.816406 49.265625 96.609375 49.3125 C 95.398438 49.359375 94.191406 49.433594 92.988281 49.542969 C 91.78125 49.65625 90.582031 49.796875 89.382812 49.96875 C 88.1875 50.144531 86.996094 50.351562 85.808594 50.585938 C 84.621094 50.824219 83.445312 51.09375 82.273438 51.394531 C 81.101562 51.695312 79.9375 52.027344 78.78125 52.390625 C 77.628906 52.753906 76.484375 53.144531 75.351562 53.570312 C 74.21875 53.992188 73.097656 54.449219 71.988281 54.929688 C 70.878906 55.414062 69.785156 55.929688 68.703125 56.472656 C 67.621094 57.011719 66.554688 57.585938 65.503906 58.183594 C 64.453125 58.78125 63.417969 59.410156 62.402344 60.066406 C 61.382812 60.71875 60.386719 61.402344 59.40625 62.109375 C 58.421875 62.816406 57.460938 63.550781 56.519531 64.308594 C 55.578125 65.070312 54.65625 65.855469 53.757812 66.664062 C 52.859375 67.472656 51.980469 68.304688 51.125 69.160156 C 50.269531 70.015625 49.4375 70.890625 48.628906 71.792969 C 47.820312 72.691406 47.035156 73.613281 46.277344 74.554688 C 45.519531 75.496094 44.785156 76.457031 44.078125 77.441406 C 43.367188 78.421875 42.6875 79.421875 42.03125 80.4375 C 41.378906 81.457031 40.75 82.488281 40.152344 83.539062 C 39.554688 84.59375 38.980469 85.660156 38.441406 86.738281 C 37.898438 87.820312 37.386719 88.917969 36.902344 90.027344 C 36.417969 91.136719 35.964844 92.257812 35.539062 93.390625 C 35.117188 94.523438 34.722656 95.667969 34.359375 96.820312 C 33.996094 97.976562 33.667969 99.136719 33.367188 100.308594 C 33.066406 101.480469 32.796875 102.660156 32.558594 103.847656 C 32.320312 105.035156 32.117188 106.226562 31.941406 107.421875 C 31.769531 108.621094 31.628906 109.820312 31.515625 111.027344 C 31.40625 112.230469 31.332031 113.4375 31.285156 114.648438 C 31.242188 115.855469 31.226562 117.066406 31.246094 118.277344 C 31.265625 119.484375 31.320312 120.695312 31.402344 121.902344 C 31.488281 123.109375 31.605469 124.3125 31.753906 125.511719 C 31.902344 126.714844 32.082031 127.910156 32.292969 129.101562 C 32.507812 130.292969 32.75 131.476562 33.027344 132.652344 C 33.300781 133.832031 33.609375 135 33.945312 136.164062 C 34.285156 137.324219 34.65625 138.476562 35.054688 139.617188 C 35.453125 140.761719 35.882812 141.890625 36.34375 143.011719 C 36.804688 144.128906 37.292969 145.234375 37.8125 146.328125 C 38.332031 147.421875 38.882812 148.5 39.457031 149.5625 C 40.035156 150.625 40.640625 151.671875 41.273438 152.703125 C 41.90625 153.734375 42.566406 154.75 43.253906 155.742188 C 43.941406 156.738281 44.652344 157.714844 45.394531 158.675781 C 46.132812 159.632812 46.898438 160.570312 47.6875 161.484375 C 48.476562 162.402344 49.289062 163.296875 50.125 164.171875 C 50.964844 165.042969 51.824219 165.894531 52.707031 166.722656 C 53.589844 167.550781 54.492188 168.351562 55.417969 169.132812 C 56.34375 169.910156 57.289062 170.664062 58.257812 171.394531 C 59.222656 172.121094 60.207031 172.824219 61.210938 173.5 C 62.214844 174.175781 63.234375 174.824219 64.273438 175.445312 C 65.3125 176.066406 66.363281 176.660156 67.433594 177.226562 C 68.503906 177.789062 69.589844 178.328125 70.6875 178.832031 C 71.785156 179.339844 72.898438 179.816406 74.019531 180.265625 C 75.144531 180.714844 76.28125 181.128906 77.425781 181.519531 C 78.574219 181.90625 79.726562 182.261719 80.894531 182.585938 C 82.058594 182.910156 83.230469 183.203125 84.414062 183.46875 C 85.59375 183.730469 86.78125 183.960938 87.972656 184.160156 L 87.972656 288.527344 L 290.109375 288.527344 L 290.109375 182.40625 C 291.863281 181.902344 293.59375 181.324219 295.300781 180.675781 C 297.007812 180.03125 298.683594 179.316406 300.332031 178.535156 C 301.984375 177.753906 303.597656 176.90625 305.179688 175.992188 C 306.757812 175.082031 308.300781 174.109375 309.804688 173.070312 C 311.304688 172.035156 312.761719 170.941406 314.175781 169.785156 C 315.589844 168.632812 316.957031 167.425781 318.273438 166.160156 C 319.589844 164.894531 320.851562 163.582031 322.0625 162.214844 C 323.273438 160.851562 324.429688 159.4375 325.523438 157.980469 C 326.621094 156.519531 327.65625 155.019531 328.632812 153.476562 C 329.609375 151.933594 330.523438 150.355469 331.371094 148.742188 C 332.21875 147.125 333 145.476562 333.71875 143.800781 C 334.433594 142.121094 335.078125 140.414062 335.65625 138.683594 C 336.238281 136.953125 336.746094 135.203125 337.179688 133.429688 C 337.617188 131.65625 337.984375 129.871094 338.277344 128.070312 C 338.570312 126.269531 338.789062 124.457031 338.9375 122.640625 C 339.085938 120.820312 339.160156 118.996094 339.160156 117.171875 Z M 339.160156 117.171875 " fill-opacity="1" fill-rule="nonzero"/><g clip-path="url(#57ffccb50b)"><path fill="#ffffff" d="M 290.109375 293.160156 L 87.976562 293.160156 C 87.671875 293.160156 87.371094 293.132812 87.070312 293.070312 C 86.773438 293.011719 86.480469 292.925781 86.199219 292.808594 C 85.917969 292.691406 85.652344 292.546875 85.398438 292.378906 C 85.144531 292.210938 84.910156 292.019531 84.695312 291.800781 C 84.480469 291.585938 84.289062 291.351562 84.117188 291.097656 C 83.949219 290.847656 83.808594 290.578125 83.691406 290.296875 C 83.574219 290.015625 83.484375 289.726562 83.425781 289.425781 C 83.367188 289.128906 83.335938 288.828125 83.335938 288.523438 L 83.335938 187.980469 C 82.117188 187.710938 80.90625 187.40625 79.703125 187.070312 C 78.5 186.734375 77.304688 186.371094 76.117188 185.972656 C 74.933594 185.578125 73.761719 185.148438 72.597656 184.691406 C 71.433594 184.234375 70.285156 183.746094 69.148438 183.230469 C 68.007812 182.714844 66.886719 182.167969 65.777344 181.59375 C 64.667969 181.019531 63.574219 180.414062 62.492188 179.785156 C 61.414062 179.152344 60.355469 178.492188 59.308594 177.808594 C 58.265625 177.121094 57.238281 176.410156 56.234375 175.667969 C 55.226562 174.929688 54.238281 174.164062 53.269531 173.375 C 52.300781 172.585938 51.355469 171.769531 50.429688 170.929688 C 49.503906 170.089844 48.597656 169.226562 47.71875 168.34375 C 46.835938 167.457031 45.980469 166.546875 45.144531 165.617188 C 44.308594 164.6875 43.5 163.738281 42.714844 162.765625 C 41.929688 161.792969 41.171875 160.800781 40.4375 159.789062 C 39.703125 158.777344 38.996094 157.75 38.316406 156.699219 C 37.632812 155.652344 36.980469 154.585938 36.355469 153.507812 C 35.730469 152.425781 35.132812 151.328125 34.5625 150.214844 C 33.992188 149.101562 33.453125 147.976562 32.941406 146.835938 C 32.433594 145.695312 31.949219 144.542969 31.5 143.375 C 31.046875 142.210938 30.628906 141.035156 30.238281 139.847656 C 29.847656 138.660156 29.488281 137.464844 29.160156 136.257812 C 28.828125 135.054688 28.53125 133.839844 28.265625 132.617188 C 28 131.398438 27.765625 130.171875 27.5625 128.9375 C 27.359375 127.703125 27.191406 126.46875 27.050781 125.226562 C 26.914062 123.984375 26.804688 122.738281 26.730469 121.492188 C 26.65625 120.242188 26.617188 118.996094 26.605469 117.746094 C 26.597656 116.496094 26.617188 115.246094 26.671875 114 C 26.726562 112.75 26.816406 111.503906 26.933594 110.261719 C 27.054688 109.015625 27.203125 107.777344 27.386719 106.539062 C 27.570312 105.304688 27.785156 104.074219 28.03125 102.847656 C 28.277344 101.621094 28.558594 100.40625 28.867188 99.195312 C 29.175781 97.984375 29.515625 96.78125 29.890625 95.589844 C 30.261719 94.394531 30.664062 93.214844 31.097656 92.039062 C 31.527344 90.867188 31.992188 89.707031 32.484375 88.558594 C 32.976562 87.410156 33.5 86.277344 34.050781 85.15625 C 34.601562 84.035156 35.183594 82.929688 35.792969 81.835938 C 36.398438 80.746094 37.035156 79.671875 37.699219 78.613281 C 38.363281 77.554688 39.054688 76.511719 39.773438 75.488281 C 40.492188 74.46875 41.234375 73.464844 42.003906 72.480469 C 42.773438 71.496094 43.570312 70.53125 44.390625 69.585938 C 45.210938 68.644531 46.050781 67.722656 46.917969 66.824219 C 47.789062 65.921875 48.675781 65.046875 49.589844 64.191406 C 50.503906 63.339844 51.4375 62.507812 52.390625 61.703125 C 53.347656 60.898438 54.324219 60.117188 55.316406 59.363281 C 56.3125 58.609375 57.328125 57.878906 58.363281 57.175781 C 59.394531 56.472656 60.445312 55.800781 61.515625 55.152344 C 62.582031 54.503906 63.667969 53.882812 64.765625 53.289062 C 65.867188 52.699219 66.980469 52.132812 68.113281 51.597656 C 69.242188 51.066406 70.382812 50.558594 71.539062 50.082031 C 72.695312 49.609375 73.863281 49.164062 75.039062 48.746094 C 76.21875 48.332031 77.40625 47.949219 78.605469 47.59375 C 79.804688 47.238281 81.011719 46.917969 82.226562 46.625 C 83.441406 46.332031 84.664062 46.074219 85.890625 45.84375 C 87.121094 45.617188 88.351562 45.421875 89.59375 45.253906 C 90.832031 45.089844 92.074219 44.957031 93.316406 44.859375 C 94.5625 44.757812 95.8125 44.6875 97.058594 44.652344 C 98.308594 44.617188 99.558594 44.613281 100.808594 44.640625 C 102.058594 44.671875 103.304688 44.730469 104.550781 44.824219 C 105.796875 44.917969 107.039062 45.042969 108.277344 45.199219 C 109.519531 45.355469 110.753906 45.546875 111.984375 45.765625 C 113.214844 45.988281 114.4375 46.242188 115.652344 46.523438 C 116.871094 46.808594 118.078125 47.125 119.28125 47.472656 C 120.480469 47.816406 121.671875 48.195312 122.851562 48.601562 C 124.03125 49.011719 125.203125 49.449219 126.359375 49.917969 C 127.160156 48.632812 127.996094 47.371094 128.875 46.136719 C 129.753906 44.898438 130.667969 43.695312 131.621094 42.515625 C 132.574219 41.339844 133.5625 40.191406 134.585938 39.074219 C 135.613281 37.960938 136.671875 36.878906 137.761719 35.828125 C 138.855469 34.777344 139.980469 33.765625 141.136719 32.785156 C 142.292969 31.804688 143.480469 30.863281 144.695312 29.960938 C 145.910156 29.054688 147.152344 28.191406 148.421875 27.363281 C 149.691406 26.535156 150.984375 25.75 152.304688 25.003906 C 153.621094 24.257812 154.960938 23.554688 156.324219 22.894531 C 157.6875 22.230469 159.070312 21.613281 160.472656 21.039062 C 161.871094 20.460938 163.292969 19.933594 164.726562 19.445312 C 166.160156 18.960938 167.609375 18.519531 169.070312 18.121094 C 170.535156 17.726562 172.007812 17.378906 173.492188 17.074219 C 174.976562 16.769531 176.46875 16.515625 177.96875 16.304688 C 179.46875 16.09375 180.972656 15.933594 182.484375 15.816406 C 183.996094 15.703125 185.507812 15.632812 187.023438 15.613281 C 188.539062 15.59375 190.050781 15.621094 191.5625 15.695312 C 193.078125 15.769531 194.585938 15.890625 196.09375 16.058594 C 197.597656 16.226562 199.097656 16.441406 200.589844 16.707031 C 202.082031 16.96875 203.5625 17.277344 205.035156 17.632812 C 206.507812 17.988281 207.96875 18.390625 209.414062 18.835938 C 210.863281 19.285156 212.296875 19.777344 213.710938 20.3125 C 215.128906 20.847656 216.527344 21.429688 217.90625 22.054688 C 219.289062 22.679688 220.648438 23.34375 221.984375 24.054688 C 223.324219 24.765625 224.640625 25.515625 225.929688 26.308594 C 227.222656 27.097656 228.488281 27.929688 229.726562 28.800781 C 230.964844 29.671875 232.175781 30.582031 233.359375 31.527344 C 234.542969 32.476562 235.695312 33.460938 236.8125 34.476562 C 237.933594 35.496094 239.023438 36.550781 240.078125 37.636719 C 241.132812 38.726562 242.152344 39.84375 243.136719 40.996094 C 244.121094 42.148438 245.070312 43.328125 245.980469 44.539062 C 246.890625 45.75 247.761719 46.988281 248.597656 48.253906 C 249.71875 47.882812 250.851562 47.535156 251.992188 47.21875 C 253.136719 46.902344 254.28125 46.617188 255.4375 46.355469 C 256.59375 46.09375 257.753906 45.863281 258.921875 45.660156 C 260.085938 45.457031 261.257812 45.28125 262.433594 45.136719 C 263.605469 44.988281 264.785156 44.871094 265.964844 44.785156 C 267.148438 44.695312 268.328125 44.636719 269.511719 44.605469 C 270.695312 44.574219 271.878906 44.574219 273.0625 44.601562 C 274.246094 44.628906 275.429688 44.683594 276.609375 44.769531 C 277.792969 44.855469 278.96875 44.96875 280.144531 45.113281 C 281.320312 45.253906 282.492188 45.425781 283.660156 45.625 C 284.824219 45.828125 285.988281 46.054688 287.140625 46.3125 C 288.296875 46.570312 289.445312 46.855469 290.589844 47.167969 C 291.730469 47.484375 292.863281 47.824219 293.988281 48.191406 C 295.113281 48.5625 296.230469 48.957031 297.335938 49.382812 C 298.441406 49.804688 299.535156 50.253906 300.617188 50.734375 C 301.703125 51.210938 302.773438 51.714844 303.832031 52.242188 C 304.890625 52.773438 305.9375 53.328125 306.96875 53.910156 C 308 54.488281 309.019531 55.09375 310.019531 55.726562 C 311.023438 56.355469 312.007812 57.011719 312.976562 57.691406 C 313.949219 58.371094 314.902344 59.070312 315.835938 59.796875 C 316.773438 60.523438 317.691406 61.269531 318.589844 62.042969 C 319.488281 62.8125 320.367188 63.605469 321.226562 64.417969 C 322.089844 65.230469 322.929688 66.066406 323.746094 66.921875 C 324.566406 67.773438 325.363281 68.648438 326.140625 69.542969 C 326.917969 70.4375 327.671875 71.347656 328.40625 72.28125 C 329.136719 73.210938 329.84375 74.160156 330.53125 75.125 C 331.214844 76.089844 331.878906 77.070312 332.515625 78.070312 C 333.152344 79.066406 333.765625 80.078125 334.351562 81.109375 C 334.941406 82.136719 335.503906 83.175781 336.039062 84.230469 C 336.578125 85.289062 337.089844 86.355469 337.574219 87.4375 C 338.058594 88.515625 338.515625 89.609375 338.945312 90.710938 C 339.378906 91.8125 339.78125 92.925781 340.15625 94.046875 C 340.535156 95.171875 340.882812 96.300781 341.203125 97.441406 C 341.527344 98.582031 341.820312 99.730469 342.085938 100.882812 C 342.347656 102.035156 342.585938 103.195312 342.792969 104.363281 C 343.003906 105.527344 343.183594 106.699219 343.332031 107.871094 C 343.484375 109.046875 343.605469 110.222656 343.699219 111.40625 C 343.792969 112.585938 343.859375 113.765625 343.894531 114.949219 C 343.929688 116.132812 343.9375 117.316406 343.914062 118.5 C 343.890625 119.683594 343.839844 120.867188 343.757812 122.050781 C 343.679688 123.230469 343.570312 124.410156 343.433594 125.585938 C 343.292969 126.761719 343.125 127.933594 342.929688 129.101562 C 342.734375 130.269531 342.511719 131.429688 342.257812 132.589844 C 342.007812 133.746094 341.726562 134.894531 341.417969 136.039062 C 341.109375 137.183594 340.773438 138.316406 340.410156 139.441406 C 340.042969 140.570312 339.652344 141.6875 339.234375 142.792969 C 338.816406 143.902344 338.371094 145 337.898438 146.085938 C 337.425781 147.171875 336.925781 148.242188 336.398438 149.304688 C 335.875 150.367188 335.324219 151.414062 334.746094 152.449219 C 334.171875 153.480469 333.570312 154.5 332.945312 155.507812 C 332.316406 156.511719 331.667969 157.5 330.992188 158.472656 C 330.316406 159.445312 329.617188 160.402344 328.898438 161.339844 C 328.175781 162.28125 327.429688 163.199219 326.664062 164.101562 C 325.898438 165.003906 325.109375 165.886719 324.300781 166.75 C 323.488281 167.617188 322.660156 168.457031 321.808594 169.28125 C 320.957031 170.105469 320.085938 170.90625 319.195312 171.6875 C 318.304688 172.46875 317.394531 173.226562 316.46875 173.960938 C 315.539062 174.699219 314.59375 175.410156 313.632812 176.101562 C 312.671875 176.789062 311.691406 177.453125 310.695312 178.097656 C 309.703125 178.738281 308.691406 179.355469 307.664062 179.949219 C 306.640625 180.539062 305.601562 181.105469 304.546875 181.648438 C 303.496094 182.1875 302.429688 182.703125 301.351562 183.195312 C 300.273438 183.683594 299.183594 184.144531 298.082031 184.582031 C 296.980469 185.015625 295.871094 185.425781 294.75 185.808594 L 294.75 288.523438 C 294.75 288.828125 294.71875 289.128906 294.660156 289.425781 C 294.601562 289.726562 294.511719 290.015625 294.398438 290.296875 C 294.28125 290.578125 294.136719 290.847656 293.96875 291.097656 C 293.796875 291.351562 293.605469 291.585938 293.390625 291.800781 C 293.175781 292.019531 292.941406 292.210938 292.6875 292.378906 C 292.433594 292.546875 292.167969 292.691406 291.886719 292.808594 C 291.605469 292.925781 291.316406 293.011719 291.015625 293.070312 C 290.71875 293.132812 290.414062 293.160156 290.109375 293.160156 Z M 92.613281 283.882812 L 285.472656 283.882812 L 285.472656 182.40625 C 285.472656 181.90625 285.550781 181.414062 285.710938 180.9375 C 285.871094 180.460938 286.101562 180.019531 286.402344 179.617188 C 286.707031 179.214844 287.0625 178.871094 287.476562 178.585938 C 287.890625 178.300781 288.339844 178.089844 288.824219 177.949219 C 289.847656 177.652344 290.863281 177.332031 291.867188 176.984375 C 292.875 176.636719 293.871094 176.265625 294.859375 175.867188 C 295.847656 175.472656 296.824219 175.046875 297.792969 174.601562 C 298.757812 174.15625 299.714844 173.683594 300.65625 173.1875 C 301.597656 172.695312 302.527344 172.175781 303.445312 171.632812 C 304.363281 171.089844 305.265625 170.527344 306.152344 169.9375 C 307.039062 169.351562 307.914062 168.742188 308.769531 168.109375 C 309.628906 167.480469 310.46875 166.828125 311.292969 166.152344 C 312.117188 165.476562 312.925781 164.785156 313.714844 164.070312 C 314.503906 163.355469 315.273438 162.621094 316.027344 161.867188 C 316.777344 161.113281 317.511719 160.339844 318.222656 159.550781 C 318.9375 158.757812 319.628906 157.949219 320.300781 157.125 C 320.976562 156.300781 321.625 155.457031 322.257812 154.597656 C 322.886719 153.738281 323.492188 152.867188 324.078125 151.976562 C 324.664062 151.085938 325.226562 150.183594 325.769531 149.265625 C 326.308594 148.347656 326.824219 147.417969 327.316406 146.472656 C 327.8125 145.53125 328.28125 144.574219 328.726562 143.605469 C 329.171875 142.640625 329.589844 141.660156 329.984375 140.671875 C 330.382812 139.683594 330.75 138.683594 331.097656 137.679688 C 331.441406 136.671875 331.761719 135.65625 332.054688 134.632812 C 332.347656 133.609375 332.617188 132.578125 332.859375 131.539062 C 333.101562 130.503906 333.316406 129.460938 333.503906 128.414062 C 333.695312 127.367188 333.855469 126.3125 333.992188 125.257812 C 334.128906 124.199219 334.238281 123.140625 334.320312 122.082031 C 334.402344 121.019531 334.460938 119.957031 334.488281 118.890625 C 334.515625 117.828125 334.519531 116.761719 334.496094 115.699219 C 334.46875 114.632812 334.417969 113.570312 334.339844 112.507812 C 334.261719 111.445312 334.15625 110.386719 334.023438 109.328125 C 333.890625 108.273438 333.734375 107.21875 333.546875 106.171875 C 333.363281 105.121094 333.152344 104.078125 332.914062 103.042969 C 332.675781 102.003906 332.410156 100.972656 332.121094 99.949219 C 331.832031 98.921875 331.515625 97.90625 331.175781 96.898438 C 330.835938 95.890625 330.46875 94.890625 330.074219 93.898438 C 329.683594 92.910156 329.269531 91.929688 328.828125 90.960938 C 328.386719 89.992188 327.921875 89.035156 327.429688 88.085938 C 326.941406 87.140625 326.429688 86.210938 325.890625 85.289062 C 325.355469 84.371094 324.796875 83.464844 324.210938 82.574219 C 323.628906 81.679688 323.027344 80.804688 322.398438 79.945312 C 321.773438 79.082031 321.125 78.238281 320.457031 77.410156 C 319.785156 76.582031 319.097656 75.769531 318.386719 74.976562 C 317.675781 74.183594 316.945312 73.410156 316.195312 72.652344 C 315.449219 71.894531 314.679688 71.15625 313.894531 70.441406 C 313.105469 69.722656 312.304688 69.023438 311.480469 68.347656 C 310.660156 67.671875 309.820312 67.015625 308.964844 66.378906 C 308.109375 65.746094 307.242188 65.132812 306.355469 64.539062 C 305.46875 63.949219 304.570312 63.382812 303.65625 62.835938 C 302.738281 62.289062 301.8125 61.769531 300.871094 61.269531 C 299.929688 60.769531 298.976562 60.296875 298.011719 59.847656 C 297.046875 59.394531 296.074219 58.96875 295.085938 58.566406 C 294.101562 58.167969 293.105469 57.789062 292.097656 57.441406 C 291.09375 57.089844 290.078125 56.761719 289.058594 56.464844 C 288.035156 56.164062 287.007812 55.890625 285.972656 55.640625 C 284.9375 55.394531 283.894531 55.171875 282.847656 54.976562 C 281.800781 54.78125 280.75 54.613281 279.695312 54.472656 C 278.640625 54.328125 277.582031 54.214844 276.519531 54.125 C 275.460938 54.035156 274.398438 53.972656 273.332031 53.9375 C 272.269531 53.902344 271.203125 53.894531 270.140625 53.914062 C 269.074219 53.933594 268.011719 53.980469 266.949219 54.050781 C 265.886719 54.125 264.824219 54.222656 263.769531 54.347656 C 262.710938 54.472656 261.65625 54.625 260.609375 54.804688 C 259.558594 54.984375 258.515625 55.191406 257.476562 55.421875 C 256.433594 55.652344 255.402344 55.910156 254.375 56.195312 C 253.351562 56.480469 252.332031 56.789062 251.320312 57.125 C 250.308594 57.460938 249.308594 57.820312 248.316406 58.207031 C 247.800781 58.40625 247.269531 58.511719 246.71875 58.523438 C 246.167969 58.53125 245.628906 58.445312 245.109375 58.265625 C 244.589844 58.085938 244.113281 57.820312 243.6875 57.46875 C 243.261719 57.117188 242.910156 56.707031 242.628906 56.230469 C 241.21875 53.816406 239.65625 51.507812 237.941406 49.300781 C 236.226562 47.097656 234.371094 45.015625 232.378906 43.054688 C 230.386719 41.09375 228.277344 39.273438 226.042969 37.59375 C 223.8125 35.914062 221.476562 34.390625 219.042969 33.019531 C 216.605469 31.648438 214.09375 30.445312 211.496094 29.40625 C 208.902344 28.371094 206.25 27.507812 203.542969 26.820312 C 200.835938 26.136719 198.09375 25.632812 195.316406 25.308594 C 192.542969 24.984375 189.757812 24.847656 186.964844 24.894531 C 184.167969 24.9375 181.390625 25.167969 178.628906 25.582031 C 175.863281 25.996094 173.140625 26.59375 170.457031 27.367188 C 167.769531 28.144531 165.148438 29.089844 162.589844 30.214844 C 160.03125 31.335938 157.558594 32.621094 155.167969 34.074219 C 152.78125 35.523438 150.5 37.125 148.324219 38.878906 C 146.148438 40.628906 144.09375 42.519531 142.167969 44.542969 C 140.242188 46.566406 138.460938 48.710938 136.816406 50.96875 C 135.175781 53.230469 133.6875 55.589844 132.359375 58.046875 C 132.21875 58.308594 132.054688 58.550781 131.867188 58.777344 C 131.683594 59.003906 131.476562 59.214844 131.25 59.402344 C 131.023438 59.589844 130.78125 59.753906 130.523438 59.898438 C 130.265625 60.039062 129.996094 60.15625 129.714844 60.246094 C 129.4375 60.339844 129.148438 60.402344 128.859375 60.4375 C 128.566406 60.476562 128.273438 60.484375 127.980469 60.464844 C 127.683594 60.445312 127.394531 60.398438 127.109375 60.324219 C 126.828125 60.25 126.550781 60.152344 126.285156 60.023438 C 122.042969 58 117.628906 56.46875 113.046875 55.4375 C 108.460938 54.402344 103.816406 53.890625 99.117188 53.902344 C 97.152344 53.902344 95.195312 53.996094 93.242188 54.175781 C 91.285156 54.359375 89.34375 54.632812 87.414062 54.996094 C 85.484375 55.355469 83.578125 55.808594 81.691406 56.347656 C 79.804688 56.890625 77.945312 57.515625 76.117188 58.230469 C 74.289062 58.945312 72.496094 59.742188 70.742188 60.621094 C 68.984375 61.503906 67.277344 62.460938 65.609375 63.5 C 63.945312 64.542969 62.332031 65.65625 60.769531 66.847656 C 59.210938 68.035156 57.707031 69.296875 56.261719 70.625 C 54.816406 71.953125 53.4375 73.347656 52.125 74.808594 C 50.808594 76.265625 49.566406 77.78125 48.390625 79.355469 C 47.21875 80.929688 46.121094 82.554688 45.097656 84.230469 C 44.078125 85.90625 43.136719 87.625 42.273438 89.390625 C 41.410156 91.152344 40.632812 92.953125 39.9375 94.789062 C 39.242188 96.625 38.636719 98.492188 38.117188 100.382812 C 37.59375 102.277344 37.164062 104.1875 36.820312 106.121094 C 36.476562 108.054688 36.226562 110 36.0625 111.957031 C 35.902344 113.914062 35.832031 115.871094 35.851562 117.835938 C 35.871094 119.800781 35.984375 121.757812 36.1875 123.710938 C 36.390625 125.664062 36.683594 127.601562 37.066406 129.527344 C 37.449219 131.453125 37.921875 133.355469 38.480469 135.238281 C 39.042969 137.117188 39.691406 138.96875 40.421875 140.789062 C 41.15625 142.613281 41.972656 144.394531 42.871094 146.140625 C 43.769531 147.886719 44.746094 149.585938 45.804688 151.238281 C 46.863281 152.894531 47.992188 154.496094 49.199219 156.042969 C 50.40625 157.59375 51.679688 159.082031 53.027344 160.511719 C 54.371094 161.941406 55.78125 163.308594 57.25 164.605469 C 58.722656 165.90625 60.253906 167.132812 61.839844 168.289062 C 63.425781 169.445312 65.0625 170.527344 66.746094 171.53125 C 68.433594 172.535156 70.164062 173.460938 71.9375 174.300781 C 73.710938 175.144531 75.519531 175.90625 77.363281 176.578125 C 79.207031 177.253906 81.074219 177.84375 82.972656 178.34375 C 84.871094 178.84375 86.789062 179.253906 88.726562 179.578125 C 89.269531 179.667969 89.78125 179.847656 90.257812 180.117188 C 90.738281 180.390625 91.15625 180.734375 91.511719 181.152344 C 91.867188 181.574219 92.140625 182.042969 92.332031 182.558594 C 92.519531 183.074219 92.617188 183.609375 92.613281 184.160156 Z M 92.613281 283.882812 " fill-opacity="1" fill-rule="nonzero"/></g><g fill="#ffffff" fill-opacity="1"><g transform="translate(61.851049, 357.55971)"><g><path d="M 42.445312 0.863281 C 46.226562 0.863281 48.984375 -1.460938 48.984375 -5.191406 L 48.984375 -33.683594 C 48.984375 -37.359375 46.226562 -39.792969 42.390625 -39.792969 L 5.136719 -39.792969 L 5.136719 0.863281 Z M 41.902344 -7.785156 C 41.902344 -6.542969 41.417969 -5.351562 39.46875 -5.351562 L 12.21875 -5.351562 L 12.21875 -33.578125 L 39.523438 -33.578125 C 40.714844 -33.578125 41.902344 -33.035156 41.902344 -31.144531 Z M 41.902344 -7.785156 "/></g></g></g><g fill="#ffffff" fill-opacity="1"><g transform="translate(128.938532, 357.55971)"><g><path d="M 41.308594 -4.921875 C 45.6875 -6.324219 47.363281 -9.03125 47.363281 -12.597656 L 47.363281 -36.710938 C 47.363281 -38.335938 46.714844 -39.632812 45.6875 -40.550781 L 45.6875 -46.984375 L 40.820312 -46.984375 L 40.820312 -42.171875 L 21.140625 -42.171875 C 18.4375 -42.171875 16.492188 -41.253906 14.976562 -38.171875 C 13.03125 -34.277344 8.273438 -25.140625 7.027344 -22.65625 C 6.542969 -21.679688 6 -21.410156 5.296875 -21.410156 L 2.324219 -21.410156 L 3.460938 -15.625 L 7.082031 -15.625 C 10.003906 -15.625 11.625 -16.816406 12.8125 -19.355469 C 13.839844 -21.574219 19.25 -31.738281 20.382812 -34.117188 C 21.085938 -35.523438 22.058594 -36.28125 23.464844 -36.28125 L 37.902344 -36.28125 C 39.578125 -36.28125 40.550781 -35.414062 40.550781 -33.628906 L 40.550781 -14.164062 C 40.550781 -12.488281 40.117188 -11.625 38.441406 -11.082031 L 8.867188 -1.675781 L 12.707031 4.378906 Z M 53.257812 -39.414062 L 53.257812 -46.984375 L 48.390625 -46.984375 L 48.390625 -39.414062 Z M 53.257812 -39.414062 "/></g></g></g><g fill="#ffffff" fill-opacity="1"><g transform="translate(196.026016, 357.55971)"><g><path d="M 32.441406 3.894531 L 32.441406 -25.574219 L 43.144531 -28.332031 C 47.632812 -29.519531 48.984375 -32.820312 48.984375 -36.117188 L 48.984375 -44.226562 L 41.902344 -44.226562 L 41.902344 -36.929688 C 41.902344 -35.46875 41.199219 -34.605469 39.847656 -34.277344 L 2.109375 -25.035156 L 5.949219 -18.707031 L 25.085938 -23.628906 L 25.085938 3.894531 Z M 32.441406 3.894531 "/></g></g></g><g fill="#ffffff" fill-opacity="1"><g transform="translate(263.113499, 357.55971)"><g><path d="M 29.46875 -24.925781 L 31.953125 -31.195312 L 13.246094 -37.902344 C 11.894531 -38.386719 11.734375 -39.089844 11.734375 -40.117188 C 11.734375 -40.335938 11.734375 -40.660156 11.734375 -40.929688 L 6.21875 -40.929688 L 6.21875 -37.144531 C 6.21875 -34.605469 7.730469 -32.65625 10.757812 -31.574219 Z M 34.332031 2.59375 C 39.363281 2.59375 42.820312 0.433594 43.957031 -4.597656 L 50.390625 -32.496094 L 43.523438 -34.875 L 37.199219 -6.433594 C 36.765625 -4.597656 35.683594 -3.894531 33.902344 -3.894531 L 14.273438 -3.894531 C 13.03125 -3.894531 12.109375 -4.269531 12.109375 -5.894531 L 12.109375 -7.300781 L 6.21875 -7.300781 L 6.21875 -2.488281 C 6.21875 0.972656 9.136719 2.59375 12.488281 2.59375 Z M 34.332031 2.59375 "/></g></g></g></svg>