<svg xmlns="http://www.w3.org/2000/svg" xmlns:xlink="http://www.w3.org/1999/xlink" width="500" zoomAndPan="magnify" viewBox="0 0 375 374.999991" height="500" preserveAspectRatio="xMidYMid meet" version="1.0"><defs><g/><clipPath id="c8c06e28c4"><path d="M 43.277344 8.332031 L 332.027344 8.332031 L 332.027344 297.082031 L 43.277344 297.082031 Z M 43.277344 8.332031 " clip-rule="nonzero"/></clipPath></defs><g clip-path="url(#c8c06e28c4)"><path fill="#ffffff" d="M 62.964844 8.332031 C 56.949219 8.332031 51.601562 10.824219 48.210938 14.640625 C 44.824219 18.453125 43.277344 23.28125 43.277344 28.019531 C 43.277344 32.761719 44.824219 37.589844 48.210938 41.402344 C 51.601562 45.214844 56.949219 47.707031 62.964844 47.707031 C 68.980469 47.707031 74.328125 45.214844 77.71875 41.402344 C 81.109375 37.589844 82.652344 32.761719 82.652344 28.019531 C 82.652344 23.28125 81.109375 18.453125 77.71875 14.640625 C 74.328125 10.824219 68.980469 8.332031 62.964844 8.332031 Z M 305.777344 14.894531 C 297.574219 14.894531 290.585938 18.207031 286.101562 23.253906 C 281.621094 28.296875 279.527344 34.765625 279.527344 41.144531 C 279.527344 47.527344 281.621094 53.996094 286.101562 59.039062 C 290.585938 64.082031 297.574219 67.394531 305.777344 67.394531 C 313.980469 67.394531 320.96875 64.082031 325.453125 59.039062 C 329.9375 53.996094 332.027344 47.527344 332.027344 41.144531 C 332.027344 34.765625 329.9375 28.296875 325.453125 23.253906 C 320.96875 18.207031 313.980469 14.894531 305.777344 14.894531 Z M 62.964844 21.457031 C 65.699219 21.457031 66.914062 22.246094 67.898438 23.355469 C 68.886719 24.464844 69.527344 26.199219 69.527344 28.019531 C 69.527344 29.84375 68.886719 31.578125 67.898438 32.6875 C 66.914062 33.792969 65.699219 34.582031 62.964844 34.582031 C 60.230469 34.582031 59.015625 33.792969 58.03125 32.6875 C 57.046875 31.578125 56.402344 29.84375 56.402344 28.019531 C 56.402344 26.199219 57.046875 24.464844 58.03125 23.355469 C 59.015625 22.246094 60.230469 21.457031 62.964844 21.457031 Z M 305.777344 28.019531 C 310.699219 28.019531 313.554688 29.628906 315.632812 31.96875 C 317.714844 34.308594 318.902344 37.683594 318.902344 41.144531 C 318.902344 44.609375 317.714844 47.984375 315.632812 50.324219 C 313.554688 52.660156 310.699219 54.269531 305.777344 54.269531 C 300.855469 54.269531 298 52.660156 295.921875 50.324219 C 293.84375 47.984375 292.652344 44.609375 292.652344 41.144531 C 292.652344 37.683594 293.84375 34.308594 295.921875 31.96875 C 298 29.628906 300.855469 28.019531 305.777344 28.019531 Z M 187.652344 34.582031 C 162.355469 34.582031 138.902344 42.304688 119.234375 55.320312 C 114.230469 50.726562 107.289062 47.707031 99.058594 47.707031 C 89.761719 47.707031 81.953125 51.429688 76.921875 57.089844 C 71.894531 62.75 69.527344 70.039062 69.527344 77.238281 C 69.527344 84.441406 71.894531 91.730469 76.921875 97.386719 C 77.449219 97.980469 78.121094 98.457031 78.707031 99.003906 C 68.746094 116.886719 62.964844 137.390625 62.964844 159.269531 C 62.964844 217.886719 103.683594 267.054688 158.277344 280.316406 C 156.082031 274.84375 154.839844 268.882812 154.839844 262.628906 L 154.839844 223.484375 C 131.503906 211.507812 115.464844 187.261719 115.464844 159.269531 C 115.464844 119.46875 147.851562 87.082031 187.652344 87.082031 C 227.453125 87.082031 259.839844 119.46875 259.839844 159.269531 C 259.839844 167.316406 258.460938 175.035156 256.019531 182.265625 C 260.898438 181.597656 265.382812 180.179688 269.199219 178.175781 C 269.199219 178.175781 287.160156 169.113281 297.574219 169.113281 C 302.503906 169.113281 307.257812 169.863281 311.726562 171.253906 C 312.105469 167.3125 312.339844 163.320312 312.339844 159.269531 C 312.339844 90.515625 256.410156 34.582031 187.652344 34.582031 Z M 99.058594 60.832031 C 105.074219 60.832031 108.75 62.851562 111.375 65.804688 C 114.003906 68.761719 115.464844 72.957031 115.464844 77.238281 C 115.464844 81.523438 114.003906 85.71875 111.375 88.671875 C 108.75 91.625 105.074219 93.644531 99.058594 93.644531 C 93.042969 93.644531 89.367188 91.625 86.742188 88.671875 C 84.117188 85.71875 82.652344 81.523438 82.652344 77.238281 C 82.652344 72.957031 84.117188 68.761719 86.742188 65.804688 C 89.367188 62.851562 93.042969 60.832031 99.058594 60.832031 Z M 187.652344 100.207031 C 155.082031 100.207031 128.589844 126.707031 128.589844 159.269531 C 128.589844 180 139.34375 198.246094 155.546875 208.785156 C 159.324219 186.28125 178.847656 169.113281 202.417969 169.113281 C 212.832031 169.113281 230.796875 178.175781 230.796875 178.175781 C 234.128906 179.929688 238.003906 181.191406 242.179688 181.945312 C 245.09375 174.957031 246.714844 167.304688 246.714844 159.269531 C 246.714844 126.707031 220.222656 100.207031 187.652344 100.207031 Z M 297.574219 182.238281 C 292.816406 182.238281 281.472656 186.695312 275.105469 189.90625 C 267.761719 193.757812 259.015625 195.839844 249.996094 195.839844 C 240.980469 195.839844 232.234375 193.746094 224.707031 189.800781 C 217.566406 186.21875 206.886719 182.253906 202.417969 182.253906 C 183.421875 182.253906 167.964844 197.707031 167.964844 216.707031 C 167.964844 235.703125 183.421875 251.160156 202.417969 251.160156 C 207.175781 251.160156 218.523438 246.710938 224.886719 243.492188 C 232.230469 239.640625 240.980469 237.558594 249.996094 237.558594 C 259.015625 237.558594 267.757812 239.640625 275.285156 243.582031 C 282.425781 247.167969 293.105469 251.144531 297.574219 251.144531 C 316.574219 251.144531 332.027344 235.691406 332.027344 216.691406 C 332.027344 197.695312 316.574219 182.238281 297.574219 182.238281 Z M 213.902344 195.109375 C 217.527344 195.109375 220.464844 198.046875 220.464844 201.671875 C 220.464844 205.292969 217.527344 208.234375 213.902344 208.234375 C 210.28125 208.234375 207.339844 205.292969 207.339844 201.671875 C 207.339844 198.046875 210.28125 195.109375 213.902344 195.109375 Z M 286.089844 195.109375 C 289.714844 195.109375 292.652344 198.046875 292.652344 201.671875 C 292.652344 205.292969 289.714844 208.234375 286.089844 208.234375 C 282.46875 208.234375 279.527344 205.292969 279.527344 201.671875 C 279.527344 198.046875 282.46875 195.109375 286.089844 195.109375 Z M 312.339844 201.671875 C 315.964844 201.671875 318.902344 204.609375 318.902344 208.234375 C 318.902344 211.855469 315.964844 214.796875 312.339844 214.796875 C 308.71875 214.796875 305.777344 211.855469 305.777344 208.234375 C 305.777344 204.609375 308.71875 201.671875 312.339844 201.671875 Z M 187.652344 208.234375 C 191.277344 208.234375 194.214844 211.171875 194.214844 214.796875 C 194.214844 218.417969 191.277344 221.359375 187.652344 221.359375 C 184.03125 221.359375 181.089844 218.417969 181.089844 214.796875 C 181.089844 211.171875 184.03125 208.234375 187.652344 208.234375 Z M 233.589844 214.796875 C 237.214844 214.796875 240.152344 217.734375 240.152344 221.359375 C 240.152344 224.980469 237.214844 227.921875 233.589844 227.921875 C 229.96875 227.921875 227.027344 224.980469 227.027344 221.359375 C 227.027344 217.734375 229.96875 214.796875 233.589844 214.796875 Z M 259.839844 214.796875 C 263.464844 214.796875 266.402344 217.734375 266.402344 221.359375 C 266.402344 224.980469 263.464844 227.921875 259.839844 227.921875 C 256.21875 227.921875 253.277344 224.980469 253.277344 221.359375 C 253.277344 217.734375 256.21875 214.796875 259.839844 214.796875 Z M 200.777344 227.921875 C 204.402344 227.921875 207.339844 230.859375 207.339844 234.484375 C 207.339844 238.105469 204.402344 241.046875 200.777344 241.046875 C 197.15625 241.046875 194.214844 238.105469 194.214844 234.484375 C 194.214844 230.859375 197.15625 227.921875 200.777344 227.921875 Z M 299.214844 227.921875 C 302.839844 227.921875 305.777344 230.859375 305.777344 234.484375 C 305.777344 238.105469 302.839844 241.046875 299.214844 241.046875 C 295.59375 241.046875 292.652344 238.105469 292.652344 234.484375 C 292.652344 230.859375 295.59375 227.921875 299.214844 227.921875 Z M 167.964844 249.441406 L 167.964844 262.628906 C 167.964844 281.628906 183.421875 297.082031 202.417969 297.082031 C 207.175781 297.082031 218.523438 292.632812 224.886719 289.417969 C 232.230469 285.566406 240.980469 283.484375 249.996094 283.484375 C 259.015625 283.484375 267.757812 285.578125 275.285156 289.519531 C 282.425781 293.109375 293.105469 297.082031 297.574219 297.082031 C 316.574219 297.082031 332.027344 281.628906 332.027344 262.628906 L 332.027344 249.441406 C 323.359375 258.554688 311.144531 264.269531 297.574219 264.269531 C 287.160156 264.269531 269.199219 255.207031 269.199219 255.207031 C 263.855469 252.40625 257.25 250.683594 249.996094 250.683594 C 242.746094 250.683594 236.136719 252.414062 230.796875 255.207031 C 230.796875 255.207031 212.832031 264.269531 202.417969 264.269531 C 188.847656 264.269531 176.632812 258.554688 167.964844 249.441406 Z M 233.589844 267.296875 C 237.214844 267.296875 240.152344 270.234375 240.152344 273.859375 C 240.152344 277.480469 237.214844 280.421875 233.589844 280.421875 C 229.96875 280.421875 227.027344 277.480469 227.027344 273.859375 C 227.027344 270.234375 229.96875 267.296875 233.589844 267.296875 Z M 272.964844 267.296875 C 276.589844 267.296875 279.527344 270.234375 279.527344 273.859375 C 279.527344 277.480469 276.589844 280.421875 272.964844 280.421875 C 269.34375 280.421875 266.402344 277.480469 266.402344 273.859375 C 266.402344 270.234375 269.34375 267.296875 272.964844 267.296875 Z M 312.339844 267.296875 C 315.964844 267.296875 318.902344 270.234375 318.902344 273.859375 C 318.902344 277.480469 315.964844 280.421875 312.339844 280.421875 C 308.71875 280.421875 305.777344 277.480469 305.777344 273.859375 C 305.777344 270.234375 308.71875 267.296875 312.339844 267.296875 Z M 200.777344 273.859375 C 204.402344 273.859375 207.339844 276.796875 207.339844 280.421875 C 207.339844 284.042969 204.402344 286.984375 200.777344 286.984375 C 197.15625 286.984375 194.214844 284.042969 194.214844 280.421875 C 194.214844 276.796875 197.15625 273.859375 200.777344 273.859375 Z M 200.777344 273.859375 " fill-opacity="1" fill-rule="nonzero"/></g><g fill="#ffffff" fill-opacity="1"><g transform="translate(26.291658, 349.216487)"><g><path d="M 42.445312 0.863281 C 46.226562 0.863281 48.984375 -1.460938 48.984375 -5.191406 L 48.984375 -33.683594 C 48.984375 -37.359375 46.226562 -39.792969 42.390625 -39.792969 L 5.136719 -39.792969 L 5.136719 0.863281 Z M 41.902344 -7.785156 C 41.902344 -6.542969 41.417969 -5.351562 39.46875 -5.351562 L 12.21875 -5.351562 L 12.21875 -33.578125 L 39.523438 -33.578125 C 40.714844 -33.578125 41.902344 -33.035156 41.902344 -31.144531 Z M 41.902344 -7.785156 "/></g></g></g><g fill="#ffffff" fill-opacity="1"><g transform="translate(93.379141, 349.216487)"><g><path d="M 41.308594 -4.921875 C 45.6875 -6.324219 47.363281 -9.03125 47.363281 -12.597656 L 47.363281 -36.710938 C 47.363281 -38.335938 46.714844 -39.632812 45.6875 -40.550781 L 45.6875 -46.984375 L 40.820312 -46.984375 L 40.820312 -42.171875 L 21.140625 -42.171875 C 18.4375 -42.171875 16.492188 -41.253906 14.976562 -38.171875 C 13.03125 -34.277344 8.273438 -25.140625 7.027344 -22.65625 C 6.542969 -21.679688 6 -21.410156 5.296875 -21.410156 L 2.324219 -21.410156 L 3.460938 -15.625 L 7.082031 -15.625 C 10.003906 -15.625 11.625 -16.816406 12.8125 -19.355469 C 13.839844 -21.574219 19.25 -31.738281 20.382812 -34.117188 C 21.085938 -35.523438 22.058594 -36.28125 23.464844 -36.28125 L 37.902344 -36.28125 C 39.578125 -36.28125 40.550781 -35.414062 40.550781 -33.628906 L 40.550781 -14.164062 C 40.550781 -12.488281 40.117188 -11.625 38.441406 -11.082031 L 8.867188 -1.675781 L 12.707031 4.378906 Z M 53.257812 -39.414062 L 53.257812 -46.984375 L 48.390625 -46.984375 L 48.390625 -39.414062 Z M 53.257812 -39.414062 "/></g></g></g><g fill="#ffffff" fill-opacity="1"><g transform="translate(160.466625, 349.216487)"><g><path d="M 44.121094 -18.058594 C 48.230469 -18.871094 50.066406 -21.574219 50.066406 -25.25 L 50.066406 -35.199219 C 50.066406 -38.496094 47.039062 -40.929688 43.632812 -40.929688 L 11.082031 -40.929688 C 9.730469 -40.929688 8.976562 -41.253906 8.976562 -42.984375 L 3.515625 -42.984375 L 3.515625 -39.957031 C 3.515625 -36.332031 6.109375 -35.035156 8.8125 -35.035156 L 40.875 -35.035156 C 42.335938 -35.035156 43.253906 -34.117188 43.253906 -32.925781 L 43.253906 -26.4375 C 43.253906 -24.980469 42.496094 -24.277344 41.363281 -24.058594 L 30.925781 -22.277344 L 33.523438 -16.003906 Z M 23.574219 -3.515625 C 27.359375 -5.351562 28.925781 -7.730469 28.925781 -11.515625 L 28.925781 -31.628906 L 22.167969 -31.628906 L 22.167969 -12.328125 C 22.167969 -10.757812 21.519531 -9.894531 20.492188 -9.40625 L 3.40625 -1.242188 L 7.460938 4.21875 Z M 23.574219 -3.515625 "/></g></g></g><g fill="#ffffff" fill-opacity="1"><g transform="translate(227.554108, 349.216487)"><g><path d="M 42.226562 -4.433594 C 47.148438 -6.054688 48.984375 -8.921875 48.984375 -13.410156 L 48.984375 -32.332031 C 48.984375 -35.359375 46.5 -38.117188 43.253906 -38.117188 L 30.546875 -38.117188 L 30.546875 -45.851562 L 23.410156 -45.851562 L 23.410156 -38.117188 L 5.136719 -38.117188 L 5.136719 -17.140625 L 11.949219 -17.140625 L 11.949219 -32.171875 L 40.0625 -32.171875 C 41.308594 -32.171875 42.171875 -31.304688 42.171875 -29.953125 L 42.171875 -14.164062 C 42.171875 -12.164062 41.46875 -11.191406 40.0625 -10.757812 L 12.542969 -1.945312 L 16.707031 4.109375 Z M 42.226562 -4.433594 "/></g></g></g><g fill="#ffffff" fill-opacity="1"><g transform="translate(294.641591, 349.216487)"><g><path d="M 49.039062 -15.84375 L 51.039062 -22.65625 L 20.546875 -27.953125 L 20.546875 -44.769531 L 13.085938 -44.769531 L 13.085938 3.785156 L 20.546875 3.785156 L 20.546875 -21.304688 Z M 49.039062 -15.84375 "/></g></g></g></svg>