<svg xmlns="http://www.w3.org/2000/svg" xmlns:xlink="http://www.w3.org/1999/xlink" width="640" zoomAndPan="magnify" viewBox="0 0 480 269.999989" height="360" preserveAspectRatio="xMidYMid meet" version="1.0"><defs><g/><clipPath id="b85d127a85"><path d="M 245.636719 105.238281 L 306.390625 105.238281 L 306.390625 133.785156 L 245.636719 133.785156 Z M 245.636719 105.238281 " clip-rule="nonzero"/></clipPath><clipPath id="e8176bf0d3"><path d="M 154.242188 187 L 203 187 L 203 218.382812 L 154.242188 218.382812 Z M 154.242188 187 " clip-rule="nonzero"/></clipPath></defs><g clip-path="url(#b85d127a85)"><path fill="#fab768" d="M 257.441406 130.800781 L 296.898438 112.925781 C 296.898438 112.925781 298.757812 113.886719 302.597656 111.582031 C 306.4375 109.277344 311.28125 99.738281 295.070312 110.269531 C 295.070312 110.269531 278.246094 114.34375 276.359375 115.023438 C 272.164062 116.527344 252.160156 121.042969 247.742188 123.449219 C 243.328125 125.859375 246.238281 138.691406 257.441406 130.800781 " fill-opacity="1" fill-rule="nonzero"/></g><path fill="#f9ac54" d="M 259.257812 125.90625 L 296.472656 112.964844 L 262.074219 128.53125 Z M 259.257812 125.90625 " fill-opacity="1" fill-rule="nonzero"/><g clip-path="url(#e8176bf0d3)"><path fill="#41484f" d="M 202.898438 196.921875 C 202.898438 196.921875 187.265625 217.242188 182.414062 218.355469 C 177.5625 219.464844 162.316406 192.75 162.316406 192.75 C 162.316406 192.75 157.570312 198.828125 155.367188 199.628906 C 152.3125 200.742188 156.21875 192.621094 158.390625 189.882812 C 160.566406 187.144531 165.289062 184.941406 164.585938 190.828125 C 164.585938 190.828125 179.046875 210.726562 179.898438 210.902344 C 179.898438 210.902344 188.875 199.539062 191.71875 190.980469 L 196.015625 195.867188 L 202.898438 196.921875 " fill-opacity="1" fill-rule="nonzero"/></g><path fill="#363c42" d="M 189.402344 196.4375 C 189.402344 196.4375 191.6875 202.054688 198.785156 202.085938 L 203.984375 196.394531 C 203.984375 196.394531 200.335938 195.867188 196.691406 194.289062 C 193.050781 192.707031 191.761719 190.503906 191.761719 190.503906 C 191.761719 190.503906 190.394531 194.285156 189.402344 196.4375 " fill-opacity="1" fill-rule="nonzero"/><path fill="#41484f" d="M 230.625 185.878906 C 230.625 185.878906 257.351562 167.722656 263.59375 168.300781 C 269.839844 168.882812 277.546875 206.863281 277.546875 206.863281 C 277.546875 206.863281 285.621094 201.460938 288.578125 201.367188 C 292.671875 201.242188 284.792969 209.417969 281.113281 211.839844 C 277.433594 214.261719 270.910156 215.035156 274.074219 208.269531 C 274.074219 208.269531 264.617188 178.761719 263.667969 178.210938 C 263.667969 178.210938 248.445312 188.273438 241.660156 197.398438 L 238.449219 189.855469 L 230.625 185.878906 " fill-opacity="1" fill-rule="nonzero"/><path fill="#ac1318" d="M 246.589844 191.777344 C 246.589844 191.777344 246.0625 184.15625 237.582031 181.320312 L 229.117188 186.085938 C 229.117188 186.085938 233.277344 188.15625 237.011719 191.476562 C 240.746094 194.800781 241.421875 197.949219 241.421875 197.949219 C 241.421875 197.949219 244.550781 193.964844 246.589844 191.777344 " fill-opacity="1" fill-rule="nonzero"/><path fill="#514e4f" d="M 182.011719 183.667969 L 181.019531 187.746094 L 203.335938 201.695312 L 234.039062 95.523438 L 230.820312 95.480469 L 230.574219 96.195312 L 230.082031 96.171875 L 230.3125 95.5 L 182.011719 183.667969 " fill-opacity="1" fill-rule="nonzero"/><path fill="#656263" d="M 234.039062 95.523438 L 271.792969 109.53125 L 245.320312 201.394531 L 245.960938 203.300781 L 244.972656 206.726562 L 203.335938 201.695312 L 234.039062 95.523438 " fill-opacity="1" fill-rule="nonzero"/><path fill="#f2f2f2" d="M 208.046875 90.507812 C 208.046875 90.507812 201.0625 127.402344 194.269531 147.699219 C 187.476562 167.996094 182.011719 184.320312 182.011719 184.320312 L 201.199219 196.328125 L 201.402344 195.632812 L 201.714844 195.84375 L 201.515625 196.519531 L 204.324219 198.269531 L 235.027344 92.101562 L 231.714844 92.097656 L 231.519531 92.765625 L 231.160156 92.726562 L 231.347656 92.082031 L 208.046875 90.507812 " fill-opacity="1" fill-rule="nonzero"/><path fill="#ffffff" d="M 235.027344 92.101562 L 271.898438 107.710938 C 271.898438 107.710938 265.542969 141.253906 261.085938 158.410156 C 255.804688 178.738281 245.960938 203.300781 245.960938 203.300781 L 204.324219 198.269531 L 235.027344 92.101562 " fill-opacity="1" fill-rule="nonzero"/><path fill="#bdbcbc" d="M 201.714844 195.839844 L 201.402344 195.632812 L 231.160156 92.726562 L 231.53125 92.730469 L 201.714844 195.839844 " fill-opacity="1" fill-rule="nonzero"/><path stroke-linecap="butt" transform="matrix(0.0519293, 0, 0, -0.0519003, 154.242683, 218.387648)" fill="none" stroke-linejoin="miter" d="M 1301.112788 1786.26947 L 1364.901407 1773.248718 L 2150.599668 1509.823089 " stroke="#bdbcbc" stroke-width="6.869" stroke-opacity="1" stroke-miterlimit="10"/><path fill="#c8c7c7" d="M 265.949219 139.902344 L 225.152344 126.25 L 226.042969 123.167969 L 266.550781 137.457031 L 265.949219 139.902344 " fill-opacity="1" fill-rule="nonzero"/><path fill="#c8c7c7" d="M 265.214844 143.171875 L 224.054688 130.039062 L 224.949219 126.957031 L 265.800781 140.582031 L 265.214844 143.171875 " fill-opacity="1" fill-rule="nonzero"/><path fill="#ffffff" d="M 240.054688 135.722656 L 228.699219 131.90625 L 229.28125 129.882812 L 240.636719 133.699219 L 240.054688 135.722656 " fill-opacity="1" fill-rule="nonzero"/><path fill="#ffffff" d="M 241.59375 130.398438 L 230.238281 126.578125 L 230.835938 124.511719 L 242.195312 128.328125 L 241.59375 130.398438 " fill-opacity="1" fill-rule="nonzero"/><path fill="#bdbcbc" d="M 235.027344 92.101562 L 210.6875 176.269531 L 204.324219 198.269531 " fill-opacity="1" fill-rule="nonzero"/><path fill="#a7a5a6" d="M 230.445312 126.734375 L 228.871094 126.167969 L 229.484375 124.386719 L 231.0625 124.929688 L 230.445312 126.734375 " fill-opacity="1" fill-rule="nonzero"/><path fill="#a7a5a6" d="M 229.414062 129.925781 L 227.828125 129.402344 L 227.296875 131.007812 L 228.882812 131.53125 L 229.414062 129.925781 " fill-opacity="1" fill-rule="nonzero"/><path fill="#fab768" d="M 214.863281 119.464844 L 248.191406 91.804688 C 248.191406 91.804688 251.992188 93.6875 255.097656 91.203125 C 258.203125 88.722656 265.695312 73.640625 245.722656 89.722656 C 245.722656 89.722656 230.578125 98.097656 228.941406 99.25 C 225.289062 101.8125 207.191406 111.449219 203.570312 114.9375 C 199.945312 118.425781 206.148438 130.039062 214.863281 119.464844 " fill-opacity="1" fill-rule="nonzero"/><path fill="#f9ac54" d="M 203.519531 121.164062 C 203.519531 121.164062 206.058594 122.011719 208.21875 120.453125 C 210.378906 118.898438 247.789062 91.953125 247.789062 91.953125 L 211.214844 122.78125 C 211.214844 122.78125 209.488281 124.0625 206.824219 123.6875 C 204.160156 123.308594 203.519531 121.164062 203.519531 121.164062 " fill-opacity="1" fill-rule="nonzero"/><g fill="#000000" fill-opacity="1"><g transform="translate(9.689027, 134.513841)"><g><path d="M 29.875 -24.734375 L 28.421875 -24.734375 C 28.285156 -27.003906 27.828125 -28.800781 27.046875 -30.125 C 25.984375 -31.820312 23.257812 -32.671875 18.875 -32.671875 L 14.734375 -32.671875 C 13.367188 -32.671875 12.332031 -32.492188 11.625 -32.140625 C 10.894531 -31.703125 10.53125 -30.679688 10.53125 -29.078125 L 10.53125 -18.65625 L 15.640625 -18.65625 C 17.617188 -18.65625 18.914062 -19.097656 19.53125 -19.984375 C 20.144531 -20.910156 20.523438 -22.128906 20.671875 -23.640625 L 22.0625 -23.640625 L 22.0625 -12 L 20.671875 -12 C 20.523438 -13.539062 20.210938 -14.6875 19.734375 -15.4375 C 19.046875 -16.5 17.679688 -17.03125 15.640625 -17.03125 L 10.53125 -17.03125 L 10.53125 -5.53125 C 10.53125 -3.976562 11.003906 -2.957031 11.953125 -2.46875 C 12.628906 -2.113281 13.90625 -1.890625 15.78125 -1.796875 L 15.78125 -0.46875 L 2.40625 -0.46875 L 2.40625 -1.796875 C 4.082031 -1.910156 5.226562 -2.101562 5.84375 -2.375 C 6.800781 -2.8125 7.28125 -3.863281 7.28125 -5.53125 L 7.28125 -29.03125 C 7.28125 -30.550781 6.976562 -31.523438 6.375 -31.953125 C 5.78125 -32.398438 4.457031 -32.703125 2.40625 -32.859375 L 2.40625 -34.1875 L 29.28125 -34.1875 Z M 29.875 -24.734375 "/></g></g></g><g fill="#000000" fill-opacity="1"><g transform="translate(40.306766, 134.513841)"><g><path d="M 33.625 -0.46875 L 26.78125 -0.46875 C 24.75 -5.65625 22.648438 -9.789062 20.484375 -12.875 C 18.722656 -15.28125 16.550781 -16.484375 13.96875 -16.484375 L 10.578125 -16.484375 L 10.578125 -5.53125 C 10.578125 -3.945312 11.035156 -2.910156 11.953125 -2.421875 C 12.597656 -2.117188 13.8125 -1.910156 15.59375 -1.796875 L 15.59375 -0.46875 L 2.40625 -0.46875 L 2.40625 -1.796875 C 4.082031 -1.910156 5.226562 -2.101562 5.84375 -2.375 C 6.800781 -2.8125 7.28125 -3.863281 7.28125 -5.53125 L 7.28125 -28.984375 C 7.28125 -30.535156 6.976562 -31.523438 6.375 -31.953125 C 5.78125 -32.398438 4.457031 -32.703125 2.40625 -32.859375 L 2.40625 -34.1875 L 17.5625 -34.1875 C 20.832031 -34.1875 23.429688 -33.644531 25.359375 -32.5625 C 28.128906 -30.988281 29.515625 -28.722656 29.515625 -25.765625 C 29.515625 -22.535156 28.175781 -20.128906 25.5 -18.546875 C 23.863281 -17.640625 21.945312 -17.117188 19.75 -16.984375 L 19.75 -16.8125 C 21.625 -16.144531 23.429688 -14.441406 25.171875 -11.703125 C 25.921875 -10.484375 27.207031 -8.125 29.03125 -4.625 C 29.988281 -2.738281 31.519531 -1.796875 33.625 -1.796875 Z M 10.578125 -18.171875 L 14.875 -18.171875 C 22.238281 -18.171875 25.921875 -20.59375 25.921875 -25.4375 C 25.921875 -30.257812 22.832031 -32.671875 16.65625 -32.671875 L 14.828125 -32.671875 C 13.984375 -32.671875 13.222656 -32.585938 12.546875 -32.421875 C 11.234375 -32.085938 10.578125 -30.957031 10.578125 -29.03125 Z M 10.578125 -18.171875 "/></g></g></g><g fill="#000000" fill-opacity="1"><g transform="translate(73.540207, 134.513841)"><g><path d="M 15.6875 -0.46875 L 2.5 -0.46875 L 2.5 -1.796875 C 4.195312 -1.910156 5.378906 -2.101562 6.046875 -2.375 C 6.929688 -2.75 7.375 -3.800781 7.375 -5.53125 L 7.375 -29.03125 C 7.375 -30.675781 6.976562 -31.710938 6.1875 -32.140625 C 5.457031 -32.472656 4.226562 -32.710938 2.5 -32.859375 L 2.5 -34.1875 L 15.6875 -34.1875 L 15.6875 -32.859375 C 14.101562 -32.742188 12.96875 -32.535156 12.28125 -32.234375 C 11.269531 -31.796875 10.765625 -30.726562 10.765625 -29.03125 L 10.765625 -5.53125 C 10.765625 -3.925781 11.191406 -2.90625 12.046875 -2.46875 C 12.765625 -2.113281 13.976562 -1.890625 15.6875 -1.796875 Z M 15.6875 -0.46875 "/></g></g></g><g fill="#000000" fill-opacity="1"><g transform="translate(91.663286, 134.513841)"><g><path d="M 2.40625 -34.1875 L 16.984375 -34.1875 C 21.929688 -34.1875 25.851562 -33.117188 28.75 -30.984375 C 32.851562 -27.960938 34.90625 -23.429688 34.90625 -17.390625 C 34.90625 -9.816406 31.894531 -4.691406 25.875 -2.015625 C 23.539062 -0.984375 20.5 -0.46875 16.75 -0.46875 L 2.40625 -0.46875 L 2.40625 -1.796875 C 3.976562 -1.910156 5.125 -2.101562 5.84375 -2.375 C 6.800781 -2.8125 7.28125 -3.863281 7.28125 -5.53125 L 7.28125 -29.03125 C 7.28125 -30.550781 6.976562 -31.523438 6.375 -31.953125 C 5.78125 -32.398438 4.457031 -32.703125 2.40625 -32.859375 Z M 16.609375 -32.671875 L 14.875 -32.671875 C 14.03125 -32.671875 13.269531 -32.585938 12.59375 -32.421875 C 11.28125 -32.085938 10.625 -30.957031 10.625 -29.03125 L 10.625 -5.578125 C 10.625 -4.035156 11.082031 -3.046875 12 -2.609375 C 12.644531 -2.304688 13.601562 -2.15625 14.875 -2.15625 L 16.609375 -2.15625 C 20.617188 -2.15625 23.597656 -2.835938 25.546875 -4.203125 C 29.203125 -6.722656 31.03125 -11.195312 31.03125 -17.625 C 31.03125 -27.65625 26.222656 -32.671875 16.609375 -32.671875 Z M 16.609375 -32.671875 "/></g></g></g><g fill="#000000" fill-opacity="1"><g transform="translate(129.310712, 134.513841)"><g><path d="M 36.59375 -14.734375 C 35.050781 -14.597656 34.007812 -14.40625 33.46875 -14.15625 C 32.550781 -13.757812 32.09375 -12.707031 32.09375 -11 L 32.09375 -0.609375 L 31.03125 -0.609375 L 29.5625 -3.390625 C 26.945312 -0.679688 23.546875 0.671875 19.359375 0.671875 C 14.640625 0.671875 10.769531 -0.835938 7.75 -3.859375 C 4.5 -7.148438 2.875 -11.570312 2.875 -17.125 C 2.875 -22.789062 4.609375 -27.359375 8.078125 -30.828125 C 11.117188 -33.859375 14.832031 -35.375 19.21875 -35.375 C 22.71875 -35.375 25.789062 -34.441406 28.4375 -32.578125 C 29.09375 -32.128906 29.546875 -31.90625 29.796875 -31.90625 C 30.273438 -31.90625 30.546875 -32.554688 30.609375 -33.859375 L 32.09375 -33.859375 L 32.09375 -24.421875 L 30.65625 -24.421875 C 30.226562 -26.609375 29.304688 -28.476562 27.890625 -30.03125 C 25.753906 -32.445312 22.953125 -33.65625 19.484375 -33.65625 C 14.835938 -33.65625 11.382812 -31.644531 9.125 -27.625 C 7.539062 -24.726562 6.75 -21.316406 6.75 -17.390625 C 6.75 -12.679688 7.960938 -8.832031 10.390625 -5.84375 C 12.835938 -2.800781 15.941406 -1.28125 19.703125 -1.28125 C 23.242188 -1.28125 25.925781 -2.378906 27.75 -4.578125 C 28.539062 -5.523438 28.9375 -6.722656 28.9375 -8.171875 L 28.9375 -11 C 28.9375 -12.613281 28.539062 -13.632812 27.75 -14.0625 C 27.1875 -14.375 25.953125 -14.597656 24.046875 -14.734375 L 24.046875 -16.0625 L 36.59375 -16.0625 Z M 36.59375 -14.734375 "/></g></g></g><g fill="#000000" fill-opacity="1"><g transform="translate(166.724593, 134.513841)"><g><path d="M 30.515625 -10.8125 L 29.828125 -0.46875 L 2.40625 -0.46875 L 2.40625 -1.796875 C 4.164062 -1.953125 5.332031 -2.160156 5.90625 -2.421875 C 6.820312 -2.816406 7.28125 -3.851562 7.28125 -5.53125 L 7.28125 -29.078125 C 7.28125 -30.566406 6.976562 -31.523438 6.375 -31.953125 C 5.78125 -32.398438 4.457031 -32.703125 2.40625 -32.859375 L 2.40625 -34.1875 L 29.234375 -34.1875 L 29.828125 -24.6875 L 28.375 -24.6875 C 28.1875 -27.425781 27.585938 -29.398438 26.578125 -30.609375 C 25.421875 -31.984375 22.882812 -32.671875 18.96875 -32.671875 L 14.734375 -32.671875 C 13.410156 -32.671875 12.375 -32.492188 11.625 -32.140625 C 10.894531 -31.742188 10.53125 -30.722656 10.53125 -29.078125 L 10.53125 -18.75 L 15.59375 -18.75 C 17.507812 -18.75 18.804688 -19.175781 19.484375 -20.03125 C 20.097656 -20.863281 20.476562 -22.082031 20.625 -23.6875 L 22.015625 -23.6875 L 22.015625 -12 L 20.625 -12 C 20.476562 -13.570312 20.15625 -14.734375 19.65625 -15.484375 C 18.988281 -16.546875 17.632812 -17.078125 15.59375 -17.078125 L 10.53125 -17.078125 L 10.53125 -5.625 C 10.53125 -4.132812 10.847656 -3.160156 11.484375 -2.703125 C 12.191406 -2.273438 13.273438 -2.0625 14.734375 -2.0625 L 18.96875 -2.0625 C 22.726562 -2.0625 25.238281 -2.613281 26.5 -3.71875 C 28 -5.007812 28.863281 -7.375 29.09375 -10.8125 Z M 30.515625 -10.8125 "/></g></g></g><g fill="#000000" fill-opacity="1"><g transform="translate(267.205598, 168.086943)"><g><path d="M 24.84375 -0.265625 L 17.421875 -0.265625 L 17.421875 -1.03125 C 18.390625 -1.09375 19.050781 -1.203125 19.40625 -1.359375 C 19.925781 -1.585938 20.1875 -2.207031 20.1875 -3.21875 L 20.1875 -18.25 L 20.109375 -18.25 L 13.203125 -0.265625 L 12.25 -0.265625 L 5.359375 -18.21875 L 5.25 -18.21875 L 5.25 -3.203125 C 5.25 -2.265625 5.488281 -1.671875 5.96875 -1.421875 C 6.375 -1.210938 7.03125 -1.082031 7.9375 -1.03125 L 7.9375 -0.265625 L 1.171875 -0.265625 L 1.171875 -1.03125 C 2.066406 -1.09375 2.71875 -1.203125 3.125 -1.359375 C 3.65625 -1.609375 3.921875 -2.222656 3.921875 -3.203125 L 3.921875 -16.578125 C 3.921875 -17.566406 3.679688 -18.1875 3.203125 -18.4375 C 2.890625 -18.601562 2.175781 -18.726562 1.0625 -18.8125 L 1.0625 -19.578125 L 6.796875 -19.578125 L 13.09375 -3.21875 L 19.34375 -19.578125 L 24.84375 -19.578125 L 24.84375 -18.8125 C 23.96875 -18.757812 23.3125 -18.632812 22.875 -18.4375 C 22.320312 -18.1875 22.046875 -17.570312 22.046875 -16.59375 L 22.046875 -3.21875 C 22.046875 -2.269531 22.285156 -1.671875 22.765625 -1.421875 C 23.140625 -1.222656 23.832031 -1.09375 24.84375 -1.03125 Z M 24.84375 -0.265625 "/></g></g></g><g fill="#000000" fill-opacity="1"><g transform="translate(293.341153, 168.086943)"><g><path d="M 20.046875 -0.265625 L 12.875 -0.265625 L 12.875 -1.03125 C 14.476562 -1.03125 15.28125 -1.351562 15.28125 -2 C 15.28125 -2.445312 15.1875 -2.878906 15 -3.296875 L 13.484375 -7.03125 L 5.75 -7.03125 L 4.28125 -3.171875 C 4.070312 -2.628906 3.96875 -2.226562 3.96875 -1.96875 C 3.96875 -1.34375 4.765625 -1.03125 6.359375 -1.03125 L 6.359375 -0.265625 L -0.078125 -0.265625 L -0.078125 -1.03125 L 0.078125 -1.03125 C 1.410156 -1.03125 2.359375 -1.753906 2.921875 -3.203125 L 9.59375 -19.890625 L 10.328125 -19.890625 L 17.125 -3.03125 C 17.632812 -1.75 18.609375 -1.082031 20.046875 -1.03125 Z M 13.125 -8.078125 L 9.609375 -16.859375 L 6.140625 -8.078125 Z M 13.125 -8.078125 "/></g></g></g><g fill="#000000" fill-opacity="1"><g transform="translate(313.176897, 168.086943)"><g><path d="M 21.53125 -18.8125 C 20.632812 -18.75 20.007812 -18.640625 19.65625 -18.484375 C 19.132812 -18.234375 18.875 -17.628906 18.875 -16.671875 L 18.875 0 L 17.6875 0 L 5.34375 -17.359375 L 5.25 -17.359375 L 5.25 -3.203125 C 5.25 -2.265625 5.488281 -1.671875 5.96875 -1.421875 C 6.375 -1.210938 7.03125 -1.082031 7.9375 -1.03125 L 7.9375 -0.265625 L 1.171875 -0.265625 L 1.171875 -1.03125 C 2.066406 -1.09375 2.71875 -1.203125 3.125 -1.359375 C 3.65625 -1.609375 3.921875 -2.222656 3.921875 -3.203125 L 3.921875 -16.578125 C 3.921875 -17.566406 3.679688 -18.1875 3.203125 -18.4375 C 2.890625 -18.601562 2.175781 -18.726562 1.0625 -18.8125 L 1.0625 -19.578125 L 6.015625 -19.578125 L 17.453125 -3.484375 L 17.53125 -3.484375 L 17.53125 -16.671875 C 17.53125 -17.597656 17.296875 -18.1875 16.828125 -18.4375 C 16.410156 -18.632812 15.710938 -18.757812 14.734375 -18.8125 L 14.734375 -19.578125 L 21.53125 -19.578125 Z M 21.53125 -18.8125 "/></g></g></g><g fill="#000000" fill-opacity="1"><g transform="translate(335.527218, 168.086943)"><g><path d="M 17.484375 -6.1875 L 17.078125 -0.265625 L 1.375 -0.265625 L 1.375 -1.03125 C 2.382812 -1.113281 3.054688 -1.234375 3.390625 -1.390625 C 3.910156 -1.609375 4.171875 -2.203125 4.171875 -3.171875 L 4.171875 -16.65625 C 4.171875 -17.507812 4 -18.054688 3.65625 -18.296875 C 3.3125 -18.554688 2.550781 -18.726562 1.375 -18.8125 L 1.375 -19.578125 L 16.75 -19.578125 L 17.078125 -14.140625 L 16.25 -14.140625 C 16.144531 -15.703125 15.800781 -16.832031 15.21875 -17.53125 C 14.5625 -18.3125 13.109375 -18.703125 10.859375 -18.703125 L 8.4375 -18.703125 C 7.675781 -18.703125 7.082031 -18.601562 6.65625 -18.40625 C 6.238281 -18.175781 6.03125 -17.59375 6.03125 -16.65625 L 6.03125 -10.734375 L 8.9375 -10.734375 C 10.03125 -10.734375 10.769531 -10.976562 11.15625 -11.46875 C 11.507812 -11.945312 11.726562 -12.644531 11.8125 -13.5625 L 12.609375 -13.5625 L 12.609375 -6.875 L 11.8125 -6.875 C 11.726562 -7.769531 11.546875 -8.429688 11.265625 -8.859375 C 10.878906 -9.472656 10.101562 -9.78125 8.9375 -9.78125 L 6.03125 -9.78125 L 6.03125 -3.21875 C 6.03125 -2.363281 6.210938 -1.804688 6.578125 -1.546875 C 6.984375 -1.296875 7.601562 -1.171875 8.4375 -1.171875 L 10.859375 -1.171875 C 13.015625 -1.171875 14.457031 -1.488281 15.1875 -2.125 C 16.039062 -2.863281 16.535156 -4.21875 16.671875 -6.1875 Z M 17.484375 -6.1875 "/></g></g></g><g fill="#000000" fill-opacity="1"><g transform="translate(354.680808, 168.086943)"><g><path d="M 20.953125 -8.4375 C 20.078125 -8.351562 19.484375 -8.242188 19.171875 -8.109375 C 18.640625 -7.878906 18.375 -7.273438 18.375 -6.296875 L 18.375 -0.34375 L 17.78125 -0.34375 L 16.9375 -1.9375 C 15.4375 -0.382812 13.488281 0.390625 11.09375 0.390625 C 8.382812 0.390625 6.164062 -0.472656 4.4375 -2.203125 C 2.570312 -4.097656 1.640625 -6.628906 1.640625 -9.796875 C 1.640625 -13.046875 2.632812 -15.664062 4.625 -17.65625 C 6.363281 -19.394531 8.488281 -20.265625 11 -20.265625 C 13.007812 -20.265625 14.773438 -19.726562 16.296875 -18.65625 C 16.671875 -18.394531 16.925781 -18.265625 17.0625 -18.265625 C 17.34375 -18.265625 17.5 -18.640625 17.53125 -19.390625 L 18.375 -19.390625 L 18.375 -13.984375 L 17.5625 -13.984375 C 17.3125 -15.234375 16.78125 -16.304688 15.96875 -17.203125 C 14.75 -18.578125 13.144531 -19.265625 11.15625 -19.265625 C 8.5 -19.265625 6.523438 -18.117188 5.234375 -15.828125 C 4.316406 -14.160156 3.859375 -12.207031 3.859375 -9.96875 C 3.859375 -7.257812 4.554688 -5.050781 5.953125 -3.34375 C 7.347656 -1.601562 9.125 -0.734375 11.28125 -0.734375 C 13.3125 -0.734375 14.847656 -1.363281 15.890625 -2.625 C 16.347656 -3.164062 16.578125 -3.851562 16.578125 -4.6875 L 16.578125 -6.296875 C 16.578125 -7.222656 16.347656 -7.804688 15.890625 -8.046875 C 15.566406 -8.222656 14.863281 -8.351562 13.78125 -8.4375 L 13.78125 -9.203125 L 20.953125 -9.203125 Z M 20.953125 -8.4375 "/></g></g></g><g fill="#000000" fill-opacity="1"><g transform="translate(376.108218, 168.086943)"><g><path d="M 17.484375 -6.1875 L 17.078125 -0.265625 L 1.375 -0.265625 L 1.375 -1.03125 C 2.382812 -1.113281 3.054688 -1.234375 3.390625 -1.390625 C 3.910156 -1.609375 4.171875 -2.203125 4.171875 -3.171875 L 4.171875 -16.65625 C 4.171875 -17.507812 4 -18.054688 3.65625 -18.296875 C 3.3125 -18.554688 2.550781 -18.726562 1.375 -18.8125 L 1.375 -19.578125 L 16.75 -19.578125 L 17.078125 -14.140625 L 16.25 -14.140625 C 16.144531 -15.703125 15.800781 -16.832031 15.21875 -17.53125 C 14.5625 -18.3125 13.109375 -18.703125 10.859375 -18.703125 L 8.4375 -18.703125 C 7.675781 -18.703125 7.082031 -18.601562 6.65625 -18.40625 C 6.238281 -18.175781 6.03125 -17.59375 6.03125 -16.65625 L 6.03125 -10.734375 L 8.9375 -10.734375 C 10.03125 -10.734375 10.769531 -10.976562 11.15625 -11.46875 C 11.507812 -11.945312 11.726562 -12.644531 11.8125 -13.5625 L 12.609375 -13.5625 L 12.609375 -6.875 L 11.8125 -6.875 C 11.726562 -7.769531 11.546875 -8.429688 11.265625 -8.859375 C 10.878906 -9.472656 10.101562 -9.78125 8.9375 -9.78125 L 6.03125 -9.78125 L 6.03125 -3.21875 C 6.03125 -2.363281 6.210938 -1.804688 6.578125 -1.546875 C 6.984375 -1.296875 7.601562 -1.171875 8.4375 -1.171875 L 10.859375 -1.171875 C 13.015625 -1.171875 14.457031 -1.488281 15.1875 -2.125 C 16.039062 -2.863281 16.535156 -4.21875 16.671875 -6.1875 Z M 17.484375 -6.1875 "/></g></g></g><g fill="#000000" fill-opacity="1"><g transform="translate(395.261808, 168.086943)"><g><path d="M 24.84375 -0.265625 L 17.421875 -0.265625 L 17.421875 -1.03125 C 18.390625 -1.09375 19.050781 -1.203125 19.40625 -1.359375 C 19.925781 -1.585938 20.1875 -2.207031 20.1875 -3.21875 L 20.1875 -18.25 L 20.109375 -18.25 L 13.203125 -0.265625 L 12.25 -0.265625 L 5.359375 -18.21875 L 5.25 -18.21875 L 5.25 -3.203125 C 5.25 -2.265625 5.488281 -1.671875 5.96875 -1.421875 C 6.375 -1.210938 7.03125 -1.082031 7.9375 -1.03125 L 7.9375 -0.265625 L 1.171875 -0.265625 L 1.171875 -1.03125 C 2.066406 -1.09375 2.71875 -1.203125 3.125 -1.359375 C 3.65625 -1.609375 3.921875 -2.222656 3.921875 -3.203125 L 3.921875 -16.578125 C 3.921875 -17.566406 3.679688 -18.1875 3.203125 -18.4375 C 2.890625 -18.601562 2.175781 -18.726562 1.0625 -18.8125 L 1.0625 -19.578125 L 6.796875 -19.578125 L 13.09375 -3.21875 L 19.34375 -19.578125 L 24.84375 -19.578125 L 24.84375 -18.8125 C 23.96875 -18.757812 23.3125 -18.632812 22.875 -18.4375 C 22.320312 -18.1875 22.046875 -17.570312 22.046875 -16.59375 L 22.046875 -3.21875 C 22.046875 -2.269531 22.285156 -1.671875 22.765625 -1.421875 C 23.140625 -1.222656 23.832031 -1.09375 24.84375 -1.03125 Z M 24.84375 -0.265625 "/></g></g></g><g fill="#000000" fill-opacity="1"><g transform="translate(421.397363, 168.086943)"><g><path d="M 17.484375 -6.1875 L 17.078125 -0.265625 L 1.375 -0.265625 L 1.375 -1.03125 C 2.382812 -1.113281 3.054688 -1.234375 3.390625 -1.390625 C 3.910156 -1.609375 4.171875 -2.203125 4.171875 -3.171875 L 4.171875 -16.65625 C 4.171875 -17.507812 4 -18.054688 3.65625 -18.296875 C 3.3125 -18.554688 2.550781 -18.726562 1.375 -18.8125 L 1.375 -19.578125 L 16.75 -19.578125 L 17.078125 -14.140625 L 16.25 -14.140625 C 16.144531 -15.703125 15.800781 -16.832031 15.21875 -17.53125 C 14.5625 -18.3125 13.109375 -18.703125 10.859375 -18.703125 L 8.4375 -18.703125 C 7.675781 -18.703125 7.082031 -18.601562 6.65625 -18.40625 C 6.238281 -18.175781 6.03125 -17.59375 6.03125 -16.65625 L 6.03125 -10.734375 L 8.9375 -10.734375 C 10.03125 -10.734375 10.769531 -10.976562 11.15625 -11.46875 C 11.507812 -11.945312 11.726562 -12.644531 11.8125 -13.5625 L 12.609375 -13.5625 L 12.609375 -6.875 L 11.8125 -6.875 C 11.726562 -7.769531 11.546875 -8.429688 11.265625 -8.859375 C 10.878906 -9.472656 10.101562 -9.78125 8.9375 -9.78125 L 6.03125 -9.78125 L 6.03125 -3.21875 C 6.03125 -2.363281 6.210938 -1.804688 6.578125 -1.546875 C 6.984375 -1.296875 7.601562 -1.171875 8.4375 -1.171875 L 10.859375 -1.171875 C 13.015625 -1.171875 14.457031 -1.488281 15.1875 -2.125 C 16.039062 -2.863281 16.535156 -4.21875 16.671875 -6.1875 Z M 17.484375 -6.1875 "/></g></g></g><g fill="#000000" fill-opacity="1"><g transform="translate(440.550954, 168.086943)"><g><path d="M 21.53125 -18.8125 C 20.632812 -18.75 20.007812 -18.640625 19.65625 -18.484375 C 19.132812 -18.234375 18.875 -17.628906 18.875 -16.671875 L 18.875 0 L 17.6875 0 L 5.34375 -17.359375 L 5.25 -17.359375 L 5.25 -3.203125 C 5.25 -2.265625 5.488281 -1.671875 5.96875 -1.421875 C 6.375 -1.210938 7.03125 -1.082031 7.9375 -1.03125 L 7.9375 -0.265625 L 1.171875 -0.265625 L 1.171875 -1.03125 C 2.066406 -1.09375 2.71875 -1.203125 3.125 -1.359375 C 3.65625 -1.609375 3.921875 -2.222656 3.921875 -3.203125 L 3.921875 -16.578125 C 3.921875 -17.566406 3.679688 -18.1875 3.203125 -18.4375 C 2.890625 -18.601562 2.175781 -18.726562 1.0625 -18.8125 L 1.0625 -19.578125 L 6.015625 -19.578125 L 17.453125 -3.484375 L 17.53125 -3.484375 L 17.53125 -16.671875 C 17.53125 -17.597656 17.296875 -18.1875 16.828125 -18.4375 C 16.410156 -18.632812 15.710938 -18.757812 14.734375 -18.8125 L 14.734375 -19.578125 L 21.53125 -19.578125 Z M 21.53125 -18.8125 "/></g></g></g><g fill="#000000" fill-opacity="1"><g transform="translate(462.901275, 168.086943)"><g><path d="M 16.9375 -14.515625 L 16.125 -14.515625 C 16.039062 -15.441406 15.820312 -16.273438 15.46875 -17.015625 C 14.957031 -18.117188 13.695312 -18.671875 11.6875 -18.671875 L 9.4375 -18.671875 L 9.4375 -3.171875 C 9.4375 -2.273438 9.679688 -1.691406 10.171875 -1.421875 C 10.546875 -1.210938 11.269531 -1.082031 12.34375 -1.03125 L 12.34375 -0.265625 L 4.65625 -0.265625 L 4.65625 -1.03125 C 5.695312 -1.09375 6.410156 -1.203125 6.796875 -1.359375 C 7.304688 -1.578125 7.5625 -2.179688 7.5625 -3.171875 L 7.5625 -18.671875 L 5.5 -18.671875 C 3.582031 -18.671875 2.332031 -18.160156 1.75 -17.140625 C 1.351562 -16.492188 1.085938 -15.617188 0.953125 -14.515625 L 0.1875 -14.515625 L 0.578125 -19.578125 L 16.671875 -19.578125 Z M 16.9375 -14.515625 "/></g></g></g></svg>