<svg xmlns="http://www.w3.org/2000/svg" xmlns:xlink="http://www.w3.org/1999/xlink" width="500" zoomAndPan="magnify" viewBox="0 0 375 374.999991" height="500" preserveAspectRatio="xMidYMid meet" version="1.0"><defs><g/><clipPath id="070b50e3dd"><path d="M 94.066406 10.199219 L 291.316406 10.199219 L 291.316406 295.949219 L 94.066406 295.949219 Z M 94.066406 10.199219 " clip-rule="nonzero"/></clipPath></defs><g clip-path="url(#070b50e3dd)"><path fill="#ffffff" d="M 286.746094 155.722656 C 284.871094 154.664062 283.039062 153.535156 281.253906 152.328125 C 279.46875 151.121094 277.734375 149.84375 276.054688 148.5 C 274.371094 147.152344 272.75 145.738281 271.183594 144.257812 C 269.617188 142.777344 268.113281 141.238281 266.675781 139.632812 C 265.234375 138.03125 263.863281 136.375 262.558594 134.660156 C 261.253906 132.945312 260.023438 131.179688 258.863281 129.367188 C 257.703125 127.550781 256.617188 125.691406 255.609375 123.789062 C 254.601562 121.886719 253.671875 119.945312 252.820312 117.964844 C 251.972656 115.984375 251.203125 113.976562 250.515625 111.933594 C 249.832031 109.890625 249.230469 107.824219 248.714844 105.734375 C 248.195312 103.644531 247.765625 101.535156 247.421875 99.410156 C 247.074219 97.285156 246.816406 95.148438 246.648438 93 C 246.476562 90.851562 246.394531 88.703125 246.398438 86.550781 C 246.402344 84.394531 246.496094 82.246094 246.675781 80.097656 C 246.859375 77.953125 247.125 75.816406 247.480469 73.695312 C 247.835938 71.570312 248.277344 69.464844 248.804688 67.375 C 249.132812 66.042969 249.148438 64.710938 248.859375 63.371094 C 248.566406 62.035156 247.996094 60.828125 247.144531 59.753906 C 246.832031 59.375 246.492188 59.019531 246.128906 58.691406 L 246.128906 18.710938 C 246.101562 18.148438 246.015625 17.59375 245.882812 17.046875 C 245.746094 16.5 245.5625 15.96875 245.324219 15.457031 C 245.089844 14.945312 244.804688 14.460938 244.476562 14.003906 C 244.148438 13.546875 243.78125 13.125 243.371094 12.734375 C 242.960938 12.347656 242.519531 12 242.046875 11.699219 C 241.570312 11.394531 241.070312 11.136719 240.546875 10.929688 C 240.023438 10.722656 239.484375 10.5625 238.933594 10.457031 C 238.378906 10.351562 237.820312 10.296875 237.257812 10.296875 C 236.691406 10.296875 236.132812 10.351562 235.582031 10.457031 C 235.027344 10.5625 234.488281 10.722656 233.964844 10.929688 C 233.441406 11.136719 232.941406 11.394531 232.46875 11.699219 C 231.992188 12 231.550781 12.347656 231.140625 12.734375 C 230.730469 13.125 230.363281 13.546875 230.035156 14.003906 C 229.707031 14.460938 229.425781 14.945312 229.1875 15.457031 C 228.953125 15.96875 228.765625 16.5 228.628906 17.046875 C 228.496094 17.59375 228.414062 18.148438 228.382812 18.710938 L 228.382812 56.464844 L 156.949219 56.464844 L 156.949219 18.710938 C 156.921875 18.148438 156.839844 17.59375 156.703125 17.046875 C 156.566406 16.5 156.382812 15.96875 156.144531 15.457031 C 155.910156 14.945312 155.625 14.460938 155.296875 14.003906 C 154.96875 13.546875 154.601562 13.125 154.191406 12.734375 C 153.78125 12.347656 153.339844 12 152.867188 11.699219 C 152.390625 11.394531 151.890625 11.136719 151.367188 10.929688 C 150.84375 10.71875 150.304688 10.5625 149.753906 10.457031 C 149.199219 10.351562 148.640625 10.296875 148.078125 10.296875 C 147.511719 10.296875 146.953125 10.351562 146.402344 10.457031 C 145.847656 10.5625 145.308594 10.71875 144.785156 10.929688 C 144.261719 11.136719 143.761719 11.394531 143.289062 11.699219 C 142.8125 12 142.371094 12.347656 141.960938 12.734375 C 141.554688 13.125 141.183594 13.546875 140.855469 14.003906 C 140.527344 14.460938 140.246094 14.945312 140.007812 15.457031 C 139.773438 15.96875 139.585938 16.5 139.453125 17.046875 C 139.316406 17.59375 139.234375 18.148438 139.203125 18.710938 L 139.203125 58.691406 C 138.832031 59.019531 138.484375 59.375 138.164062 59.753906 C 137.324219 60.835938 136.769531 62.042969 136.488281 63.382812 C 136.210938 64.71875 136.242188 66.050781 136.578125 67.375 C 138.199219 73.738281 139.027344 80.203125 139.054688 86.769531 C 139.046875 90.265625 138.8125 93.746094 138.34375 97.207031 C 137.875 100.671875 137.183594 104.089844 136.261719 107.460938 C 135.34375 110.832031 134.207031 114.128906 132.851562 117.351562 C 131.496094 120.574219 129.933594 123.691406 128.167969 126.707031 C 126.402344 129.722656 124.441406 132.609375 122.292969 135.363281 C 120.144531 138.121094 117.824219 140.722656 115.328125 143.171875 C 112.835938 145.625 110.191406 147.898438 107.398438 150 C 104.601562 152.101562 101.683594 154.007812 98.636719 155.722656 C 97.953125 156.109375 97.332031 156.578125 96.773438 157.128906 C 96.214844 157.679688 95.738281 158.296875 95.339844 158.972656 C 94.945312 159.652344 94.644531 160.371094 94.441406 161.128906 C 94.234375 161.886719 94.132812 162.65625 94.132812 163.441406 L 94.132812 287.140625 C 94.132812 287.726562 94.1875 288.300781 94.300781 288.875 C 94.414062 289.445312 94.585938 290 94.808594 290.539062 C 95.03125 291.074219 95.304688 291.585938 95.628906 292.070312 C 95.953125 292.554688 96.324219 293.003906 96.734375 293.414062 C 97.148438 293.824219 97.597656 294.191406 98.082031 294.515625 C 98.566406 294.839844 99.078125 295.109375 99.617188 295.332031 C 100.15625 295.554688 100.710938 295.722656 101.285156 295.832031 C 101.855469 295.945312 102.433594 296 103.015625 296 L 282.367188 296 C 282.949219 296 283.527344 295.945312 284.097656 295.832031 C 284.671875 295.722656 285.226562 295.554688 285.765625 295.332031 C 286.304688 295.109375 286.816406 294.839844 287.300781 294.515625 C 287.785156 294.191406 288.234375 293.824219 288.648438 293.414062 C 289.058594 293.003906 289.429688 292.554688 289.753906 292.070312 C 290.078125 291.585938 290.351562 291.074219 290.574219 290.539062 C 290.796875 290 290.96875 289.445312 291.082031 288.875 C 291.195312 288.300781 291.25 287.726562 291.25 287.140625 L 291.25 163.441406 C 291.25 162.65625 291.148438 161.886719 290.941406 161.128906 C 290.738281 160.371094 290.4375 159.652344 290.042969 158.972656 C 289.644531 158.296875 289.167969 157.679688 288.609375 157.128906 C 288.050781 156.578125 287.429688 156.109375 286.746094 155.722656 Z M 152.839844 212.328125 L 232.542969 212.328125 C 233.144531 212.296875 233.742188 212.324219 234.339844 212.414062 C 234.9375 212.503906 235.515625 212.65625 236.082031 212.863281 C 236.648438 213.070312 237.1875 213.335938 237.699219 213.652344 C 238.210938 213.972656 238.6875 214.339844 239.125 214.753906 C 239.5625 215.167969 239.953125 215.621094 240.300781 216.117188 C 240.644531 216.613281 240.9375 217.136719 241.175781 217.691406 C 241.410156 218.246094 241.59375 218.816406 241.714844 219.40625 C 241.835938 219.996094 241.894531 220.59375 241.894531 221.195312 C 241.894531 221.800781 241.835938 222.398438 241.714844 222.988281 C 241.59375 223.578125 241.410156 224.148438 241.175781 224.703125 C 240.9375 225.257812 240.644531 225.78125 240.300781 226.277344 C 239.953125 226.773438 239.5625 227.226562 239.125 227.640625 C 238.6875 228.054688 238.210938 228.421875 237.699219 228.742188 C 237.1875 229.058594 236.648438 229.324219 236.082031 229.53125 C 235.515625 229.738281 234.9375 229.890625 234.339844 229.980469 C 233.742188 230.070312 233.144531 230.097656 232.542969 230.066406 L 152.839844 230.066406 C 152.238281 230.097656 151.640625 230.070312 151.042969 229.980469 C 150.445312 229.890625 149.867188 229.738281 149.300781 229.53125 C 148.734375 229.324219 148.195312 229.058594 147.683594 228.742188 C 147.171875 228.421875 146.695312 228.054688 146.257812 227.640625 C 145.820312 227.226562 145.429688 226.773438 145.082031 226.277344 C 144.738281 225.78125 144.445312 225.257812 144.207031 224.703125 C 143.972656 224.148438 143.789062 223.578125 143.667969 222.988281 C 143.546875 222.398438 143.488281 221.800781 143.488281 221.195312 C 143.488281 220.59375 143.546875 219.996094 143.667969 219.40625 C 143.789062 218.816406 143.972656 218.246094 144.207031 217.691406 C 144.445312 217.136719 144.738281 216.613281 145.082031 216.117188 C 145.429688 215.621094 145.820312 215.167969 146.257812 214.753906 C 146.695312 214.339844 147.171875 213.972656 147.683594 213.652344 C 148.195312 213.335938 148.734375 213.070312 149.300781 212.863281 C 149.867188 212.65625 150.445312 212.503906 151.042969 212.414062 C 151.640625 212.324219 152.238281 212.296875 152.839844 212.328125 Z M 152.839844 212.328125 " fill-opacity="1" fill-rule="nonzero"/></g><g fill="#ffffff" fill-opacity="1"><g transform="translate(31.313324, 357.55971)"><g><path d="M 34.171875 4.21875 L 39.253906 -1.136719 L 27.089844 -10.976562 L 43.6875 -17.625 C 47.578125 -19.195312 49.527344 -21.953125 49.527344 -25.195312 L 49.527344 -34.007812 C 49.527344 -37.738281 46.28125 -39.792969 42.875 -39.792969 L 10.21875 -39.792969 C 8.867188 -39.792969 8.109375 -40.0625 8.109375 -41.792969 L 2.648438 -41.792969 L 2.648438 -38.496094 C 2.648438 -34.875 5.246094 -33.578125 7.949219 -33.578125 L 40.335938 -33.578125 C 42.011719 -33.578125 42.714844 -32.601562 42.714844 -31.304688 L 42.714844 -26.546875 C 42.714844 -24.871094 41.792969 -24.113281 40.28125 -23.464844 L 21.25 -15.734375 L 12.273438 -23.03125 L 7.839844 -18.058594 Z M 34.171875 4.21875 "/></g></g></g><g fill="#ffffff" fill-opacity="1"><g transform="translate(98.400808, 357.55971)"><g><path d="M 32.441406 3.894531 L 32.441406 -25.574219 L 43.144531 -28.332031 C 47.632812 -29.519531 48.984375 -32.820312 48.984375 -36.117188 L 48.984375 -44.226562 L 41.902344 -44.226562 L 41.902344 -36.929688 C 41.902344 -35.46875 41.199219 -34.605469 39.847656 -34.277344 L 2.109375 -25.035156 L 5.949219 -18.707031 L 25.085938 -23.628906 L 25.085938 3.894531 Z M 32.441406 3.894531 "/></g></g></g><g fill="#ffffff" fill-opacity="1"><g transform="translate(165.488291, 357.55971)"><g><path d="M 51.148438 -38.171875 C 51.148438 -41.902344 48.121094 -44.929688 44.390625 -44.929688 C 40.660156 -44.929688 37.683594 -41.902344 37.683594 -38.171875 C 37.683594 -34.441406 40.660156 -31.46875 44.390625 -31.46875 C 48.121094 -31.46875 51.148438 -34.441406 51.148438 -38.171875 Z M 52.230469 0.8125 L 31.304688 -38.171875 C 29.683594 -41.253906 28.0625 -42.066406 24.332031 -42.066406 L 18.058594 -42.066406 C 14.921875 -42.066406 12.4375 -40.390625 11.570312 -37.359375 C 9.515625 -30.222656 7.351562 -23.195312 5.191406 -16.113281 C 4.921875 -15.246094 4.597656 -14.867188 3.785156 -14.867188 L 1.460938 -14.867188 L 2.648438 -9.40625 L 5.894531 -9.40625 C 9.03125 -9.40625 10.652344 -10.757812 11.410156 -13.300781 C 12.652344 -17.464844 15.84375 -28.816406 17.355469 -34.277344 C 17.734375 -35.628906 18.328125 -36.171875 19.734375 -36.171875 L 23.953125 -36.171875 C 25.628906 -36.171875 25.738281 -35.304688 26.0625 -34.65625 L 45.039062 3.839844 Z M 47.09375 -38.171875 C 47.09375 -36.710938 45.851562 -35.523438 44.390625 -35.523438 C 42.929688 -35.523438 41.742188 -36.710938 41.742188 -38.171875 C 41.742188 -39.632812 42.929688 -40.875 44.390625 -40.875 C 45.851562 -40.875 47.09375 -39.632812 47.09375 -38.171875 Z M 47.09375 -38.171875 "/></g></g></g><g fill="#ffffff" fill-opacity="1"><g transform="translate(232.575775, 357.55971)"><g><path d="M 50.066406 -17.300781 L 50.066406 -24.007812 L 11.679688 -24.007812 C 10.328125 -24.007812 9.570312 -24.332031 9.570312 -26.0625 L 4.109375 -26.0625 L 4.109375 -22.222656 C 4.109375 -18.597656 6.703125 -17.300781 9.40625 -17.300781 Z M 50.066406 -17.300781 "/></g></g></g><g fill="#ffffff" fill-opacity="1"><g transform="translate(299.663258, 357.55971)"><g><path d="M 51.636719 -37.253906 L 51.636719 -45.363281 L 46.769531 -45.363281 L 46.769531 -37.253906 Z M 44.066406 -37.253906 L 44.066406 -45.363281 L 39.199219 -45.363281 L 39.199219 -37.253906 Z M 31.46875 -30.820312 L 32.550781 -36.984375 L 12.867188 -40.714844 C 11.410156 -40.984375 11.460938 -41.957031 11.410156 -43.09375 L 5.949219 -43.09375 L 5.949219 -40.171875 C 5.949219 -36.875 7.460938 -35.359375 10.921875 -34.710938 Z M 34.605469 2.59375 C 39.632812 2.59375 43.039062 0.433594 44.226562 -4.597656 L 50.660156 -32.332031 L 43.796875 -34.710938 L 37.46875 -6.324219 C 37.035156 -4.488281 35.957031 -3.785156 34.171875 -3.785156 L 14.542969 -3.785156 C 13.300781 -3.785156 12.382812 -4.164062 12.382812 -5.785156 L 12.382812 -7.191406 L 6.488281 -7.191406 L 6.488281 -2.488281 C 6.488281 0.972656 9.40625 2.59375 12.761719 2.59375 Z M 31.46875 -15.789062 L 32.550781 -21.953125 L 12.867188 -25.683594 C 11.410156 -25.953125 11.460938 -26.925781 11.410156 -28.0625 L 5.949219 -28.0625 L 5.949219 -25.140625 C 5.949219 -21.84375 7.460938 -20.328125 10.921875 -19.679688 Z M 31.46875 -15.789062 "/></g></g></g></svg>