<svg xmlns="http://www.w3.org/2000/svg" xmlns:xlink="http://www.w3.org/1999/xlink" width="500" zoomAndPan="magnify" viewBox="0 0 375 374.999991" height="500" preserveAspectRatio="xMidYMid meet" version="1.0"><defs><g/><clipPath id="131bb39b36"><path d="M 72 47 L 308 47 L 308 283.527344 L 72 283.527344 Z M 72 47 " clip-rule="nonzero"/></clipPath><clipPath id="9380c6f3dd"><path d="M 312 28 L 337.546875 28 L 337.546875 283.527344 L 312 283.527344 Z M 312 28 " clip-rule="nonzero"/></clipPath><clipPath id="e9fe21cad8"><path d="M 30.046875 40 L 73 40 L 73 283.527344 L 30.046875 283.527344 Z M 30.046875 40 " clip-rule="nonzero"/></clipPath></defs><g clip-path="url(#131bb39b36)"><path fill="#ffffff" d="M 189.867188 47.5 C 124.902344 47.5 72.238281 100.226562 72.238281 165.273438 C 72.238281 230.320312 124.902344 283.050781 189.867188 283.050781 C 254.835938 283.050781 307.5 230.320312 307.5 165.273438 C 307.5 100.226562 254.824219 47.5 189.867188 47.5 Z M 189.867188 258.628906 C 138.371094 258.628906 96.617188 216.824219 96.617188 165.261719 C 96.617188 113.703125 138.371094 71.894531 189.867188 71.894531 C 241.367188 71.894531 283.121094 113.703125 283.121094 165.261719 C 283.121094 216.824219 241.367188 258.628906 189.867188 258.628906 Z M 189.867188 258.628906 " fill-opacity="1" fill-rule="nonzero"/></g><path fill="#ffffff" d="M 272.222656 165.261719 C 272.222656 166.613281 272.191406 167.960938 272.125 169.308594 C 272.058594 170.65625 271.957031 172.003906 271.828125 173.34375 C 271.695312 174.6875 271.527344 176.027344 271.332031 177.363281 C 271.132812 178.695312 270.902344 180.027344 270.640625 181.347656 C 270.378906 182.671875 270.082031 183.988281 269.753906 185.296875 C 269.425781 186.605469 269.066406 187.90625 268.675781 189.199219 C 268.285156 190.488281 267.863281 191.769531 267.410156 193.042969 C 266.953125 194.3125 266.46875 195.570312 265.953125 196.816406 C 265.4375 198.0625 264.890625 199.296875 264.316406 200.515625 C 263.738281 201.738281 263.132812 202.941406 262.5 204.132812 C 261.863281 205.324219 261.199219 206.496094 260.507812 207.652344 C 259.8125 208.8125 259.09375 209.949219 258.34375 211.074219 C 257.59375 212.195312 256.820312 213.296875 256.015625 214.382812 C 255.214844 215.464844 254.382812 216.53125 253.53125 217.574219 C 252.675781 218.617188 251.792969 219.636719 250.890625 220.636719 C 249.984375 221.636719 249.054688 222.613281 248.101562 223.566406 C 247.148438 224.523438 246.171875 225.453125 245.175781 226.359375 C 244.175781 227.265625 243.15625 228.144531 242.113281 229.003906 C 241.070312 229.859375 240.007812 230.6875 238.925781 231.492188 C 237.84375 232.296875 236.742188 233.074219 235.621094 233.824219 C 234.5 234.574219 233.363281 235.292969 232.207031 235.988281 C 231.050781 236.683594 229.878906 237.347656 228.691406 237.984375 C 227.5 238.617188 226.296875 239.226562 225.078125 239.800781 C 223.859375 240.378906 222.628906 240.925781 221.382812 241.441406 C 220.140625 241.957031 218.882812 242.445312 217.613281 242.898438 C 216.34375 243.355469 215.066406 243.777344 213.773438 244.167969 C 212.484375 244.558594 211.1875 244.921875 209.878906 245.246094 C 208.570312 245.574219 207.257812 245.871094 205.933594 246.132812 C 204.613281 246.398438 203.285156 246.628906 201.953125 246.828125 C 200.621094 247.023438 199.28125 247.191406 197.941406 247.320312 C 196.601562 247.453125 195.257812 247.554688 193.910156 247.621094 C 192.5625 247.6875 191.214844 247.71875 189.867188 247.71875 C 188.519531 247.71875 187.175781 247.6875 185.828125 247.621094 C 184.480469 247.554688 183.136719 247.453125 181.796875 247.320312 C 180.457031 247.191406 179.117188 247.023438 177.785156 246.828125 C 176.453125 246.628906 175.125 246.398438 173.800781 246.132812 C 172.480469 245.871094 171.164062 245.574219 169.859375 245.246094 C 168.550781 244.921875 167.253906 244.558594 165.960938 244.167969 C 164.671875 243.777344 163.394531 243.355469 162.125 242.898438 C 160.855469 242.445312 159.597656 241.957031 158.351562 241.441406 C 157.109375 240.925781 155.875 240.378906 154.65625 239.800781 C 153.441406 239.226562 152.234375 238.617188 151.046875 237.984375 C 149.859375 237.347656 148.6875 236.683594 147.53125 235.988281 C 146.375 235.292969 145.234375 234.574219 144.117188 233.824219 C 142.996094 233.074219 141.894531 232.296875 140.8125 231.492188 C 139.726562 230.6875 138.664062 229.859375 137.625 229.003906 C 136.582031 228.144531 135.5625 227.265625 134.5625 226.359375 C 133.566406 225.453125 132.589844 224.523438 131.636719 223.566406 C 130.683594 222.613281 129.753906 221.636719 128.847656 220.636719 C 127.945312 219.636719 127.0625 218.617188 126.207031 217.574219 C 125.351562 216.53125 124.523438 215.464844 123.722656 214.382812 C 122.917969 213.296875 122.144531 212.195312 121.394531 211.074219 C 120.644531 209.949219 119.925781 208.8125 119.230469 207.652344 C 118.539062 206.496094 117.875 205.324219 117.238281 204.132812 C 116.605469 202.941406 115.996094 201.738281 115.421875 200.515625 C 114.84375 199.296875 114.300781 198.0625 113.785156 196.816406 C 113.269531 195.570312 112.78125 194.3125 112.328125 193.042969 C 111.875 191.769531 111.453125 190.488281 111.0625 189.199219 C 110.667969 187.90625 110.308594 186.605469 109.984375 185.296875 C 109.65625 183.988281 109.359375 182.671875 109.097656 181.347656 C 108.835938 180.027344 108.605469 178.695312 108.40625 177.363281 C 108.207031 176.027344 108.042969 174.6875 107.910156 173.34375 C 107.777344 172.003906 107.679688 170.65625 107.613281 169.308594 C 107.546875 167.960938 107.515625 166.613281 107.515625 165.261719 C 107.515625 163.914062 107.546875 162.566406 107.613281 161.21875 C 107.679688 159.867188 107.777344 158.523438 107.910156 157.179688 C 108.042969 155.835938 108.207031 154.5 108.40625 153.164062 C 108.605469 151.828125 108.835938 150.5 109.097656 149.175781 C 109.359375 147.851562 109.65625 146.535156 109.984375 145.226562 C 110.308594 143.917969 110.667969 142.617188 111.0625 141.328125 C 111.453125 140.035156 111.875 138.753906 112.328125 137.484375 C 112.78125 136.214844 113.269531 134.953125 113.785156 133.707031 C 114.300781 132.460938 114.84375 131.226562 115.421875 130.007812 C 115.996094 128.789062 116.605469 127.582031 117.238281 126.394531 C 117.875 125.203125 118.539062 124.027344 119.230469 122.871094 C 119.925781 121.714844 120.644531 120.574219 121.394531 119.453125 C 122.144531 118.332031 122.917969 117.226562 123.722656 116.144531 C 124.523438 115.058594 125.351562 113.996094 126.207031 112.953125 C 127.0625 111.910156 127.945312 110.886719 128.847656 109.886719 C 129.753906 108.886719 130.683594 107.910156 131.636719 106.957031 C 132.589844 106.003906 133.566406 105.074219 134.5625 104.167969 C 135.5625 103.261719 136.582031 102.378906 137.625 101.523438 C 138.664062 100.667969 139.726562 99.835938 140.8125 99.035156 C 141.894531 98.230469 142.996094 97.453125 144.117188 96.703125 C 145.234375 95.953125 146.375 95.230469 147.53125 94.539062 C 148.6875 93.84375 149.859375 93.179688 151.046875 92.542969 C 152.234375 91.90625 153.441406 91.300781 154.65625 90.722656 C 155.875 90.144531 157.109375 89.597656 158.351562 89.082031 C 159.597656 88.566406 160.855469 88.082031 162.125 87.625 C 163.394531 87.171875 164.671875 86.75 165.960938 86.355469 C 167.253906 85.964844 168.550781 85.605469 169.859375 85.277344 C 171.164062 84.949219 172.480469 84.652344 173.800781 84.390625 C 175.125 84.128906 176.453125 83.898438 177.785156 83.699219 C 179.117188 83.5 180.457031 83.335938 181.796875 83.203125 C 183.136719 83.070312 184.480469 82.972656 185.828125 82.90625 C 187.175781 82.839844 188.519531 82.804688 189.867188 82.804688 C 191.214844 82.804688 192.5625 82.839844 193.910156 82.90625 C 195.257812 82.972656 196.601562 83.070312 197.941406 83.203125 C 199.28125 83.335938 200.621094 83.5 201.953125 83.699219 C 203.285156 83.898438 204.613281 84.128906 205.933594 84.390625 C 207.257812 84.652344 208.570312 84.949219 209.878906 85.277344 C 211.1875 85.605469 212.484375 85.964844 213.773438 86.355469 C 215.066406 86.75 216.34375 87.171875 217.613281 87.625 C 218.882812 88.082031 220.140625 88.566406 221.382812 89.082031 C 222.628906 89.597656 223.859375 90.144531 225.078125 90.722656 C 226.296875 91.300781 227.5 91.90625 228.691406 92.542969 C 229.878906 93.179688 231.050781 93.84375 232.207031 94.539062 C 233.363281 95.230469 234.5 95.953125 235.621094 96.703125 C 236.742188 97.453125 237.84375 98.230469 238.925781 99.035156 C 240.007812 99.835938 241.070312 100.667969 242.113281 101.523438 C 243.15625 102.378906 244.175781 103.261719 245.175781 104.167969 C 246.171875 105.074219 247.148438 106.003906 248.101562 106.957031 C 249.054688 107.910156 249.984375 108.886719 250.890625 109.886719 C 251.792969 110.886719 252.675781 111.910156 253.53125 112.953125 C 254.382812 113.996094 255.214844 115.058594 256.015625 116.144531 C 256.820312 117.226562 257.59375 118.332031 258.34375 119.453125 C 259.09375 120.574219 259.8125 121.714844 260.507812 122.871094 C 261.199219 124.027344 261.863281 125.203125 262.5 126.394531 C 263.132812 127.582031 263.738281 128.789062 264.316406 130.007812 C 264.890625 131.226562 265.4375 132.460938 265.953125 133.707031 C 266.46875 134.953125 266.953125 136.214844 267.410156 137.484375 C 267.863281 138.753906 268.285156 140.035156 268.675781 141.328125 C 269.066406 142.617188 269.425781 143.917969 269.753906 145.226562 C 270.082031 146.535156 270.378906 147.851562 270.640625 149.175781 C 270.902344 150.5 271.132812 151.828125 271.332031 153.164062 C 271.527344 154.5 271.695312 155.835938 271.828125 157.179688 C 271.957031 158.523438 272.058594 159.867188 272.125 161.21875 C 272.191406 162.566406 272.222656 163.914062 272.222656 165.261719 Z M 272.222656 165.261719 " fill-opacity="1" fill-rule="nonzero"/><g clip-path="url(#9380c6f3dd)"><path fill="#ffffff" d="M 323.539062 39.59375 C 308.820312 66.066406 309.167969 92.09375 320.027344 125.710938 C 320.027344 125.710938 324.886719 141.582031 321.289062 154.890625 C 320.371094 158.273438 320.027344 161.792969 320.027344 165.296875 L 320.015625 274.25 C 320.015625 279.378906 324.46875 283.527344 329.699219 282.992188 C 334.246094 282.527344 337.570312 278.414062 337.570312 273.832031 L 337.570312 186.367188 L 337.582031 158.800781 L 337.570312 39.605469 C 337.59375 39.59375 337.59375 14.324219 323.539062 39.59375 Z M 323.539062 39.59375 " fill-opacity="1" fill-rule="nonzero"/></g><g clip-path="url(#e9fe21cad8)"><path fill="#ffffff" d="M 68.128906 40.679688 L 67.640625 40.679688 C 65.367188 40.679688 63.53125 87.980469 63.53125 87.980469 C 63.53125 89.960938 62.082031 91.640625 60.128906 91.929688 C 57.734375 92.273438 55.578125 90.414062 55.578125 87.980469 C 55.578125 87.980469 53.730469 40.679688 51.46875 40.679688 L 50.921875 40.679688 C 48.644531 40.679688 46.8125 88.015625 46.8125 88.015625 C 46.8125 90.425781 44.679688 92.285156 42.296875 91.964844 L 41.808594 91.894531 C 39.84375 91.617188 38.367188 89.9375 38.367188 87.945312 C 38.367188 87.945312 36.523438 40.667969 34.257812 40.667969 C 31.984375 40.667969 30.152344 92.238281 30.152344 92.238281 C 30.152344 98.675781 31.566406 108.597656 38.546875 114.359375 C 42.703125 117.792969 43.667969 121.535156 43.75 123.097656 L 43.75 274.226562 C 43.75 279.054688 47.707031 283.015625 52.527344 283.015625 C 57.351562 283.015625 61.304688 279.054688 61.304688 274.226562 L 61.304688 123.753906 L 61.316406 123.753906 C 61.292969 123.421875 61.316406 123.121094 61.304688 122.800781 L 61.304688 121.726562 C 61.507812 117.480469 63.246094 115.074219 65.140625 113.488281 C 72.285156 107.527344 72.285156 98.199219 72.285156 92.308594 C 72.238281 92.308594 70.40625 40.679688 68.128906 40.679688 Z M 68.128906 40.679688 " fill-opacity="1" fill-rule="nonzero"/></g><g fill="#ffffff" fill-opacity="1"><g transform="translate(93.380992, 342.2881)"><g><path d="M 40.929688 -2.542969 C 45.632812 -3.351562 47.796875 -6.324219 47.796875 -10.382812 L 47.796875 -27.628906 L 40.660156 -28.925781 L 40.660156 -11.625 C 40.660156 -10.433594 39.957031 -9.136719 38.660156 -8.921875 L 15.515625 -4.972656 L 15.515625 -43.144531 L 8.378906 -43.144531 L 8.378906 3.296875 Z M 40.929688 -2.542969 "/></g></g></g><g fill="#ffffff" fill-opacity="1"><g transform="translate(160.468476, 342.2881)"><g><path d="M 31.46875 -30.820312 L 32.550781 -36.984375 L 12.867188 -40.714844 C 11.410156 -40.984375 11.460938 -41.957031 11.410156 -43.09375 L 5.949219 -43.09375 L 5.949219 -40.171875 C 5.949219 -36.875 7.460938 -35.359375 10.921875 -34.710938 Z M 34.605469 2.59375 C 39.632812 2.59375 43.039062 0.433594 44.226562 -4.597656 L 50.660156 -32.332031 L 43.796875 -34.710938 L 37.46875 -6.324219 C 37.035156 -4.488281 35.957031 -3.785156 34.171875 -3.785156 L 14.542969 -3.785156 C 13.300781 -3.785156 12.382812 -4.164062 12.382812 -5.785156 L 12.382812 -7.191406 L 6.488281 -7.191406 L 6.488281 -2.488281 C 6.488281 0.972656 9.40625 2.59375 12.761719 2.59375 Z M 31.46875 -15.789062 L 32.550781 -21.953125 L 12.867188 -25.683594 C 11.410156 -25.953125 11.460938 -26.925781 11.410156 -28.0625 L 5.949219 -28.0625 L 5.949219 -25.140625 C 5.949219 -21.84375 7.460938 -20.328125 10.921875 -19.679688 Z M 31.46875 -15.789062 "/></g></g></g><g fill="#ffffff" fill-opacity="1"><g transform="translate(227.555959, 342.2881)"><g><path d="M 52.988281 -40.820312 C 52.988281 -44.550781 49.957031 -47.578125 46.226562 -47.578125 C 42.496094 -47.578125 39.523438 -44.550781 39.523438 -40.820312 C 39.523438 -37.089844 42.496094 -34.117188 46.226562 -34.117188 C 49.957031 -34.117188 52.988281 -37.089844 52.988281 -40.820312 Z M 47.148438 2.433594 L 48.011719 -4.054688 L 17.300781 -4.054688 C 16.003906 -4.054688 14.488281 -4.488281 14.488281 -6.21875 L 14.488281 -25.195312 L 41.46875 -25.195312 C 44.171875 -25.195312 46.769531 -26.492188 46.769531 -30.117188 L 46.769531 -33.683594 L 41.363281 -33.683594 C 41.363281 -31.953125 40.550781 -31.628906 39.199219 -31.628906 L 14.488281 -31.628906 L 14.488281 -44.171875 L 7.351562 -44.171875 L 7.351562 -4.488281 C 7.351562 -0.863281 10.164062 2.433594 15.03125 2.433594 Z M 48.929688 -40.820312 C 48.929688 -39.363281 47.6875 -38.171875 46.226562 -38.171875 C 44.769531 -38.171875 43.578125 -39.363281 43.578125 -40.820312 C 43.578125 -42.28125 44.769531 -43.523438 46.226562 -43.523438 C 47.6875 -43.523438 48.929688 -42.28125 48.929688 -40.820312 Z M 48.929688 -40.820312 "/></g></g></g></svg>