<svg xmlns="http://www.w3.org/2000/svg" xmlns:xlink="http://www.w3.org/1999/xlink" width="500" zoomAndPan="magnify" viewBox="0 0 375 374.999991" height="500" preserveAspectRatio="xMidYMid meet" version="1.0"><defs><g/><clipPath id="6186358390"><path d="M 284 211 L 285 211 L 285 212 L 284 212 Z M 284 211 " clip-rule="nonzero"/></clipPath><clipPath id="ad86d9614a"><path d="M 127.109375 -12.914062 L 335.371094 54.8125 L 248.164062 322.988281 L 39.898438 255.261719 Z M 127.109375 -12.914062 " clip-rule="nonzero"/></clipPath><clipPath id="904ba11d76"><path d="M 127.109375 -12.914062 L 335.371094 54.8125 L 248.164062 322.988281 L 39.898438 255.261719 Z M 127.109375 -12.914062 " clip-rule="nonzero"/></clipPath><clipPath id="7a0c46f561"><path d="M 76 143 L 77 143 L 77 144 L 76 144 Z M 76 143 " clip-rule="nonzero"/></clipPath><clipPath id="c91d8404ca"><path d="M 127.109375 -12.914062 L 335.371094 54.8125 L 248.164062 322.988281 L 39.898438 255.261719 Z M 127.109375 -12.914062 " clip-rule="nonzero"/></clipPath><clipPath id="4591596c10"><path d="M 127.109375 -12.914062 L 335.371094 54.8125 L 248.164062 322.988281 L 39.898438 255.261719 Z M 127.109375 -12.914062 " clip-rule="nonzero"/></clipPath><clipPath id="63bae61491"><path d="M 70 18 L 296 18 L 296 294 L 70 294 Z M 70 18 " clip-rule="nonzero"/></clipPath><clipPath id="cc3f16ff3b"><path d="M 127.109375 -12.914062 L 335.371094 54.8125 L 248.164062 322.988281 L 39.898438 255.261719 Z M 127.109375 -12.914062 " clip-rule="nonzero"/></clipPath><clipPath id="c93764536c"><path d="M 127.109375 -12.914062 L 335.371094 54.8125 L 248.164062 322.988281 L 39.898438 255.261719 Z M 127.109375 -12.914062 " clip-rule="nonzero"/></clipPath></defs><g clip-path="url(#6186358390)"><g clip-path="url(#ad86d9614a)"><g clip-path="url(#904ba11d76)"><path fill="#ffffff" d="M 284.621094 211.472656 L 284.636719 211.472656 C 284.660156 211.394531 284.679688 211.3125 284.703125 211.234375 C 284.675781 211.316406 284.644531 211.390625 284.621094 211.472656 Z M 284.621094 211.472656 " fill-opacity="1" fill-rule="nonzero"/></g></g></g><g clip-path="url(#7a0c46f561)"><g clip-path="url(#c91d8404ca)"><g clip-path="url(#4591596c10)"><path fill="#ffffff" d="M 76.335938 143.621094 L 76.339844 143.621094 C 76.359375 143.578125 76.371094 143.53125 76.386719 143.480469 C 76.367188 143.527344 76.347656 143.574219 76.335938 143.621094 Z M 76.335938 143.621094 " fill-opacity="1" fill-rule="nonzero"/></g></g></g><g clip-path="url(#63bae61491)"><g clip-path="url(#cc3f16ff3b)"><g clip-path="url(#c93764536c)"><path fill="#ffffff" d="M 276.925781 229.59375 C 277.570312 228.3125 278.199219 227.007812 278.816406 225.6875 C 278.953125 225.386719 279.085938 225.089844 279.226562 224.785156 C 279.699219 223.757812 280.160156 222.714844 280.613281 221.664062 C 280.652344 221.578125 280.691406 221.492188 280.730469 221.402344 C 280.816406 221.210938 280.894531 221.027344 280.976562 220.835938 C 281.515625 219.566406 282.042969 218.277344 282.554688 216.976562 C 282.566406 216.957031 282.574219 216.933594 282.582031 216.914062 C 282.6875 216.648438 282.785156 216.371094 282.894531 216.105469 C 283.308594 215.03125 283.714844 213.945312 284.109375 212.851562 C 284.175781 212.664062 284.253906 212.484375 284.320312 212.296875 C 284.390625 212.101562 284.453125 211.902344 284.523438 211.710938 C 285.007812 210.347656 285.480469 208.972656 285.933594 207.574219 C 286.289062 206.480469 286.636719 205.382812 286.96875 204.273438 C 287.082031 203.910156 287.179688 203.542969 287.289062 203.179688 C 287.40625 202.800781 287.511719 202.414062 287.621094 202.035156 C 287.710938 201.730469 287.804688 201.425781 287.890625 201.121094 C 287.902344 201.070312 287.917969 201.019531 287.933594 200.972656 C 288.21875 199.957031 288.492188 198.941406 288.761719 197.921875 C 288.792969 197.800781 288.828125 197.679688 288.859375 197.558594 C 289.253906 196.058594 289.621094 194.542969 289.976562 193.027344 C 290.0625 192.671875 290.140625 192.316406 290.222656 191.957031 C 290.535156 190.585938 290.835938 189.210938 291.121094 187.824219 C 291.152344 187.65625 291.191406 187.488281 291.226562 187.316406 C 291.542969 185.757812 291.835938 184.191406 292.113281 182.625 C 292.160156 182.324219 292.214844 182.03125 292.269531 181.734375 C 292.511719 180.300781 292.746094 178.863281 292.960938 177.421875 C 292.984375 177.253906 293.011719 177.085938 293.039062 176.917969 C 293.28125 175.292969 293.5 173.664062 293.699219 172.027344 C 293.71875 171.828125 293.746094 171.636719 293.769531 171.4375 C 293.949219 169.90625 294.117188 168.367188 294.265625 166.828125 C 294.28125 166.691406 294.296875 166.554688 294.308594 166.417969 C 294.472656 164.722656 294.613281 163.023438 294.730469 161.320312 C 294.734375 161.261719 294.734375 161.199219 294.742188 161.136719 C 294.859375 159.476562 294.953125 157.8125 295.027344 156.144531 C 295.03125 156.050781 295.035156 155.953125 295.042969 155.863281 C 295.195312 152.390625 295.261719 148.921875 295.246094 145.457031 C 295.246094 145.40625 295.246094 145.359375 295.242188 145.304688 C 295.222656 141.808594 295.117188 138.316406 294.925781 134.839844 L 294.921875 134.792969 C 294.726562 131.296875 294.445312 127.820312 294.078125 124.367188 C 294.078125 124.367188 294.078125 124.367188 294.078125 124.363281 C 293.722656 121.050781 293.292969 117.765625 292.78125 114.511719 C 292.734375 114.195312 292.683594 113.878906 292.628906 113.5625 C 292.386719 112.074219 292.132812 110.59375 291.863281 109.117188 C 291.847656 109.0625 291.839844 109.007812 291.828125 108.953125 C 291.535156 107.382812 291.222656 105.828125 290.894531 104.28125 C 290.839844 104.039062 290.785156 103.792969 290.734375 103.550781 C 290.40625 102.046875 290.0625 100.554688 289.703125 99.074219 C 289.695312 99.046875 289.6875 99.019531 289.683594 98.992188 C 289.296875 97.414062 288.886719 95.851562 288.460938 94.300781 L 288.347656 93.894531 C 287.480469 90.773438 286.535156 87.703125 285.511719 84.699219 C 285.492188 84.65625 285.480469 84.617188 285.464844 84.574219 C 283.96875 80.203125 282.300781 75.96875 280.46875 71.890625 C 280.386719 71.710938 280.308594 71.53125 280.226562 71.355469 C 279.007812 68.675781 277.714844 66.070312 276.347656 63.535156 C 276.273438 63.402344 276.203125 63.265625 276.128906 63.132812 C 274.734375 60.5625 273.265625 58.078125 271.71875 55.683594 C 271.679688 55.621094 271.640625 55.566406 271.601562 55.5 C 266.070312 46.964844 259.59375 39.578125 252.195312 33.726562 C 252.09375 33.644531 251.992188 33.566406 251.886719 33.484375 C 250.492188 32.398438 249.066406 31.359375 247.613281 30.378906 C 247.367188 30.21875 247.125 30.050781 246.878906 29.890625 C 246.484375 29.632812 246.089844 29.375 245.691406 29.128906 C 245.34375 28.910156 244.992188 28.699219 244.644531 28.488281 C 244.136719 28.183594 243.625 27.882812 243.109375 27.59375 C 242.660156 27.335938 242.203125 27.082031 241.746094 26.835938 C 241.4375 26.671875 241.128906 26.511719 240.820312 26.347656 C 240.347656 26.101562 239.863281 25.863281 239.382812 25.628906 C 239.128906 25.503906 238.878906 25.378906 238.628906 25.257812 C 237.910156 24.921875 237.1875 24.59375 236.457031 24.285156 C 236.253906 24.199219 236.046875 24.117188 235.839844 24.03125 C 235.25 23.785156 234.652344 23.550781 234.054688 23.320312 C 233.824219 23.234375 233.597656 23.144531 233.371094 23.058594 C 232.585938 22.769531 231.789062 22.488281 230.992188 22.230469 C 230.179688 21.964844 229.363281 21.722656 228.546875 21.492188 C 228.292969 21.421875 228.039062 21.355469 227.785156 21.289062 C 227.207031 21.128906 226.625 20.984375 226.039062 20.84375 C 225.757812 20.773438 225.484375 20.710938 225.203125 20.644531 C 224.558594 20.5 223.917969 20.363281 223.273438 20.242188 C 223.082031 20.203125 222.890625 20.164062 222.699219 20.121094 C 221.90625 19.976562 221.113281 19.847656 220.316406 19.730469 C 219.992188 19.679688 219.667969 19.640625 219.347656 19.597656 C 218.847656 19.53125 218.34375 19.46875 217.839844 19.414062 C 217.46875 19.371094 217.09375 19.332031 216.71875 19.300781 C 216.257812 19.257812 215.789062 19.21875 215.320312 19.1875 C 214.945312 19.160156 214.5625 19.125 214.179688 19.105469 C 213.445312 19.0625 212.707031 19.03125 211.972656 19.011719 C 211.503906 19 211.035156 19 210.566406 18.996094 C 210.21875 18.996094 209.871094 18.992188 209.523438 18.996094 C 209.019531 18.996094 208.527344 19.007812 208.023438 19.023438 C 207.726562 19.03125 207.429688 19.042969 207.132812 19.054688 C 205.273438 19.125 203.410156 19.269531 201.539062 19.480469 C 201.375 19.496094 201.210938 19.515625 201.050781 19.535156 C 200.449219 19.605469 199.847656 19.6875 199.25 19.773438 C 199.050781 19.800781 198.859375 19.832031 198.664062 19.855469 C 198.042969 19.949219 197.421875 20.046875 196.800781 20.152344 C 195.765625 20.332031 194.730469 20.53125 193.6875 20.746094 C 193.332031 20.820312 192.980469 20.898438 192.625 20.976562 C 189.21875 21.734375 185.816406 22.695312 182.414062 23.855469 C 182.207031 23.929688 181.996094 24.003906 181.785156 24.078125 C 180.882812 24.390625 179.976562 24.71875 179.078125 25.058594 C 178.84375 25.148438 178.609375 25.238281 178.375 25.332031 C 177.429688 25.695312 176.488281 26.074219 175.546875 26.472656 C 175.394531 26.535156 175.242188 26.59375 175.089844 26.660156 C 172.851562 27.609375 170.617188 28.640625 168.390625 29.75 L 167.992188 29.953125 C 167.039062 30.433594 166.089844 30.925781 165.140625 31.429688 C 164.921875 31.550781 164.699219 31.667969 164.476562 31.789062 C 163.578125 32.277344 162.679688 32.777344 161.785156 33.289062 C 161.589844 33.398438 161.398438 33.507812 161.207031 33.621094 C 155.847656 36.71875 150.566406 40.25 145.410156 44.164062 C 145.351562 44.210938 145.292969 44.253906 145.230469 44.300781 C 140.875 47.617188 136.605469 51.203125 132.460938 55.027344 C 132.425781 55.054688 132.394531 55.085938 132.363281 55.117188 C 126.960938 60.101562 121.757812 65.488281 116.835938 71.195312 C 115.667969 72.535156 114.527344 73.898438 113.398438 75.277344 C 113.328125 75.363281 113.257812 75.453125 113.183594 75.539062 C 110.96875 78.253906 108.8125 81.027344 106.726562 83.859375 C 106.609375 84.015625 106.5 84.171875 106.382812 84.328125 C 104.351562 87.097656 102.382812 89.921875 100.488281 92.800781 C 100.335938 93.023438 100.191406 93.25 100.042969 93.476562 C 98.195312 96.296875 96.414062 99.164062 94.703125 102.070312 C 94.542969 102.347656 94.378906 102.625 94.21875 102.90625 C 92.535156 105.800781 90.925781 108.730469 89.390625 111.691406 C 89.386719 111.699219 89.378906 111.707031 89.375 111.71875 C 88.804688 112.828125 88.242188 113.941406 87.691406 115.058594 C 87.664062 115.113281 87.640625 115.160156 87.617188 115.210938 C 87.085938 116.28125 86.570312 117.355469 86.0625 118.433594 L 85.917969 118.730469 C 85.441406 119.753906 84.972656 120.777344 84.515625 121.800781 C 84.445312 121.957031 84.375 122.109375 84.304688 122.261719 C 83.878906 123.230469 83.457031 124.195312 83.046875 125.164062 C 82.957031 125.375 82.867188 125.585938 82.773438 125.796875 C 82.394531 126.710938 82.019531 127.621094 81.65625 128.535156 C 81.546875 128.800781 81.433594 129.0625 81.335938 129.324219 C 80.988281 130.1875 80.660156 131.054688 80.328125 131.921875 C 80.214844 132.230469 80.09375 132.53125 79.980469 132.839844 C 79.65625 133.703125 79.351562 134.574219 79.039062 135.441406 C 78.933594 135.738281 78.824219 136.03125 78.722656 136.328125 C 78.3125 137.484375 77.925781 138.644531 77.546875 139.804688 C 77.117188 141.125 76.714844 142.449219 76.320312 143.761719 C 76.203125 144.15625 76.085938 144.546875 75.976562 144.941406 C 75.695312 145.90625 75.425781 146.863281 75.167969 147.824219 C 75.0625 148.21875 74.957031 148.613281 74.851562 149.007812 C 74.535156 150.207031 74.238281 151.402344 73.953125 152.589844 C 73.929688 152.695312 73.902344 152.800781 73.878906 152.90625 C 73.585938 154.148438 73.3125 155.386719 73.054688 156.621094 C 73.054688 156.632812 73.046875 156.644531 73.042969 156.652344 C 73.019531 156.765625 73 156.871094 72.980469 156.980469 C 72.9375 157.175781 72.902344 157.375 72.863281 157.570312 C 72.851562 157.621094 72.84375 157.671875 72.832031 157.722656 C 72.828125 157.761719 72.820312 157.796875 72.8125 157.839844 C 72.617188 158.808594 72.433594 159.769531 72.261719 160.734375 C 72.191406 161.109375 72.121094 161.476562 72.0625 161.855469 C 72.035156 162.019531 72.003906 162.183594 71.972656 162.347656 L 71.945312 162.363281 L 71.960938 162.410156 C 71.804688 163.351562 71.65625 164.289062 71.515625 165.222656 C 71.5 165.367188 71.472656 165.515625 71.449219 165.65625 C 71.261719 166.9375 71.097656 168.207031 70.953125 169.480469 C 70.917969 169.765625 70.890625 170.050781 70.859375 170.335938 C 70.746094 171.332031 70.648438 172.328125 70.558594 173.320312 C 70.527344 173.648438 70.503906 173.980469 70.476562 174.308594 C 70.386719 175.414062 70.308594 176.507812 70.246094 177.601562 C 70.242188 177.742188 70.226562 177.886719 70.21875 178.027344 C 70.152344 179.296875 70.109375 180.558594 70.074219 181.8125 C 70.074219 182.007812 70.070312 182.199219 70.070312 182.402344 C 70.046875 183.449219 70.039062 184.488281 70.042969 185.527344 C 70.046875 185.699219 70.042969 185.871094 70.046875 186.042969 C 70.046875 186.078125 70.050781 186.109375 70.046875 186.148438 C 70.050781 186.21875 70.054688 186.289062 70.054688 186.359375 C 70.066406 187.445312 70.089844 188.53125 70.132812 189.609375 C 70.136719 189.714844 70.136719 189.824219 70.140625 189.929688 C 70.140625 189.972656 70.144531 190.015625 70.144531 190.0625 C 70.195312 191.28125 70.261719 192.5 70.351562 193.710938 C 70.371094 193.933594 70.390625 194.15625 70.40625 194.378906 C 70.480469 195.328125 70.5625 196.273438 70.65625 197.210938 C 70.691406 197.554688 70.730469 197.890625 70.765625 198.230469 C 70.867188 199.144531 70.976562 200.054688 71.097656 200.957031 C 71.125 201.144531 71.144531 201.332031 71.167969 201.515625 L 71.171875 201.511719 C 71.382812 203.027344 71.621094 204.53125 71.890625 206.023438 L 71.890625 206.027344 C 71.90625 206.117188 71.925781 206.203125 71.941406 206.292969 C 72.082031 207.066406 72.230469 207.832031 72.382812 208.59375 C 72.417969 208.746094 72.449219 208.902344 72.480469 209.054688 C 72.519531 209.238281 72.554688 209.417969 72.59375 209.597656 C 72.59375 209.597656 72.59375 209.601562 72.59375 209.601562 C 72.71875 210.175781 72.84375 210.75 72.976562 211.320312 C 73.011719 211.480469 73.054688 211.640625 73.085938 211.796875 C 73.261719 212.539062 73.445312 213.277344 73.628906 214.011719 C 73.671875 214.179688 73.71875 214.347656 73.761719 214.515625 C 73.949219 215.234375 74.144531 215.953125 74.34375 216.667969 C 74.394531 216.847656 74.449219 217.027344 74.5 217.207031 C 74.703125 217.902344 74.910156 218.59375 75.121094 219.28125 C 75.183594 219.480469 75.246094 219.675781 75.308594 219.875 C 75.515625 220.53125 75.730469 221.175781 75.941406 221.820312 C 75.957031 221.863281 75.972656 221.90625 75.984375 221.949219 C 76.046875 222.140625 76.113281 222.320312 76.179688 222.507812 C 76.398438 223.144531 76.625 223.777344 76.851562 224.398438 C 76.941406 224.640625 77.027344 224.875 77.117188 225.113281 C 77.207031 225.34375 77.292969 225.578125 77.375 225.808594 C 77.382812 225.824219 77.390625 225.839844 77.394531 225.859375 C 77.53125 226.210938 77.667969 226.558594 77.804688 226.902344 C 77.910156 227.167969 78.011719 227.425781 78.121094 227.6875 C 78.351562 228.25 78.582031 228.816406 78.820312 229.371094 C 78.945312 229.65625 79.070312 229.941406 79.191406 230.222656 C 79.421875 230.75 79.65625 231.28125 79.898438 231.808594 C 80.035156 232.113281 80.179688 232.414062 80.324219 232.71875 C 80.425781 232.9375 80.519531 233.152344 80.625 233.367188 C 80.644531 233.410156 80.664062 233.449219 80.683594 233.492188 C 80.796875 233.730469 80.914062 233.96875 81.03125 234.207031 C 81.191406 234.53125 81.351562 234.847656 81.515625 235.171875 C 81.746094 235.640625 81.984375 236.109375 82.222656 236.574219 C 82.304688 236.734375 82.386719 236.894531 82.46875 237.050781 C 82.535156 237.171875 82.601562 237.285156 82.667969 237.40625 C 82.699219 237.464844 82.726562 237.523438 82.761719 237.582031 C 83 238.023438 83.234375 238.464844 83.472656 238.902344 C 83.671875 239.253906 83.867188 239.601562 84.0625 239.945312 C 84.304688 240.363281 84.539062 240.785156 84.785156 241.199219 C 84.992188 241.554688 85.207031 241.910156 85.421875 242.261719 C 85.664062 242.664062 85.90625 243.066406 86.152344 243.460938 C 86.378906 243.816406 86.605469 244.171875 86.832031 244.527344 C 87.078125 244.917969 87.328125 245.300781 87.582031 245.691406 C 87.660156 245.808594 87.730469 245.925781 87.808594 246.039062 L 87.820312 246.042969 C 88.714844 247.386719 89.636719 248.710938 90.585938 250.003906 L 90.582031 250.003906 C 90.691406 250.152344 90.808594 250.300781 90.921875 250.449219 C 91.394531 251.082031 91.875 251.714844 92.359375 252.335938 C 92.535156 252.566406 92.71875 252.792969 92.898438 253.019531 C 92.914062 253.035156 92.921875 253.046875 92.933594 253.058594 C 93.433594 253.6875 93.9375 254.3125 94.457031 254.925781 C 94.578125 255.070312 94.695312 255.214844 94.816406 255.363281 C 96.457031 257.300781 98.164062 259.175781 99.945312 260.992188 C 99.957031 261 99.96875 261.015625 99.980469 261.027344 C 101.265625 262.339844 102.59375 263.621094 103.953125 264.863281 L 103.953125 264.867188 C 103.976562 264.886719 104 264.90625 104.019531 264.925781 C 105.714844 266.472656 107.46875 267.96875 109.269531 269.410156 C 109.40625 269.523438 109.542969 269.628906 109.679688 269.734375 C 110.261719 270.195312 110.84375 270.648438 111.4375 271.097656 C 111.445312 271.105469 111.453125 271.109375 111.464844 271.117188 C 111.683594 271.285156 111.902344 271.449219 112.121094 271.613281 C 112.222656 271.6875 112.316406 271.757812 112.410156 271.832031 C 113.34375 272.519531 114.289062 273.195312 115.25 273.859375 C 115.261719 273.863281 115.277344 273.875 115.292969 273.886719 C 115.542969 274.058594 115.789062 274.222656 116.039062 274.394531 L 116.042969 274.394531 C 116.707031 274.84375 117.375 275.289062 118.054688 275.722656 C 118.066406 275.730469 118.085938 275.738281 118.097656 275.75 C 119.085938 276.386719 120.082031 277.007812 121.09375 277.609375 C 121.09375 277.609375 121.105469 277.617188 121.113281 277.625 C 121.617188 277.925781 122.117188 278.21875 122.617188 278.507812 C 122.640625 278.523438 122.667969 278.53125 122.683594 278.542969 C 124.199219 279.414062 125.742188 280.257812 127.308594 281.0625 C 127.421875 281.121094 127.535156 281.175781 127.644531 281.234375 C 128.269531 281.554688 128.894531 281.867188 129.527344 282.179688 C 129.605469 282.214844 129.683594 282.253906 129.765625 282.292969 C 129.984375 282.398438 130.207031 282.503906 130.429688 282.613281 C 130.578125 282.683594 130.726562 282.753906 130.875 282.824219 C 131.542969 283.136719 132.210938 283.441406 132.886719 283.746094 C 133.0625 283.820312 133.230469 283.902344 133.40625 283.976562 C 134.535156 284.472656 135.667969 284.957031 136.816406 285.421875 C 136.929688 285.464844 137.042969 285.507812 137.15625 285.550781 L 137.175781 285.558594 C 137.441406 285.664062 137.710938 285.769531 137.980469 285.875 C 138.714844 286.164062 139.453125 286.441406 140.203125 286.71875 C 140.402344 286.792969 140.601562 286.871094 140.804688 286.945312 C 140.964844 287.003906 141.128906 287.058594 141.296875 287.117188 C 142.355469 287.496094 143.425781 287.867188 144.507812 288.21875 C 145.519531 288.546875 146.53125 288.859375 147.542969 289.160156 C 147.679688 289.199219 147.816406 289.242188 147.949219 289.277344 C 148.1875 289.351562 148.429688 289.414062 148.667969 289.480469 C 149.324219 289.667969 149.980469 289.847656 150.640625 290.027344 C 150.894531 290.097656 151.148438 290.164062 151.398438 290.230469 C 151.601562 290.28125 151.804688 290.332031 152.003906 290.382812 C 152.625 290.539062 153.242188 290.691406 153.859375 290.835938 C 154.121094 290.898438 154.386719 290.960938 154.644531 291.019531 C 155.605469 291.238281 156.558594 291.445312 157.511719 291.640625 C 157.566406 291.652344 157.621094 291.664062 157.675781 291.675781 C 158.027344 291.746094 158.382812 291.8125 158.738281 291.878906 C 158.886719 291.910156 159.035156 291.9375 159.183594 291.960938 C 160.230469 292.160156 161.273438 292.335938 162.316406 292.503906 C 162.417969 292.519531 162.519531 292.535156 162.625 292.554688 C 163.140625 292.632812 163.652344 292.710938 164.164062 292.78125 C 164.21875 292.789062 164.265625 292.792969 164.3125 292.800781 C 165.339844 292.941406 166.355469 293.070312 167.375 293.183594 C 167.457031 293.195312 167.539062 293.199219 167.621094 293.207031 C 168.671875 293.324219 169.71875 293.425781 170.769531 293.507812 L 170.78125 293.507812 C 171.613281 293.574219 172.445312 293.628906 173.277344 293.675781 C 173.285156 293.675781 173.292969 293.675781 173.292969 293.675781 C 173.574219 293.695312 173.851562 293.714844 174.125 293.726562 C 175.160156 293.777344 176.1875 293.8125 177.21875 293.832031 C 177.257812 293.832031 177.296875 293.832031 177.335938 293.832031 C 178.308594 293.847656 179.285156 293.851562 180.261719 293.84375 C 180.347656 293.84375 180.4375 293.839844 180.523438 293.839844 C 181.472656 293.828125 182.421875 293.808594 183.371094 293.769531 L 183.527344 293.761719 C 184.09375 293.742188 184.660156 293.71875 185.21875 293.6875 L 185.222656 293.6875 C 186.484375 293.617188 187.742188 293.515625 189 293.398438 C 189.171875 293.386719 189.34375 293.367188 189.519531 293.351562 C 190.582031 293.246094 191.648438 293.132812 192.707031 292.996094 C 192.914062 292.972656 193.113281 292.941406 193.320312 292.917969 C 193.367188 292.910156 193.417969 292.902344 193.46875 292.894531 C 194.644531 292.738281 195.8125 292.550781 196.980469 292.347656 C 197.101562 292.328125 197.226562 292.3125 197.347656 292.289062 C 197.398438 292.277344 197.449219 292.269531 197.496094 292.261719 C 198.789062 292.035156 200.074219 291.78125 201.351562 291.5 C 201.390625 291.496094 201.425781 291.488281 201.460938 291.476562 C 201.496094 291.46875 201.53125 291.460938 201.566406 291.449219 C 201.699219 291.421875 201.828125 291.390625 201.960938 291.363281 C 204.417969 290.8125 206.851562 290.175781 209.265625 289.445312 C 209.273438 289.441406 209.277344 289.441406 209.285156 289.4375 C 211.265625 288.839844 213.222656 288.179688 215.164062 287.460938 L 215.167969 287.460938 C 216.648438 286.910156 218.121094 286.324219 219.578125 285.707031 C 219.609375 285.691406 219.644531 285.679688 219.671875 285.664062 C 221.132812 285.042969 222.574219 284.390625 224.011719 283.703125 L 224.015625 283.703125 C 228.320312 281.628906 232.507812 279.234375 236.566406 276.53125 C 236.640625 276.484375 236.710938 276.433594 236.785156 276.390625 C 238.058594 275.53125 239.324219 274.644531 240.574219 273.726562 C 240.691406 273.636719 240.804688 273.554688 240.921875 273.46875 C 242.15625 272.554688 243.378906 271.613281 244.582031 270.636719 C 244.679688 270.550781 244.78125 270.472656 244.875 270.390625 C 246.109375 269.386719 247.328125 268.351562 248.53125 267.285156 C 248.535156 267.28125 248.535156 267.277344 248.542969 267.277344 C 251.820312 264.355469 254.972656 261.191406 258 257.796875 C 258 257.796875 258.003906 257.796875 258.003906 257.792969 C 258.960938 256.714844 259.902344 255.613281 260.832031 254.488281 C 260.914062 254.390625 260.988281 254.292969 261.070312 254.199219 C 261.75 253.371094 262.421875 252.53125 263.085938 251.679688 C 263.144531 251.601562 263.203125 251.523438 263.265625 251.445312 C 263.402344 251.265625 263.546875 251.085938 263.683594 250.898438 C 263.71875 250.859375 263.75 250.820312 263.78125 250.785156 C 264.632812 249.664062 265.476562 248.519531 266.300781 247.355469 C 266.445312 247.152344 266.589844 246.949219 266.726562 246.742188 C 267.171875 246.113281 267.609375 245.480469 268.042969 244.839844 C 268.128906 244.722656 268.207031 244.597656 268.289062 244.476562 C 268.53125 244.113281 268.777344 243.75 269.019531 243.382812 L 269.148438 243.1875 C 269.558594 242.5625 269.960938 241.921875 270.367188 241.285156 C 270.429688 241.183594 270.496094 241.082031 270.558594 240.980469 C 270.839844 240.527344 271.121094 240.074219 271.398438 239.617188 C 271.574219 239.328125 271.75 239.042969 271.917969 238.753906 C 272.1875 238.300781 272.460938 237.851562 272.726562 237.394531 C 272.777344 237.3125 272.824219 237.226562 272.871094 237.140625 C 273.265625 236.460938 273.664062 235.777344 274.050781 235.085938 C 274.058594 235.070312 274.066406 235.058594 274.074219 235.042969 C 274.296875 234.648438 274.507812 234.246094 274.726562 233.84375 C 274.855469 233.609375 274.984375 233.367188 275.117188 233.125 C 275.714844 232.011719 276.304688 230.886719 276.882812 229.742188 L 276.980469 229.683594 Z M 276.925781 229.59375 " fill-opacity="1" fill-rule="nonzero"/></g></g></g><g fill="#ffffff" fill-opacity="1"><g transform="translate(59.832018, 348.800589)"><g><path d="M 48.445312 2.703125 L 48.445312 -3.460938 L 15.140625 -3.460938 C 13.894531 -3.460938 13.085938 -3.894531 13.085938 -5.082031 L 13.085938 -18.707031 C 13.085938 -20.003906 14.003906 -20.925781 15.246094 -21.085938 L 48.714844 -25.085938 L 47.308594 -31.574219 L 29.738281 -29.195312 L 24.113281 -45.363281 L 16.4375 -45.363281 L 22.601562 -28.277344 L 12.707031 -26.925781 C 8.328125 -26.332031 6.273438 -22.546875 6.273438 -19.195312 L 6.273438 -3.730469 C 6.273438 0 8.8125 2.703125 13.136719 2.703125 Z M 48.445312 2.703125 "/></g></g></g><g fill="#ffffff" fill-opacity="1"><g transform="translate(126.919501, 348.800589)"><g><path d="M 41.089844 -0.378906 C 45.957031 -1.082031 47.902344 -4 47.902344 -7.246094 L 47.902344 -23.789062 C 47.902344 -27.628906 44.605469 -29.574219 41.417969 -29.574219 L 10.976562 -29.628906 C 8.273438 -29.628906 5.675781 -28.332031 5.675781 -24.710938 L 5.675781 -21.085938 L 11.679688 -21.085938 C 11.679688 -22.816406 12.4375 -23.683594 13.789062 -23.683594 L 38.660156 -23.683594 C 40.335938 -23.683594 41.089844 -22.601562 41.089844 -21.304688 L 41.089844 -8.976562 C 41.089844 -7.570312 40.117188 -6.648438 38.820312 -6.488281 L 9.839844 -2.488281 L 12.597656 3.785156 Z M 48.390625 -36.929688 L 48.390625 -42.820312 L 13.246094 -42.820312 C 11.894531 -42.820312 11.136719 -43.144531 11.136719 -44.875 L 5.675781 -44.875 L 5.675781 -41.847656 C 5.675781 -38.226562 8.273438 -36.929688 10.976562 -36.929688 Z M 48.390625 -36.929688 "/></g></g></g><g fill="#ffffff" fill-opacity="1"><g transform="translate(194.006985, 348.800589)"><g><path d="M 39.792969 1.40625 C 45.796875 0.917969 47.902344 -2.757812 47.902344 -6.164062 L 47.902344 -18.492188 C 47.902344 -21.519531 45.039062 -24.4375 41.089844 -24.4375 L 31.738281 -24.4375 L 44.824219 -35.792969 L 44.824219 -41.6875 L 12.761719 -41.6875 C 11.410156 -41.6875 10.652344 -42.011719 10.652344 -43.742188 L 5.191406 -43.742188 L 5.191406 -40.714844 C 5.191406 -37.089844 7.785156 -35.792969 10.488281 -35.792969 L 35.792969 -35.792969 L 23.628906 -24.4375 L 10.652344 -24.4375 L 10.652344 -18.597656 L 38.765625 -18.597656 C 40.441406 -18.597656 41.089844 -17.570312 41.089844 -16.328125 L 41.089844 -7.246094 C 41.089844 -5.839844 40.496094 -4.867188 38.984375 -4.757812 L 7.460938 -2.433594 L 9.355469 3.785156 Z M 39.792969 1.40625 "/></g></g></g><g fill="#ffffff" fill-opacity="1"><g transform="translate(261.094468, 348.800589)"><g><path d="M 40.496094 4.433594 L 45.09375 -1.566406 L 15.191406 -17.519531 C 14.058594 -18.113281 13.464844 -18.707031 13.464844 -20.167969 L 13.464844 -22.546875 C 13.464844 -23.84375 14.113281 -24.492188 15.355469 -25.085938 L 38.765625 -36.226562 C 41.523438 -37.523438 42.929688 -39.363281 42.929688 -42.550781 L 42.929688 -45.578125 L 36.875 -45.578125 C 36.875 -43.523438 36.0625 -42.929688 34.765625 -42.28125 L 10.757812 -30.386719 C 7.515625 -28.765625 6.597656 -26.710938 6.597656 -23.84375 L 6.597656 -19.355469 C 6.597656 -16.4375 7.40625 -14.4375 10.433594 -12.707031 Z M 40.496094 4.433594 "/></g></g></g></svg>