<svg xmlns="http://www.w3.org/2000/svg" xmlns:xlink="http://www.w3.org/1999/xlink" width="500" zoomAndPan="magnify" viewBox="0 0 375 374.999991" height="500" preserveAspectRatio="xMidYMid meet" version="1.0"><defs><g/><clipPath id="84185ee604"><path d="M 43.363281 37.5 L 337.5 37.5 L 337.5 331.636719 L 43.363281 331.636719 Z M 43.363281 37.5 " clip-rule="nonzero"/></clipPath><clipPath id="7392f1bed1"><path d="M 190.429688 37.5 C 109.207031 37.5 43.363281 103.34375 43.363281 184.570312 C 43.363281 265.792969 109.207031 331.636719 190.429688 331.636719 C 271.65625 331.636719 337.5 265.792969 337.5 184.570312 C 337.5 103.34375 271.65625 37.5 190.429688 37.5 " clip-rule="nonzero"/></clipPath><clipPath id="9b8fdacf4e"><path d="M 79.617188 70.566406 L 301.617188 70.566406 L 301.617188 238.566406 L 79.617188 238.566406 Z M 79.617188 70.566406 " clip-rule="nonzero"/></clipPath></defs><g clip-path="url(#84185ee604)"><g clip-path="url(#7392f1bed1)"><path fill="#ff5757" d="M 43.363281 37.5 L 337.5 37.5 L 337.5 331.636719 L 43.363281 331.636719 Z M 43.363281 37.5 " fill-opacity="1" fill-rule="nonzero"/></g></g><path fill="#ffffff" d="M 190.617188 144.015625 C 169.3125 144.015625 151.980469 161.359375 151.980469 182.675781 C 151.980469 203.992188 169.3125 221.332031 190.617188 221.332031 C 211.921875 221.332031 229.25 203.992188 229.25 182.675781 C 229.25 161.359375 211.921875 144.015625 190.617188 144.015625 Z M 190.617188 216.394531 C 172.03125 216.394531 156.914062 201.269531 156.914062 182.671875 C 156.914062 164.074219 172.03125 148.949219 190.617188 148.949219 C 209.199219 148.949219 224.316406 164.074219 224.316406 182.671875 C 224.316406 201.269531 209.199219 216.394531 190.617188 216.394531 Z M 190.617188 216.394531 " fill-opacity="1" fill-rule="nonzero"/><path fill="#ffffff" d="M 190.617188 156.769531 C 176.339844 156.769531 164.726562 168.390625 164.726562 182.675781 C 164.726562 196.960938 176.339844 208.578125 190.617188 208.578125 C 204.890625 208.578125 216.503906 196.960938 216.503906 182.675781 C 216.503906 168.390625 204.890625 156.769531 190.617188 156.769531 Z M 190.617188 203.640625 C 179.058594 203.640625 169.660156 194.238281 169.660156 182.675781 C 169.660156 171.113281 179.0625 161.707031 190.617188 161.707031 C 202.167969 161.707031 211.574219 171.113281 211.574219 182.675781 C 211.574219 194.234375 202.167969 203.640625 190.617188 203.640625 Z M 190.617188 203.640625 " fill-opacity="1" fill-rule="nonzero"/><path fill="#ffffff" d="M 243.46875 131.207031 C 234.320312 131.207031 226.878906 140.820312 226.878906 152.640625 C 226.878906 158.90625 228.96875 164.832031 232.609375 168.894531 C 235.542969 172.164062 237.050781 176.300781 236.867188 180.542969 L 235.433594 212.914062 C 235.335938 215.132812 236.125 217.234375 237.660156 218.84375 C 239.195312 220.449219 241.261719 221.332031 243.480469 221.332031 C 245.703125 221.332031 247.765625 220.449219 249.300781 218.84375 C 250.835938 217.242188 251.625 215.136719 251.527344 212.914062 L 250.09375 180.511719 C 249.910156 176.28125 251.417969 172.148438 254.339844 168.875 C 257.976562 164.8125 260.058594 158.890625 260.058594 152.640625 C 260.058594 140.820312 252.613281 131.207031 243.464844 131.207031 Z M 250.667969 165.585938 C 246.878906 169.824219 244.925781 175.199219 245.167969 180.730469 L 246.601562 213.132812 C 246.640625 213.992188 246.332031 214.808594 245.734375 215.433594 C 244.546875 216.675781 242.414062 216.675781 241.222656 215.433594 C 240.628906 214.808594 240.324219 213.992188 240.359375 213.132812 L 241.792969 180.765625 C 242.035156 175.222656 240.078125 169.839844 236.28125 165.601562 C 233.441406 162.433594 231.8125 157.707031 231.8125 152.644531 C 231.8125 143.546875 237.039062 136.144531 243.46875 136.144531 C 249.898438 136.144531 255.128906 143.546875 255.128906 152.644531 C 255.128906 157.699219 253.503906 162.414062 250.667969 165.589844 Z M 250.667969 165.585938 " fill-opacity="1" fill-rule="nonzero"/><path fill="#ffffff" d="M 145.910156 131.207031 L 143.355469 131.207031 C 137.71875 131.207031 132.828125 134.828125 131.179688 140.21875 L 122.8125 167.601562 C 121.046875 173.390625 122.921875 179.605469 127.597656 183.445312 L 133.289062 188.117188 L 133.289062 213.785156 C 133.289062 217.945312 136.675781 221.332031 140.832031 221.332031 C 144.992188 221.332031 148.375 217.945312 148.375 213.785156 L 148.375 133.675781 C 148.375 132.3125 147.273438 131.207031 145.910156 131.207031 Z M 143.441406 213.785156 C 143.441406 215.226562 142.269531 216.398438 140.832031 216.398438 C 139.394531 216.398438 138.222656 215.226562 138.222656 213.785156 L 138.222656 186.953125 C 138.222656 186.214844 137.894531 185.511719 137.324219 185.042969 L 130.726562 179.628906 C 127.605469 177.066406 126.351562 172.910156 127.53125 169.042969 L 135.898438 141.660156 C 136.90625 138.359375 139.902344 136.140625 143.351562 136.140625 L 143.441406 136.140625 Z M 143.441406 213.785156 " fill-opacity="1" fill-rule="nonzero"/><path fill="#ffffff" d="M 269.148438 133.589844 L 192.296875 90.703125 C 191.550781 90.285156 190.644531 90.285156 189.902344 90.699219 L 112.253906 133.640625 C 96.75 142.210938 87.121094 158.542969 87.121094 176.265625 L 87.121094 228.246094 C 87.121094 229.609375 88.222656 230.714844 89.589844 230.714844 L 291.644531 230.714844 C 293.007812 230.714844 294.113281 229.609375 294.113281 228.246094 L 294.113281 176.128906 C 294.113281 158.488281 284.546875 142.1875 269.148438 133.589844 Z M 289.179688 225.777344 L 92.050781 225.777344 L 92.050781 176.265625 C 92.050781 160.339844 100.707031 145.660156 114.636719 137.957031 L 191.089844 95.679688 L 266.742188 137.898438 C 280.578125 145.621094 289.179688 160.269531 289.179688 176.125 Z M 289.179688 225.777344 " fill-opacity="1" fill-rule="nonzero"/><path fill="#ffffff" d="M 103.710938 159.011719 C 102.46875 158.445312 101.007812 159 100.445312 160.238281 C 98.148438 165.308594 96.988281 170.703125 96.988281 176.265625 L 96.988281 187.898438 C 96.988281 189.261719 98.089844 190.367188 99.453125 190.367188 C 100.820312 190.367188 101.921875 189.261719 101.921875 187.898438 L 101.921875 176.265625 C 101.921875 171.410156 102.9375 166.703125 104.945312 162.277344 C 105.503906 161.039062 104.957031 159.574219 103.714844 159.011719 Z M 103.710938 159.011719 " fill-opacity="1" fill-rule="nonzero"/><path fill="#ffffff" d="M 99.453125 194.34375 C 98.089844 194.34375 96.984375 195.449219 96.984375 196.8125 L 96.984375 208.007812 C 96.984375 209.371094 98.089844 210.476562 99.453125 210.476562 C 100.816406 210.476562 101.917969 209.371094 101.917969 208.007812 L 101.917969 196.8125 C 101.917969 195.449219 100.816406 194.34375 99.453125 194.34375 Z M 99.453125 194.34375 " fill-opacity="1" fill-rule="nonzero"/><g clip-path="url(#9b8fdacf4e)"><path fill="#ffffff" d="M 300.328125 142.429688 L 279.898438 131.027344 L 279.898438 97.753906 L 287.097656 97.753906 C 288.464844 97.753906 289.566406 96.648438 289.566406 95.285156 L 289.566406 73.152344 C 289.566406 71.792969 288.464844 70.6875 287.097656 70.6875 L 233.800781 70.6875 C 232.4375 70.6875 231.335938 71.792969 231.335938 73.152344 L 231.335938 95.285156 C 231.335938 96.648438 232.4375 97.753906 233.800781 97.753906 L 241.011719 97.753906 L 241.011719 109.324219 L 192.320312 82.140625 C 191.574219 81.726562 190.667969 81.722656 189.925781 82.136719 L 80.914062 142.425781 C 80.125 142.859375 79.636719 143.6875 79.636719 144.585938 L 79.636719 235.730469 C 79.636719 237.09375 80.742188 238.199219 82.105469 238.199219 L 299.125 238.199219 C 300.488281 238.199219 301.589844 237.09375 301.589844 235.730469 L 301.589844 144.585938 C 301.589844 143.691406 301.109375 142.867188 300.324219 142.429688 Z M 236.265625 75.621094 L 284.628906 75.621094 L 284.628906 92.816406 L 236.265625 92.816406 Z M 245.941406 97.753906 L 274.964844 97.753906 L 274.964844 128.269531 L 267.613281 124.171875 L 245.945312 112.074219 L 245.945312 97.753906 Z M 296.660156 233.261719 L 84.574219 233.261719 L 84.574219 146.042969 L 191.109375 87.121094 L 242.226562 115.652344 C 242.242188 115.664062 242.253906 115.679688 242.273438 115.6875 L 271.570312 132.03125 L 296.65625 146.035156 L 296.65625 233.261719 Z M 296.660156 233.261719 " fill-opacity="1" fill-rule="nonzero"/></g><g fill="#ffffff" fill-opacity="1"><g transform="translate(109.380981, 288.134447)"><g><path d="M 26.191406 -1.625 C 29.199219 -2.144531 30.582031 -4.046875 30.582031 -6.640625 L 30.582031 -17.679688 L 26.015625 -18.507812 L 26.015625 -7.4375 C 26.015625 -6.675781 25.566406 -5.847656 24.738281 -5.707031 L 9.929688 -3.183594 L 9.929688 -27.609375 L 5.363281 -27.609375 L 5.363281 2.109375 Z M 26.191406 -1.625 "/></g></g></g><g fill="#ffffff" fill-opacity="1"><g transform="translate(143.97541, 288.134447)"><g><path d="M 20.136719 -19.71875 L 20.828125 -23.664062 L 8.234375 -26.050781 C 7.300781 -26.222656 7.335938 -26.847656 7.300781 -27.574219 L 3.804688 -27.574219 L 3.804688 -25.707031 C 3.804688 -23.59375 4.773438 -22.625 6.988281 -22.210938 Z M 22.140625 1.660156 C 25.359375 1.660156 27.539062 0.277344 28.300781 -2.941406 L 32.417969 -20.6875 L 28.023438 -22.210938 L 23.976562 -4.046875 C 23.699219 -2.871094 23.007812 -2.421875 21.863281 -2.421875 L 9.304688 -2.421875 C 8.511719 -2.421875 7.921875 -2.664062 7.921875 -3.703125 L 7.921875 -4.601562 L 4.152344 -4.601562 L 4.152344 -1.589844 C 4.152344 0.621094 6.019531 1.660156 8.164062 1.660156 Z M 20.136719 -10.101562 L 20.828125 -14.046875 L 8.234375 -16.433594 C 7.300781 -16.605469 7.335938 -17.230469 7.300781 -17.957031 L 3.804688 -17.957031 L 3.804688 -16.085938 C 3.804688 -13.976562 4.773438 -13.007812 6.988281 -12.59375 Z M 20.136719 -10.101562 "/></g></g></g><g fill="#ffffff" fill-opacity="1"><g transform="translate(178.569839, 288.134447)"><g><path d="M 33.90625 -26.121094 C 33.90625 -28.507812 31.96875 -30.445312 29.582031 -30.445312 C 27.191406 -30.445312 25.289062 -28.507812 25.289062 -26.121094 C 25.289062 -23.734375 27.191406 -21.832031 29.582031 -21.832031 C 31.96875 -21.832031 33.90625 -23.734375 33.90625 -26.121094 Z M 30.167969 1.558594 L 30.722656 -2.59375 L 11.070312 -2.59375 C 10.242188 -2.59375 9.273438 -2.871094 9.273438 -3.980469 L 9.273438 -16.121094 L 26.535156 -16.121094 C 28.265625 -16.121094 29.925781 -16.953125 29.925781 -19.269531 L 29.925781 -21.554688 L 26.464844 -21.554688 C 26.464844 -20.445312 25.949219 -20.238281 25.082031 -20.238281 L 9.273438 -20.238281 L 9.273438 -28.265625 L 4.707031 -28.265625 L 4.707031 -2.871094 C 4.707031 -0.554688 6.503906 1.558594 9.617188 1.558594 Z M 31.308594 -26.121094 C 31.308594 -25.1875 30.515625 -24.425781 29.582031 -24.425781 C 28.644531 -24.425781 27.886719 -25.1875 27.886719 -26.121094 C 27.886719 -27.054688 28.644531 -27.851562 29.582031 -27.851562 C 30.515625 -27.851562 31.308594 -27.054688 31.308594 -26.121094 Z M 31.308594 -26.121094 "/></g></g></g><g fill="#ffffff" fill-opacity="1"><g transform="translate(213.164268, 288.134447)"><g><path d="M 33.628906 -17.574219 L 33.628906 -21.070312 L 32.035156 -21.070312 C 31.484375 -21.070312 31.207031 -21.347656 31.207031 -21.898438 L 31.207031 -28.644531 L 16.226562 -28.644531 L 16.226562 -21.898438 C 16.226562 -21.347656 15.949219 -21.070312 15.394531 -21.070312 L 13.941406 -21.070312 L 14.667969 -17.574219 L 16.953125 -17.574219 C 19.132812 -17.574219 20.238281 -18.714844 20.238281 -20.894531 L 20.238281 -25.152344 L 27.191406 -25.152344 L 27.191406 -20.894531 C 27.191406 -18.714844 28.300781 -17.574219 30.480469 -17.574219 Z M 33.628906 2.699219 L 33.628906 -0.796875 L 30.929688 -0.796875 C 30.238281 -0.796875 29.613281 -1.003906 29.164062 -1.453125 L 26.363281 -4.222656 L 32.105469 -11.902344 L 32.105469 -15.394531 L 14.566406 -15.394531 L 14.566406 -11.902344 L 27.125 -11.902344 L 23.492188 -7.058594 L 20.792969 -9.757812 L 15.429688 -9.757812 L 21.136719 -3.945312 L 19.339844 -1.558594 C 18.957031 -1.074219 18.300781 -0.796875 17.367188 -0.796875 L 13.390625 -0.796875 L 14.148438 2.699219 L 18.648438 2.699219 C 20.03125 2.699219 21.347656 2.074219 22.625 0.863281 L 24.011719 -1.039062 L 26.570312 1.558594 C 27.609375 2.316406 28.921875 2.699219 30.515625 2.699219 Z M 6.851562 2.699219 C 7.609375 2.699219 8.269531 2.386719 8.753906 1.800781 C 9.203125 1.28125 9.445312 0.691406 9.445312 0.0703125 L 9.445312 -10.757812 L 13.078125 -11.660156 L 13.078125 -15.671875 L 9.445312 -14.773438 L 9.445312 -22.453125 L 13.078125 -22.453125 L 13.078125 -25.949219 L 9.445312 -25.949219 L 9.445312 -29.613281 L 5.15625 -29.613281 L 5.15625 -25.949219 L 0.796875 -25.949219 L 0.796875 -22.453125 L 5.15625 -22.453125 L 5.15625 -13.804688 L 0.933594 -12.835938 L 0.933594 -8.789062 L 5.15625 -9.789062 L 5.15625 -1.730469 C 5.15625 -1.488281 5.085938 -1.246094 4.949219 -1.074219 C 4.773438 -0.898438 4.53125 -0.796875 4.222656 -0.796875 L 1.625 -0.796875 L 2.214844 2.699219 Z M 6.851562 2.699219 "/></g></g></g><g fill="#ffffff" fill-opacity="1"><g transform="translate(247.758697, 288.134447)"><g><path d="M 33.628906 -24.496094 L 33.628906 -27.675781 L 26.191406 -27.675781 L 26.191406 -29.613281 L 21.898438 -29.613281 L 21.898438 -27.675781 L 14.566406 -27.675781 L 14.566406 -24.496094 Z M 28.957031 -14.082031 C 31.171875 -14.082031 32.277344 -15.1875 32.277344 -17.402344 L 32.277344 -22.417969 L 16.085938 -22.417969 L 16.085938 -14.082031 Z M 29.511719 2.800781 C 31.726562 2.800781 32.832031 1.695312 32.832031 -0.484375 L 32.832031 -12.28125 L 15.152344 -12.28125 L 15.152344 3.21875 L 19.167969 3.21875 L 19.167969 -9.339844 L 28.820312 -9.339844 L 28.820312 -0.96875 C 28.820312 -0.378906 28.542969 -0.105469 27.953125 -0.105469 L 27.054688 -0.105469 L 27.78125 2.800781 Z M 23.558594 2.007812 C 25.773438 2.007812 26.882812 0.898438 26.882812 -1.316406 L 26.882812 -7.402344 L 20.964844 -7.402344 L 20.964844 2.007812 Z M 9.722656 3.21875 L 9.722656 -17.851562 L 14.046875 -17.851562 L 14.046875 -21.347656 L 9.722656 -21.347656 L 9.722656 -24.21875 L 10.792969 -24.21875 C 11.519531 -24.21875 12.179688 -24.460938 12.664062 -25.046875 C 13.113281 -25.53125 13.285156 -26.121094 13.285156 -26.707031 L 13.285156 -29.613281 L 9.410156 -29.613281 L 9.410156 -28.613281 C 9.410156 -28.335938 9.339844 -28.128906 9.203125 -27.953125 C 9.0625 -27.78125 8.820312 -27.675781 8.511719 -27.675781 L 1.105469 -27.675781 L 1.660156 -24.21875 L 5.433594 -24.21875 L 5.433594 -21.347656 L 0.933594 -21.347656 L 0.933594 -17.851562 L 5.433594 -17.851562 L 5.433594 3.21875 Z M 13.632812 1.589844 L 13.632812 -15.984375 L 11.242188 -15.984375 L 11.242188 1.589844 Z M 1.902344 1.347656 C 2.492188 1.347656 2.976562 1.105469 3.355469 0.65625 C 3.738281 0.242188 3.910156 -0.171875 3.910156 -0.65625 L 3.910156 -15.984375 L 1.488281 -15.984375 L 1.488281 -2.90625 C 1.488281 -2.699219 1.417969 -2.527344 1.347656 -2.386719 C 1.246094 -2.214844 1.039062 -2.144531 0.761719 -2.144531 L 0.554688 -2.144531 L 1.140625 1.347656 Z M 27.988281 -17.851562 C 27.988281 -17.296875 27.710938 -17.023438 27.160156 -17.023438 L 20.378906 -17.023438 L 20.378906 -19.476562 L 27.988281 -19.476562 Z M 24.738281 -1.765625 C 24.738281 -1.210938 24.496094 -0.933594 23.90625 -0.933594 L 23.074219 -0.933594 L 23.074219 -4.464844 L 24.738281 -4.464844 Z M 24.738281 -1.765625 "/></g></g></g></svg>